; Drill file
; Format: 3.2 (000.00)
M48
METRIC
T01C0.635
T02C0.686
T03C0.889
T04C0.89
T05C1.016
T06C1.143
T07C1.27
T08C3.35
T09C3.35
%
G05
G90
T01
X01910Y-06001
X02421Y-06001
X02421Y-05461
X01910Y-05461
X00992Y-05048
X00738Y-05358
X00484Y-05048
X02199Y-03905
X02199Y-03397
X01415Y-02477
X01415Y-01715
X03183Y-01556
X03437Y-01865
X03691Y-01556
X05850Y-01556
X06159Y-01810
X05850Y-02064
X06657Y-02699
X07168Y-02699
X07248Y-01888
X08010Y-01888
X07215Y-05556
X07215Y-06255
X06739Y-06699
X06485Y-07009
X06231Y-06699
X06453Y-06255
X06453Y-05556
X06231Y-05207
X05977Y-05516
X05723Y-05207
X05080Y-05358
X04569Y-05358
X04485Y-04477
X04739Y-04167
X04993Y-04477
X03564Y-05461
X03053Y-05461
X03053Y-06001
X03564Y-06001
X05532Y-08160
X05842Y-08414
X05532Y-08668
X05977Y-08985
X05977Y-09493
X05691Y-09557
X07731Y-09477
X07731Y-09096
X09200Y-08779
X09581Y-07176
X09581Y-06794
T02
X00611Y-08636
X00611Y-08255
X00611Y-07874
X00865Y-07874
X01119Y-07874
X01373Y-07874
X01691Y-07556
X01881Y-07842
X02246Y-07763
X02389Y-08065
X02865Y-08144
X03246Y-08128
X03246Y-07747
X03246Y-07366
X02865Y-07247
X02865Y-06922
X02826Y-06445
X03246Y-06445
X03746Y-06445
X04199Y-06477
X04453Y-06477
X04707Y-06477
X04961Y-06477
X05374Y-06612
X05818Y-06612
X05818Y-07112
X05374Y-07112
X04961Y-07239
X04707Y-07239
X04453Y-07239
X04199Y-07239
X03881Y-06922
X03746Y-07366
X03746Y-07747
X04104Y-07747
X04358Y-07747
X04739Y-07652
X04485Y-08255
X04104Y-08255
X03746Y-08128
X03786Y-08668
X04040Y-08668
X04294Y-08668
X04548Y-08668
X04993Y-09049
X05342Y-09049
X05342Y-09430
X04993Y-09430
X04548Y-09430
X04294Y-09430
X04040Y-09430
X03786Y-09430
X03373Y-09493
X03373Y-09112
X02865Y-07747
X02421Y-06731
X02326Y-06445
X01905Y-06445
X01913Y-06731
X01405Y-06445
X01278Y-06794
X01373Y-07112
X01119Y-07112
X00865Y-07112
X00611Y-07112
X00484Y-06668
X00929Y-06660
X00929Y-06160
X00905Y-05683
X00484Y-05652
X01405Y-05683
X01405Y-05048
X01405Y-04667
X01913Y-05016
X02413Y-05017
X03056Y-05016
X03556Y-05017
X04072Y-04691
X04072Y-04191
X04072Y-03810
X04453Y-03810
X04612Y-03469
X04866Y-03159
X04993Y-02730
X04612Y-02730
X04199Y-02699
X04358Y-03159
X03786Y-03429
X03627Y-03770
X03627Y-04151
X03215Y-03239
X03143Y-02191
X02643Y-02191
X02262Y-02096
X02262Y-01714
X01818Y-01714
X01818Y-01397
X01818Y-01143
X00857Y-01143
X00357Y-01143
X00484Y-01524
X00865Y-02032
X00857Y-02413
X00357Y-02413
X00484Y-02794
X00865Y-03302
X00865Y-03683
X00452Y-03683
X00452Y-04183
X00865Y-04183
X01818Y-02730
X02715Y-01707
X03786Y-02286
X04429Y-01056
X04929Y-01056
X04929Y-00667
X05374Y-02127
X05374Y-02381
X05405Y-03048
X05786Y-03556
X06231Y-03937
X06223Y-04286
X06223Y-04636
X05723Y-04636
X05723Y-04286
X05215Y-03937
X05255Y-04937
X04572Y-04937
X04072Y-05501
X04072Y-06001
X05120Y-05778
X05850Y-05906
X06231Y-05906
X06628Y-05906
X07128Y-05906
X07596Y-05834
X07596Y-05334
X07914Y-05334
X07207Y-05207
X06707Y-05207
X06834Y-04636
X06929Y-04286
X06675Y-04286
X07183Y-04286
X07437Y-04286
X07334Y-04636
X07914Y-04572
X07914Y-04239
X07914Y-03858
X08199Y-03635
X08199Y-03381
X08247Y-02977
X08588Y-02913
X08930Y-02977
X08930Y-03270
X08676Y-03270
X09184Y-03270
X09438Y-03270
X09438Y-02786
X09438Y-02532
X09279Y-01984
X08779Y-01540
X08422Y-01429
X08422Y-01048
X08779Y-01040
X08771Y-00635
X08771Y-00381
X07739Y-01214
X07739Y-01468
X08263Y-01984
X08263Y-02254
X08588Y-02413
X07477Y-02532
X07247Y-02254
X06794Y-02254
X06898Y-01810
X06898Y-01492
X06517Y-01492
X06517Y-01810
X06294Y-02254
X06326Y-03159
X06826Y-03159
X07176Y-03159
X07183Y-03524
X06929Y-03524
X06675Y-03524
X07437Y-03524
X08676Y-04032
X08930Y-04032
X09184Y-04032
X09438Y-04032
X09620Y-04429
X09620Y-04762
X09462Y-05112
X09128Y-05112
X08930Y-04890
X08549Y-04890
X08422Y-04508
X08922Y-04508
X08819Y-06318
X08565Y-06318
X08311Y-06318
X08057Y-06318
X07803Y-06318
X07374Y-07112
X06802Y-07461
X06802Y-07938
X06802Y-08414
X06231Y-08414
X06231Y-07938
X06231Y-07461
X05755Y-07652
X05183Y-08168
X05183Y-08668
X07374Y-08755
X07414Y-09096
X07414Y-09477
X07374Y-08255
X07374Y-07938
X09581Y-07509
X09581Y-08525
X09581Y-06318
X09327Y-06318
X09073Y-06318
X06914Y-00468
X02723Y-05731
X01111Y-08255
X01111Y-08636
X01405Y-08636
X01691Y-08922
T03
X02302Y-01133
X03318Y-01133
X05371Y-00804
X05371Y-01820
T04
X09057Y-05874
X09438Y-05874
X09438Y-05493
X09057Y-05493
T05
X01214Y-09398
X01468Y-09398
X01722Y-09398
X01976Y-09398
X02230Y-09398
X02484Y-09398
X02738Y-09398
X02992Y-09398
X03084Y-08680
X02584Y-08680
X04457Y-05973
X04957Y-05973
X08106Y-05625
X08595Y-05878
X08597Y-05363
X07755Y-03199
X07755Y-02699
X06211Y-02727
X05711Y-02727
X04853Y-02287
X04338Y-02285
X04590Y-01796
X04476Y-00478
X04222Y-00478
X03968Y-00478
X03215Y-00476
X02961Y-00476
X02707Y-00476
X02453Y-00476
X02453Y-03143
X02453Y-03397
X02453Y-03651
X00988Y-04631
X00488Y-04631
X05850Y-00478
X06104Y-00478
X06358Y-00478
X07469Y-00476
X07723Y-00476
X07977Y-00476
X08231Y-00476
X09416Y-01113
X09164Y-01602
X09679Y-01604
X06818Y-09374
X06564Y-09374
T06
X01246Y-00476
X01754Y-00476
T07
X08517Y-09652
X08517Y-08557
T08
X08358Y-07493
X09525Y-09462
X09525Y-00508
X00508Y-00508
T09
X00508Y-09462
M30
