%FSLAX34Y34*%
%MOMM*%
%LNSOLDERMASK_TOP*%
G71*
G01*
%ADD10C, 2.632*%
%ADD11C, 3.140*%
%ADD12C, 2.886*%
%ADD13C, 2.632*%
%ADD14C, 3.140*%
%ADD15C, 2.505*%
%ADD16C, 2.886*%
%ADD17C, 7.077*%
%ADD18C, 7.077*%
%ADD19C, 6.800*%
%ADD20C, 3.394*%
%ADD21C, 4.029*%
%ADD22C, 2.632*%
%ADD23C, 2.124*%
%ADD24C, 3.648*%
%ADD25C, 2.886*%
%LPD*%
X35721Y-114302D02*
G54D10*
D03*
X85720Y-114300D02*
G54D10*
D03*
X48419Y-152400D02*
G54D11*
D03*
X86519Y-203200D02*
G54D11*
D03*
X35721Y-241302D02*
G54D10*
D03*
X85720Y-241300D02*
G54D10*
D03*
X48419Y-279400D02*
G54D11*
D03*
X86519Y-330200D02*
G54D11*
D03*
X45244Y-368300D02*
G54D10*
D03*
X45245Y-418303D02*
G54D10*
D03*
X219869Y-339725D02*
G54D12*
D03*
X219874Y-390530D02*
G54D12*
D03*
X245269Y-365125D02*
G54D13*
D03*
X181769Y-171450D02*
G54D10*
D03*
X181769Y-273050D02*
G54D10*
D03*
X264321Y-219077D02*
G54D10*
D03*
X314320Y-219076D02*
G54D10*
D03*
X318294Y-155575D02*
G54D13*
D03*
X343698Y-186527D02*
G54D13*
D03*
X369096Y-155575D02*
G54D13*
D03*
X484981Y-228600D02*
G54D14*
D03*
X434181Y-228600D02*
G54D14*
D03*
X433775Y-228492D02*
G54D14*
D03*
X485290Y-228662D02*
G54D14*
D03*
X459049Y-179567D02*
G54D14*
D03*
X435769Y-315912D02*
G54D10*
D03*
X461171Y-346862D02*
G54D10*
D03*
X486571Y-315912D02*
G54D10*
D03*
X584994Y-206375D02*
G54D13*
D03*
X615944Y-180973D02*
G54D13*
D03*
X584994Y-155573D02*
G54D13*
D03*
G36*
X855044Y-415750D02*
X855044Y-390700D01*
X880094Y-390700D01*
X880094Y-415750D01*
X855044Y-415750D01*
G37*
X892968Y-403226D02*
G54D10*
D03*
X918368Y-403226D02*
G54D10*
D03*
X943776Y-403230D02*
G54D10*
D03*
X867568Y-327026D02*
G54D10*
D03*
X892968Y-327026D02*
G54D10*
D03*
X918368Y-327026D02*
G54D10*
D03*
X943768Y-327026D02*
G54D10*
D03*
G36*
X655019Y-441150D02*
X655019Y-416100D01*
X680069Y-416100D01*
X680069Y-441150D01*
X655019Y-441150D01*
G37*
X692943Y-428626D02*
G54D10*
D03*
X718347Y-428628D02*
G54D10*
D03*
X743743Y-428626D02*
G54D10*
D03*
X667543Y-352426D02*
G54D10*
D03*
X692943Y-352426D02*
G54D10*
D03*
X718343Y-352426D02*
G54D10*
D03*
X743743Y-352426D02*
G54D10*
D03*
G36*
X48594Y-799925D02*
X48594Y-774875D01*
X73644Y-774875D01*
X73644Y-799925D01*
X48594Y-799925D01*
G37*
X86518Y-787401D02*
G54D10*
D03*
X111921Y-787407D02*
G54D10*
D03*
X137318Y-787401D02*
G54D10*
D03*
X61118Y-711201D02*
G54D10*
D03*
X86518Y-711201D02*
G54D10*
D03*
X111918Y-711201D02*
G54D10*
D03*
X137318Y-711201D02*
G54D10*
D03*
X242094Y-600075D02*
G54D12*
D03*
X191013Y-600076D02*
G54D12*
D03*
X242094Y-546100D02*
G54D12*
D03*
X191013Y-546100D02*
G54D12*
D03*
X356394Y-600075D02*
G54D12*
D03*
X305313Y-600076D02*
G54D12*
D03*
X356394Y-546100D02*
G54D12*
D03*
X305313Y-546100D02*
G54D12*
D03*
G36*
X407369Y-736425D02*
X407369Y-711375D01*
X432419Y-711375D01*
X432419Y-736425D01*
X407369Y-736425D01*
G37*
X445293Y-723901D02*
G54D10*
D03*
X470696Y-723907D02*
G54D10*
D03*
X496093Y-723901D02*
G54D10*
D03*
X419893Y-647701D02*
G54D10*
D03*
X445293Y-647701D02*
G54D10*
D03*
X470693Y-647701D02*
G54D10*
D03*
X496093Y-647701D02*
G54D10*
D03*
G36*
X366094Y-955500D02*
X366094Y-930450D01*
X391144Y-930450D01*
X391144Y-955500D01*
X366094Y-955500D01*
G37*
X404019Y-942975D02*
G54D10*
D03*
X429419Y-942975D02*
G54D10*
D03*
X454821Y-942979D02*
G54D10*
D03*
X378619Y-866775D02*
G54D10*
D03*
X404019Y-866775D02*
G54D10*
D03*
X429419Y-866775D02*
G54D10*
D03*
X454819Y-866775D02*
G54D10*
D03*
X86519Y-368300D02*
G54D10*
D03*
X86518Y-418301D02*
G54D10*
D03*
G54D15*
X254797Y-314328D02*
X235747Y-314328D01*
G54D15*
X254794Y-339725D02*
X235744Y-339725D01*
G54D15*
X254794Y-365125D02*
X235744Y-365125D01*
X226219Y-209550D02*
G54D10*
D03*
X226219Y-171450D02*
G54D10*
D03*
X362746Y-376958D02*
G54D10*
D03*
X362745Y-415062D02*
G54D10*
D03*
X378619Y-228600D02*
G54D11*
D03*
X419894Y-269875D02*
G54D11*
D03*
X321471Y-323852D02*
G54D11*
D03*
X378619Y-342900D02*
G54D11*
D03*
G36*
X255762Y-164140D02*
X264946Y-154956D01*
X277978Y-154956D01*
X287162Y-164140D01*
X287162Y-177172D01*
X277978Y-186356D01*
X264946Y-186356D01*
X255762Y-177172D01*
X255762Y-164140D01*
G37*
X461169Y-273050D02*
G54D10*
D03*
X499269Y-273050D02*
G54D10*
D03*
X689769Y-149225D02*
G54D10*
D03*
X651669Y-149225D02*
G54D10*
D03*
X651669Y-180975D02*
G54D10*
D03*
X689769Y-180975D02*
G54D10*
D03*
X499269Y-447675D02*
G54D13*
D03*
X473867Y-416725D02*
G54D13*
D03*
X448467Y-447675D02*
G54D13*
D03*
X407196Y-419102D02*
G54D10*
D03*
X407193Y-469101D02*
G54D10*
D03*
X445294Y-381000D02*
G54D10*
D03*
X407196Y-381002D02*
G54D10*
D03*
X540547Y-304802D02*
G54D11*
D03*
X578644Y-355600D02*
G54D11*
D03*
X716756Y-269875D02*
G54D13*
D03*
X665675Y-269875D02*
G54D13*
D03*
X632623Y-315915D02*
G54D10*
D03*
X682620Y-315913D02*
G54D10*
D03*
X572294Y-428625D02*
G54D10*
D03*
X622294Y-428626D02*
G54D10*
D03*
X572294Y-463550D02*
G54D10*
D03*
X622298Y-463553D02*
G54D10*
D03*
X683419Y-463550D02*
G54D10*
D03*
X733424Y-463553D02*
G54D10*
D03*
X892969Y-488950D02*
G54D10*
D03*
X854869Y-488950D02*
G54D10*
D03*
X842169Y-450850D02*
G54D10*
D03*
X892170Y-450850D02*
G54D10*
D03*
X967581Y-160338D02*
G54D14*
D03*
X916781Y-160337D02*
G54D14*
D03*
X916381Y-160232D02*
G54D14*
D03*
X967890Y-160399D02*
G54D14*
D03*
X941649Y-111305D02*
G54D14*
D03*
X858838Y-241300D02*
G54D10*
D03*
X858837Y-291301D02*
G54D10*
D03*
X48419Y-504825D02*
G54D13*
D03*
X73821Y-535775D02*
G54D13*
D03*
X99223Y-504827D02*
G54D13*
D03*
X191294Y-501650D02*
G54D10*
D03*
X241297Y-501653D02*
G54D10*
D03*
X140494Y-466725D02*
G54D10*
D03*
X140494Y-504825D02*
G54D10*
D03*
X48419Y-565150D02*
G54D16*
D03*
X48419Y-666750D02*
G54D16*
D03*
X140495Y-568327D02*
G54D10*
D03*
X90493Y-568324D02*
G54D10*
D03*
X305594Y-501650D02*
G54D10*
D03*
X355597Y-501653D02*
G54D10*
D03*
X140494Y-644525D02*
G54D10*
D03*
X190494Y-644526D02*
G54D10*
D03*
X232572Y-644531D02*
G54D10*
D03*
X282570Y-644526D02*
G54D10*
D03*
X324644Y-644525D02*
G54D10*
D03*
X374644Y-644526D02*
G54D10*
D03*
X92870Y-615952D02*
G54D10*
D03*
X92868Y-665951D02*
G54D10*
D03*
X61119Y-825500D02*
G54D10*
D03*
X111120Y-825500D02*
G54D10*
D03*
X61119Y-863600D02*
G54D10*
D03*
X111122Y-863607D02*
G54D10*
D03*
X388144Y-692150D02*
G54D16*
D03*
X286544Y-692150D02*
G54D16*
D03*
X286544Y-774700D02*
G54D10*
D03*
X286544Y-724699D02*
G54D10*
D03*
X324645Y-736604D02*
G54D10*
D03*
X374644Y-736600D02*
G54D10*
D03*
X324644Y-774700D02*
G54D10*
D03*
X374647Y-774704D02*
G54D10*
D03*
X410369Y-825500D02*
G54D10*
D03*
X448469Y-825500D02*
G54D10*
D03*
X337344Y-949325D02*
G54D10*
D03*
X337344Y-911225D02*
G54D10*
D03*
X499269Y-942975D02*
G54D10*
D03*
X499269Y-904875D02*
G54D10*
D03*
X597694Y-898525D02*
G54D13*
D03*
X597700Y-949333D02*
G54D13*
D03*
X553244Y-866775D02*
G54D13*
D03*
X584194Y-841373D02*
G54D13*
D03*
X553244Y-815973D02*
G54D13*
D03*
X534194Y-904875D02*
G54D10*
D03*
X534194Y-942975D02*
G54D10*
D03*
X623094Y-841375D02*
G54D11*
D03*
X680244Y-841375D02*
G54D11*
D03*
X680244Y-793750D02*
G54D11*
D03*
X623094Y-793750D02*
G54D11*
D03*
X623094Y-746125D02*
G54D11*
D03*
X680246Y-746127D02*
G54D11*
D03*
X575469Y-765175D02*
G54D16*
D03*
X473873Y-765183D02*
G54D16*
D03*
X518323Y-866779D02*
G54D10*
D03*
X518319Y-816774D02*
G54D10*
D03*
X537369Y-711200D02*
G54D10*
D03*
X537369Y-661199D02*
G54D10*
D03*
X581819Y-711200D02*
G54D10*
D03*
X581819Y-661199D02*
G54D10*
D03*
X623094Y-669925D02*
G54D13*
D03*
X648496Y-700875D02*
G54D13*
D03*
X673896Y-669925D02*
G54D13*
D03*
X572294Y-520700D02*
G54D13*
D03*
X597696Y-551650D02*
G54D13*
D03*
X623096Y-520700D02*
G54D13*
D03*
X407194Y-600075D02*
G54D10*
D03*
X407197Y-550077D02*
G54D10*
D03*
X508002Y-535785D02*
G54D12*
D03*
X456919Y-535782D02*
G54D12*
D03*
X584994Y-590550D02*
G54D10*
D03*
X623094Y-590550D02*
G54D10*
D03*
X780294Y-631825D02*
G54D10*
D03*
X805694Y-631825D02*
G54D10*
D03*
X831094Y-631825D02*
G54D10*
D03*
X856494Y-631825D02*
G54D10*
D03*
X881894Y-631825D02*
G54D10*
D03*
X907294Y-631825D02*
G54D10*
D03*
X932694Y-631825D02*
G54D10*
D03*
X958094Y-631825D02*
G54D10*
D03*
X943769Y-253206D02*
G54D10*
D03*
G36*
X956294Y-266081D02*
X956294Y-291131D01*
X931244Y-291131D01*
X931244Y-266081D01*
X956294Y-266081D01*
G37*
X877098Y-38102D02*
G54D10*
D03*
G36*
X889620Y-76025D02*
X864570Y-76025D01*
X864570Y-50975D01*
X889620Y-50975D01*
X889620Y-76025D01*
G37*
X952500Y-946150D02*
G54D17*
D03*
X952500Y-50800D02*
G54D17*
D03*
X50800Y-50800D02*
G54D17*
D03*
X50800Y-946152D02*
G54D18*
D03*
X819944Y-338138D02*
G54D10*
D03*
G36*
X832469Y-376062D02*
X807419Y-376062D01*
X807419Y-351012D01*
X832469Y-351012D01*
X832469Y-376062D01*
G37*
G36*
X761381Y-159369D02*
X761381Y-134319D01*
X786431Y-134319D01*
X786431Y-159369D01*
X761381Y-159369D01*
G37*
X773912Y-121445D02*
G54D10*
D03*
X537373Y-212727D02*
G54D10*
D03*
G36*
X549893Y-250649D02*
X524843Y-250649D01*
X524843Y-225599D01*
X549893Y-225599D01*
X549893Y-250649D01*
G37*
X410372Y-774706D02*
G54D10*
D03*
G36*
X448295Y-762177D02*
X448295Y-787227D01*
X423245Y-787227D01*
X423245Y-762177D01*
X448295Y-762177D01*
G37*
G54D15*
X321469Y-57150D02*
X321469Y-38100D01*
G54D15*
X296071Y-57151D02*
X296071Y-38101D01*
G54D15*
X270668Y-57150D02*
X270668Y-38100D01*
G54D15*
X245269Y-57150D02*
X245269Y-38100D01*
G54D15*
X823119Y-57150D02*
X823119Y-38100D01*
G54D15*
X797726Y-57152D02*
X797726Y-38102D01*
G54D15*
X772327Y-57153D02*
X772327Y-38103D01*
G54D15*
X746919Y-57150D02*
X746919Y-38100D01*
G54D15*
X635752Y-57301D02*
X635752Y-38251D01*
G54D15*
X610355Y-57301D02*
X610355Y-38251D01*
G54D15*
X584952Y-57302D02*
X584952Y-38252D01*
G54D15*
X121444Y-930285D02*
X121444Y-949335D01*
G54D15*
X146844Y-930275D02*
X146844Y-949325D01*
G54D15*
X172244Y-930275D02*
X172244Y-949325D01*
G54D15*
X197644Y-930275D02*
X197644Y-949325D01*
G54D15*
X223044Y-930275D02*
X223044Y-949325D01*
G54D15*
X248444Y-930275D02*
X248444Y-949325D01*
G54D15*
X273844Y-930275D02*
X273844Y-949325D01*
G54D15*
X299244Y-930275D02*
X299244Y-949325D01*
X859631Y-536575D02*
G54D14*
D03*
X859631Y-587375D02*
G54D14*
D03*
X859528Y-587785D02*
G54D14*
D03*
X859693Y-536266D02*
G54D14*
D03*
X810598Y-562508D02*
G54D14*
D03*
X670719Y-520700D02*
G54D10*
D03*
X720720Y-520700D02*
G54D10*
D03*
X662781Y-590550D02*
G54D10*
D03*
X712782Y-590550D02*
G54D10*
D03*
X759625Y-533403D02*
G54D10*
D03*
X759618Y-583401D02*
G54D10*
D03*
X773112Y-909638D02*
G54D13*
D03*
X773117Y-947742D02*
G54D13*
D03*
X962025Y-476250D02*
G54D10*
D03*
G36*
X949500Y-430388D02*
X974550Y-430388D01*
X974550Y-455438D01*
X949500Y-455438D01*
X949500Y-430388D01*
G37*
X946150Y-511175D02*
G54D10*
D03*
G36*
X900288Y-523700D02*
X900288Y-498650D01*
X925338Y-498650D01*
X925338Y-523700D01*
X900288Y-523700D01*
G37*
X741362Y-909638D02*
G54D10*
D03*
X741365Y-947740D02*
G54D10*
D03*
X140495Y-863602D02*
G54D11*
D03*
X169069Y-892175D02*
G54D11*
D03*
X188119Y-784225D02*
G54D11*
D03*
X238921Y-806454D02*
G54D11*
D03*
X169069Y-755650D02*
G54D11*
D03*
X224631Y-776288D02*
G54D11*
D03*
X191294Y-673100D02*
G54D11*
D03*
X242097Y-673106D02*
G54D11*
D03*
X324644Y-812800D02*
G54D10*
D03*
X374644Y-812800D02*
G54D10*
D03*
X835819Y-749300D02*
G54D19*
D03*
X737394Y-793750D02*
G54D20*
D03*
X737400Y-711206D02*
G54D20*
D03*
X851702Y-965208D02*
G54D21*
D03*
X851696Y-855665D02*
G54D21*
D03*
X645319Y-625475D02*
G54D13*
D03*
X721519Y-625475D02*
G54D13*
D03*
X943769Y-587375D02*
G54D22*
D03*
X905669Y-587375D02*
G54D22*
D03*
X181771Y-114302D02*
G54D10*
D03*
G36*
X194292Y-152224D02*
X169242Y-152224D01*
X169242Y-127174D01*
X194292Y-127174D01*
X194292Y-152224D01*
G37*
X521494Y-393700D02*
G54D10*
D03*
X623094Y-393700D02*
G54D10*
D03*
X645319Y-555625D02*
G54D13*
D03*
X721519Y-555625D02*
G54D13*
D03*
X943769Y-549275D02*
G54D22*
D03*
X905669Y-549275D02*
G54D22*
D03*
X791369Y-533400D02*
G54D10*
D03*
X791369Y-457200D02*
G54D10*
D03*
X569118Y-955676D02*
G54D23*
D03*
G54D15*
X447632Y-57302D02*
X447632Y-38252D01*
G54D15*
X422234Y-57302D02*
X422234Y-38252D01*
G54D15*
X396832Y-57302D02*
X396832Y-38252D01*
G36*
X675656Y-40315D02*
X684840Y-31131D01*
X697872Y-31131D01*
X707056Y-40315D01*
X707056Y-53347D01*
X697872Y-62531D01*
X684840Y-62531D01*
X675656Y-53347D01*
X675656Y-40315D01*
G37*
X724787Y-188819D02*
G54D13*
D03*
X800987Y-188819D02*
G54D13*
D03*
X272259Y-573091D02*
G54D11*
D03*
X457206Y-493718D02*
G54D11*
D03*
G36*
X270844Y-807872D02*
X280028Y-798688D01*
X293060Y-798688D01*
X302244Y-807872D01*
X302244Y-820904D01*
X293060Y-830088D01*
X280028Y-830088D01*
X270844Y-820904D01*
X270844Y-807872D01*
G37*
X791369Y-385762D02*
G54D10*
D03*
X791369Y-423862D02*
G54D10*
D03*
X826298Y-225427D02*
G54D16*
D03*
X724694Y-225425D02*
G54D16*
D03*
X629448Y-225427D02*
G54D10*
D03*
X679445Y-225426D02*
G54D10*
D03*
X737394Y-875506D02*
G54D10*
D03*
X737394Y-825506D02*
G54D10*
D03*
X919956Y-877888D02*
G54D23*
D03*
X958056Y-750888D02*
G54D10*
D03*
X958056Y-852488D02*
G54D10*
D03*
X747720Y-253208D02*
G54D10*
D03*
X124619Y-47625D02*
G54D24*
D03*
X175421Y-47627D02*
G54D24*
D03*
G36*
X112094Y-672934D02*
X121278Y-663750D01*
X134310Y-663750D01*
X143494Y-672934D01*
X143494Y-685966D01*
X134310Y-695150D01*
X121278Y-695150D01*
X112094Y-685966D01*
X112094Y-672934D01*
G37*
X826294Y-198438D02*
G54D10*
D03*
X927894Y-198438D02*
G54D10*
D03*
X775494Y-269875D02*
G54D14*
D03*
X775494Y-319881D02*
G54D14*
D03*
X98836Y-463139D02*
G54D14*
D03*
X48830Y-463139D02*
G54D14*
D03*
X495711Y-597283D02*
G54D14*
D03*
X445704Y-597283D02*
G54D14*
D03*
X308389Y-867958D02*
G54D14*
D03*
X258380Y-867952D02*
G54D14*
D03*
X571122Y-272669D02*
G54D14*
D03*
X621124Y-272668D02*
G54D14*
D03*
X958056Y-717550D02*
G54D13*
D03*
X958056Y-679450D02*
G54D13*
D03*
X442915Y-105571D02*
G54D10*
D03*
X492913Y-105569D02*
G54D10*
D03*
G36*
X877272Y-291141D02*
X886456Y-281957D01*
X899488Y-281957D01*
X908672Y-291141D01*
X908672Y-304173D01*
X899488Y-313357D01*
X886456Y-313357D01*
X877272Y-304173D01*
X877272Y-291141D01*
G37*
G36*
X809012Y-291142D02*
X818196Y-281958D01*
X831228Y-281958D01*
X840412Y-291142D01*
X840412Y-304174D01*
X831228Y-313358D01*
X818196Y-313358D01*
X809012Y-304174D01*
X809012Y-291142D01*
G37*
G36*
X508492Y-486670D02*
X518420Y-476742D01*
X532506Y-476742D01*
X542432Y-486670D01*
X542432Y-500756D01*
X532506Y-510682D01*
X518420Y-510682D01*
X508492Y-500756D01*
X508492Y-486670D01*
G37*
G36*
X477219Y-60159D02*
X486403Y-50975D01*
X499435Y-50975D01*
X508619Y-60159D01*
X508619Y-73191D01*
X499435Y-82375D01*
X486403Y-82375D01*
X477219Y-73191D01*
X477219Y-60159D01*
G37*
X877888Y-103981D02*
G54D10*
D03*
X877887Y-153982D02*
G54D10*
D03*
X842172Y-142875D02*
G54D10*
D03*
X842169Y-104775D02*
G54D10*
D03*
G36*
X496269Y-571334D02*
X505453Y-562150D01*
X518485Y-562150D01*
X527669Y-571334D01*
X527669Y-584366D01*
X518485Y-593550D01*
X505453Y-593550D01*
X496269Y-584366D01*
X496269Y-571334D01*
G37*
X141477Y-171452D02*
G54D13*
D03*
X141476Y-247652D02*
G54D13*
D03*
X331836Y-113266D02*
G54D25*
D03*
X230236Y-113266D02*
G54D25*
D03*
X537116Y-182022D02*
G54D25*
D03*
X537116Y-80422D02*
G54D25*
D03*
G54D15*
X656431Y-927894D02*
X656431Y-946944D01*
G54D15*
X681831Y-927894D02*
X681831Y-946944D01*
G36*
X701850Y-309396D02*
X711034Y-300212D01*
X724066Y-300212D01*
X733250Y-309396D01*
X733250Y-322428D01*
X724066Y-331612D01*
X711034Y-331612D01*
X701850Y-322428D01*
X701850Y-309396D01*
G37*
M02*
