%FSLAX34Y34*%
%MOMM*%
%LNSILK_TOP*%
G71*
G01*
%ADD10C, 0.305*%
%ADD11C, 0.203*%
%ADD12C, 0.009*%
%ADD13C, 0.635*%
%ADD14C, 0.381*%
%ADD15C, 0.300*%
%ADD16C, 0.254*%
%ADD17C, 0.302*%
%ADD18C, 0.242*%
%ADD19C, 0.250*%
%ADD20C, 0.403*%
%ADD21C, 0.240*%
%ADD22C, 0.282*%
%ADD23C, 0.262*%
%LPD*%
G54D10*
X35719Y-101600D02*
X85719Y-101600D01*
G54D10*
X35719Y-127000D02*
X85719Y-127000D01*
G54D10*
G75*
G01X35719Y-101600D02*
G03X23019Y-114300I0J-12700D01*
G01*
G54D10*
G75*
G01X98419Y-114300D02*
G03X85719Y-101600I-12700J0D01*
G01*
G54D10*
G75*
G01X85719Y-127000D02*
G03X98419Y-114300I0J12700D01*
G01*
G54D10*
G75*
G01X23019Y-114300D02*
G03X35719Y-127000I12700J0D01*
G01*
G54D10*
G75*
G01X96044Y-196850D02*
G03X96044Y-158750I0J19050D01*
G01*
G54D10*
G75*
G01X38894Y-158750D02*
G03X38894Y-196850I0J-19050D01*
G01*
G54D10*
X38894Y-158750D02*
X96044Y-158750D01*
G54D10*
X38894Y-196850D02*
X96044Y-196850D01*
G54D11*
X44450Y-158750D02*
X44450Y-196850D01*
G54D11*
X48419Y-158750D02*
X48419Y-196850D01*
G54D11*
X90488Y-158750D02*
X90488Y-196850D01*
G54D11*
X86519Y-158750D02*
X86519Y-196850D01*
G54D11*
X65484Y-159544D02*
X65484Y-196056D01*
G54D11*
X69453Y-159544D02*
X69453Y-196850D01*
G54D12*
X18320Y-114970D02*
X18320Y-114970D01*
G54D12*
X18320Y-134470D02*
X18320Y-134470D01*
G54D10*
X35719Y-228600D02*
X85719Y-228600D01*
G54D10*
X35719Y-254000D02*
X85719Y-254000D01*
G54D10*
G75*
G01X35719Y-228600D02*
G03X23019Y-241300I0J-12700D01*
G01*
G54D10*
G75*
G01X98419Y-241300D02*
G03X85719Y-228600I-12700J0D01*
G01*
G54D10*
G75*
G01X85719Y-254000D02*
G03X98419Y-241300I0J12700D01*
G01*
G54D10*
G75*
G01X23019Y-241300D02*
G03X35719Y-254000I12700J0D01*
G01*
G54D10*
G75*
G01X96044Y-323850D02*
G03X96044Y-285750I0J19050D01*
G01*
G54D10*
G75*
G01X38894Y-285750D02*
G03X38894Y-323850I0J-19050D01*
G01*
G54D10*
X38894Y-285750D02*
X96044Y-285750D01*
G54D10*
X38894Y-323850D02*
X96044Y-323850D01*
G54D11*
X44450Y-285750D02*
X44450Y-323850D01*
G54D11*
X48419Y-285750D02*
X48419Y-323850D01*
G54D11*
X90488Y-285750D02*
X90488Y-323850D01*
G54D11*
X86519Y-285750D02*
X86519Y-323850D01*
G54D11*
X65484Y-286544D02*
X65484Y-323056D01*
G54D11*
X69453Y-286544D02*
X69453Y-323850D01*
G54D12*
X18320Y-241970D02*
X18320Y-241970D01*
G54D12*
X18320Y-261470D02*
X18320Y-261470D01*
G54D10*
X57944Y-368300D02*
X57944Y-418300D01*
G54D10*
X32544Y-368300D02*
X32544Y-418300D01*
G54D10*
G75*
G01X57944Y-368300D02*
G03X45244Y-355600I-12700J0D01*
G01*
G54D10*
G75*
G01X45244Y-431000D02*
G03X57944Y-418300I0J12700D01*
G01*
G54D10*
G75*
G01X32544Y-418300D02*
G03X45244Y-431000I12700J0D01*
G01*
G54D10*
G75*
G01X45244Y-355600D02*
G03X32544Y-368300I0J-12700D01*
G01*
G54D10*
G75*
G01X257966Y-365123D02*
G03X257966Y-365123I-38100J0D01*
G01*
G54D10*
X189769Y-388925D02*
X184969Y-393725D01*
X189769Y-398425D01*
X194469Y-393725D01*
G54D12*
X284719Y-326275D02*
X284719Y-326275D01*
G54D12*
X265219Y-326275D02*
X265219Y-326275D01*
G54D13*
G75*
G01X267495Y-365126D02*
G03X267495Y-365126I-47625J0D01*
G01*
G54D13*
X223044Y-317500D02*
X223044Y-260350D01*
G54D13*
X171450Y-361950D02*
X116681Y-361950D01*
G54D13*
X267494Y-361950D02*
X330994Y-361950D01*
G54D13*
X254794Y-330200D02*
X299244Y-285750D01*
G54D13*
X251619Y-400050D02*
X296069Y-444500D01*
G54D13*
X221456Y-412750D02*
X221456Y-473075D01*
G54D13*
X186531Y-400050D02*
X148431Y-441325D01*
G54D13*
X188119Y-328612D02*
X148431Y-285750D01*
G54D10*
G75*
G01X200819Y-206375D02*
G03X162719Y-206375I-19050J0D01*
G01*
G54D10*
G75*
G01X162719Y-238125D02*
G03X200819Y-238125I19050J0D01*
G01*
G54D10*
X200819Y-206375D02*
X197644Y-209550D01*
X197644Y-234950D01*
X200819Y-238125D01*
G54D10*
X162719Y-206375D02*
X165894Y-209550D01*
X165894Y-234950D01*
X162719Y-238125D01*
G54D10*
X181769Y-171450D02*
X181769Y-187325D01*
G54D10*
X181769Y-273050D02*
X181769Y-257175D01*
G54D12*
X228343Y-160020D02*
X228343Y-160020D01*
G54D12*
X208843Y-160020D02*
X208843Y-160020D01*
G54D10*
X264319Y-206375D02*
X314319Y-206375D01*
G54D10*
X264319Y-231775D02*
X314319Y-231775D01*
G54D10*
G75*
G01X264319Y-206375D02*
G03X251619Y-219075I0J-12700D01*
G01*
G54D10*
G75*
G01X327019Y-219075D02*
G03X314319Y-206375I-12700J0D01*
G01*
G54D10*
G75*
G01X314319Y-231775D02*
G03X327019Y-219075I0J12700D01*
G01*
G54D10*
G75*
G01X251619Y-219075D02*
G03X264319Y-231775I12700J0D01*
G01*
G54D10*
G75*
G01X313721Y-150011D02*
G03X373666Y-150011I29973J-10321D01*
G01*
G54D10*
X313972Y-149836D02*
X373571Y-149867D01*
G54D12*
X322296Y-140075D02*
X322296Y-140075D01*
G54D12*
X341796Y-140075D02*
X341796Y-140075D01*
G54D10*
G75*
G01X497098Y-204924D02*
G03X420998Y-204917I-38050J7D01*
G01*
G54D10*
X420948Y-204967D02*
X420949Y-243067D01*
X497148Y-243067D01*
X497148Y-204967D01*
G54D10*
G75*
G01X493898Y-205017D02*
G03X493898Y-205017I-34850J0D01*
G01*
G54D10*
X430474Y-208142D02*
X455874Y-208142D01*
X455874Y-220842D01*
X462224Y-220842D01*
X462224Y-208142D01*
X487624Y-208142D01*
X487623Y-201792D01*
X462224Y-201792D01*
X462224Y-189092D01*
X455874Y-189092D01*
X455874Y-201792D01*
X430474Y-201792D01*
X430474Y-208142D01*
G54D10*
X424124Y-243067D02*
X424124Y-246242D01*
X443174Y-246242D01*
X443174Y-243067D01*
G54D10*
X474923Y-243067D02*
X474924Y-246242D01*
X493974Y-246242D01*
X493974Y-243067D01*
G54D10*
G75*
G01X413544Y-285750D02*
G03X413544Y-285750I-47625J0D01*
G01*
G54D10*
G75*
G01X391319Y-285750D02*
G03X391319Y-285750I-25400J0D01*
G01*
G54D12*
X332645Y-210811D02*
X332645Y-210811D01*
G54D12*
X332645Y-230311D02*
X332645Y-230311D01*
G54D10*
G75*
G01X431196Y-310349D02*
G03X491141Y-310349I29972J-10320D01*
G01*
G54D10*
X431447Y-310173D02*
X491046Y-310204D01*
G54D12*
X439771Y-300413D02*
X439771Y-300413D01*
G54D12*
X459271Y-300412D02*
X459271Y-300412D01*
G54D10*
G75*
G01X579430Y-210948D02*
G03X579430Y-151002I10320J29973D01*
G01*
G54D10*
X579254Y-210697D02*
X579286Y-151098D01*
G54D12*
X569494Y-202373D02*
X569494Y-202373D01*
G54D12*
X569494Y-182873D02*
X569494Y-182873D01*
G54D10*
X854868Y-336526D02*
X854868Y-360426D01*
X864368Y-360426D01*
X864368Y-369826D01*
X854868Y-369826D01*
X854868Y-393726D01*
X956468Y-393726D01*
X956468Y-336526D01*
X854868Y-336526D01*
G36*
X854768Y-393626D02*
X854768Y-381026D01*
X867568Y-393626D01*
X854768Y-393626D01*
G37*
G54D12*
X847868Y-405226D02*
X847868Y-405226D01*
G54D12*
X847868Y-385726D02*
X847868Y-385726D01*
G54D10*
X654843Y-361926D02*
X654843Y-385826D01*
X664343Y-385826D01*
X664343Y-395226D01*
X654843Y-395226D01*
X654843Y-419126D01*
X756443Y-419126D01*
X756443Y-361926D01*
X654843Y-361926D01*
G36*
X654743Y-419026D02*
X654743Y-406426D01*
X667543Y-419026D01*
X654743Y-419026D01*
G37*
G54D12*
X631968Y-430626D02*
X631968Y-430626D01*
G54D12*
X631968Y-411126D02*
X631968Y-411126D01*
G54D10*
X48418Y-720701D02*
X48418Y-744601D01*
X57918Y-744601D01*
X57918Y-754001D01*
X48418Y-754001D01*
X48418Y-777901D01*
X150018Y-777901D01*
X150018Y-720701D01*
X48418Y-720701D01*
G36*
X48318Y-777801D02*
X48318Y-765201D01*
X61118Y-777801D01*
X48318Y-777801D01*
G37*
G54D12*
X41418Y-789401D02*
X41418Y-789401D01*
G54D12*
X41418Y-769901D02*
X41418Y-769901D01*
G54D10*
G75*
G01X242094Y-841375D02*
G03X242094Y-841375I-47625J0D01*
G01*
G54D10*
G75*
G01X219869Y-841375D02*
G03X219869Y-841375I-25400J0D01*
G01*
G54D12*
X145320Y-766436D02*
X145320Y-766436D01*
G54D12*
X145320Y-785936D02*
X145320Y-785936D01*
G54D10*
G75*
G01X261144Y-723900D02*
G03X261144Y-723900I-47625J0D01*
G01*
G54D10*
G75*
G01X238919Y-723900D02*
G03X238919Y-723900I-25400J0D01*
G01*
G54D12*
X164370Y-626736D02*
X164370Y-626736D01*
G54D12*
X164370Y-668461D02*
X164370Y-668461D01*
G54D10*
X245113Y-622276D02*
X184813Y-622276D01*
G54D10*
X245013Y-577876D02*
X184713Y-577876D01*
G54D10*
G75*
G01X244913Y-622276D02*
G03X244913Y-577876I0J22200D01*
G01*
G54D10*
G75*
G01X186421Y-577876D02*
G03X186421Y-622276I0J-22200D01*
G01*
G54D12*
X261513Y-649026D02*
X261513Y-649026D01*
G54D12*
X267863Y-629526D02*
X267863Y-629526D01*
G54D10*
X245113Y-568301D02*
X184813Y-568301D01*
G54D10*
X245013Y-523900D02*
X184713Y-523900D01*
G54D10*
G75*
G01X244913Y-568300D02*
G03X244913Y-523900I0J22200D01*
G01*
G54D10*
G75*
G01X186421Y-523900D02*
G03X186421Y-568300I0J-22200D01*
G01*
G54D12*
X267863Y-595051D02*
X267863Y-595051D01*
G54D12*
X267863Y-575551D02*
X267863Y-575551D01*
G54D10*
X359413Y-622276D02*
X299113Y-622276D01*
G54D10*
X359313Y-577876D02*
X299013Y-577876D01*
G54D10*
G75*
G01X359213Y-622276D02*
G03X359213Y-577876I0J22200D01*
G01*
G54D10*
G75*
G01X300721Y-577876D02*
G03X300721Y-622276I0J-22200D01*
G01*
G54D12*
X382163Y-649026D02*
X382163Y-649026D01*
G54D12*
X382163Y-629526D02*
X382163Y-629526D01*
G54D10*
X359413Y-568301D02*
X299113Y-568301D01*
G54D10*
X359313Y-523900D02*
X299013Y-523900D01*
G54D10*
G75*
G01X359213Y-568300D02*
G03X359213Y-523900I0J22200D01*
G01*
G54D10*
G75*
G01X300721Y-523900D02*
G03X300721Y-568300I0J-22200D01*
G01*
G54D12*
X382163Y-595051D02*
X382163Y-595051D01*
G54D12*
X382163Y-575551D02*
X382163Y-575551D01*
G54D10*
X407193Y-657201D02*
X407193Y-681101D01*
X416693Y-681101D01*
X416693Y-690501D01*
X407193Y-690501D01*
X407193Y-714401D01*
X508793Y-714401D01*
X508793Y-657201D01*
X407193Y-657201D01*
G36*
X407093Y-714301D02*
X407093Y-701701D01*
X419893Y-714301D01*
X407093Y-714301D01*
G37*
G54D12*
X400193Y-725901D02*
X400193Y-725901D01*
G54D12*
X400193Y-706401D02*
X400193Y-706401D01*
G54D10*
X365919Y-876275D02*
X365919Y-900175D01*
X375419Y-900175D01*
X375419Y-909575D01*
X365919Y-909575D01*
X365919Y-933475D01*
X467519Y-933475D01*
X467519Y-876275D01*
X365919Y-876275D01*
G36*
X365819Y-933375D02*
X365819Y-920775D01*
X378619Y-933375D01*
X365819Y-933375D01*
G37*
G54D12*
X358919Y-944975D02*
X358919Y-944975D01*
G54D12*
X358919Y-925475D02*
X358919Y-925475D01*
G54D10*
X99219Y-368300D02*
X99219Y-418300D01*
G54D10*
X73819Y-368300D02*
X73819Y-418300D01*
G54D10*
G75*
G01X99219Y-368300D02*
G03X86519Y-355600I-12700J0D01*
G01*
G54D10*
G75*
G01X86519Y-431000D02*
G03X99219Y-418300I0J12700D01*
G01*
G54D10*
G75*
G01X73819Y-418300D02*
G03X86519Y-431000I12700J0D01*
G01*
G54D10*
G75*
G01X86519Y-355600D02*
G03X73819Y-368300I0J-12700D01*
G01*
G54D10*
X268169Y-296525D02*
X227469Y-296525D01*
X227469Y-382925D01*
X268169Y-382925D01*
X268169Y-296525D01*
G54D12*
X294919Y-295775D02*
X294919Y-295775D01*
G54D12*
X275419Y-295775D02*
X275419Y-295775D01*
G36*
X267742Y-296784D02*
X264044Y-296784D01*
X264044Y-382878D01*
X267742Y-382878D01*
X267890Y-382730D01*
X267890Y-297376D01*
X264340Y-297376D01*
X267742Y-296784D01*
G37*
G54D10*
X267742Y-296784D02*
X264044Y-296784D01*
X264044Y-382878D01*
X267742Y-382878D01*
X267890Y-382730D01*
X267890Y-297376D01*
X264340Y-297376D01*
X267742Y-296784D01*
G54D10*
G75*
G01X238927Y-171448D02*
G03X238927Y-171448I-12700J0D01*
G01*
G54D10*
X226219Y-209550D02*
X226219Y-171450D01*
G54D12*
X246951Y-207345D02*
X246951Y-207345D01*
G54D12*
X246951Y-187845D02*
X246951Y-187845D01*
G54D10*
G75*
G01X375452Y-415062D02*
G03X375452Y-415062I-12700J0D01*
G01*
G54D10*
X362744Y-376960D02*
X362744Y-415060D01*
G54D12*
X383476Y-379165D02*
X383476Y-379165D01*
G54D12*
X383476Y-398665D02*
X383476Y-398665D01*
G54D10*
G75*
G01X511971Y-273058D02*
G03X511971Y-273058I-12700J0D01*
G01*
G54D10*
X461169Y-273050D02*
X499269Y-273050D01*
G54D12*
X463374Y-293782D02*
X463374Y-293782D01*
G54D12*
X482874Y-293782D02*
X482874Y-293782D01*
G54D10*
G75*
G01X664367Y-149233D02*
G03X664367Y-149233I-12700J0D01*
G01*
G54D10*
X689769Y-149225D02*
X651669Y-149225D01*
G54D12*
X687564Y-169957D02*
X687564Y-169957D01*
G54D12*
X668064Y-169957D02*
X668064Y-169957D01*
G54D10*
G75*
G01X702471Y-180983D02*
G03X702471Y-180983I-12700J0D01*
G01*
G54D10*
X651669Y-180975D02*
X689769Y-180975D01*
G54D12*
X653874Y-201707D02*
X653874Y-201707D01*
G54D12*
X673374Y-201707D02*
X673374Y-201707D01*
G54D10*
G75*
G01X503842Y-453239D02*
G03X443896Y-453239I-29973J10321D01*
G01*
G54D10*
X503591Y-453414D02*
X443992Y-453383D01*
G54D12*
X495267Y-463175D02*
X495267Y-463175D01*
G54D12*
X475767Y-463175D02*
X475767Y-463175D01*
G54D10*
X419894Y-419100D02*
X419894Y-469100D01*
G54D10*
X394494Y-419100D02*
X394494Y-469100D01*
G54D10*
G75*
G01X419894Y-419100D02*
G03X407194Y-406400I-12700J0D01*
G01*
G54D10*
G75*
G01X407194Y-481800D02*
G03X419894Y-469100I0J12700D01*
G01*
G54D10*
G75*
G01X394494Y-469100D02*
G03X407194Y-481800I12700J0D01*
G01*
G54D10*
G75*
G01X407194Y-406400D02*
G03X394494Y-419100I0J-12700D01*
G01*
G54D10*
G75*
G01X419892Y-380992D02*
G03X419892Y-380992I-12700J0D01*
G01*
G54D10*
X445294Y-381000D02*
X407194Y-381000D01*
G54D12*
X443089Y-360268D02*
X443089Y-360268D01*
G54D12*
X423589Y-360268D02*
X423589Y-360268D01*
G54D10*
G75*
G01X588169Y-349250D02*
G03X588169Y-311150I0J19050D01*
G01*
G54D10*
G75*
G01X531019Y-311150D02*
G03X531019Y-349250I0J-19050D01*
G01*
G54D10*
X531019Y-311150D02*
X588169Y-311150D01*
G54D10*
X531019Y-349250D02*
X588169Y-349250D01*
G54D11*
X536575Y-311150D02*
X536575Y-349250D01*
G54D11*
X540544Y-311150D02*
X540544Y-349250D01*
G54D11*
X582612Y-311150D02*
X582612Y-349250D01*
G54D11*
X578644Y-311150D02*
X578644Y-349250D01*
G54D11*
X557609Y-311944D02*
X557609Y-348456D01*
G54D11*
X561578Y-311944D02*
X561578Y-349250D01*
G54D12*
X510445Y-267370D02*
X510445Y-267370D01*
G54D12*
X510445Y-286870D02*
X510445Y-286870D01*
G54D10*
X719776Y-292076D02*
X659476Y-292076D01*
G54D10*
X719676Y-247676D02*
X659375Y-247676D01*
G54D10*
G75*
G01X719576Y-292076D02*
G03X719576Y-247676I0J22200D01*
G01*
G54D10*
G75*
G01X661084Y-247675D02*
G03X661084Y-292075I0J-22200D01*
G01*
G54D12*
X742526Y-318825D02*
X742526Y-318825D01*
G54D12*
X742526Y-299326D02*
X742526Y-299326D01*
G54D10*
X632619Y-303212D02*
X682619Y-303212D01*
G54D10*
X632619Y-328612D02*
X682619Y-328612D01*
G54D10*
G75*
G01X632619Y-303212D02*
G03X619919Y-315912I0J-12700D01*
G01*
G54D10*
G75*
G01X695319Y-315912D02*
G03X682619Y-303212I-12700J0D01*
G01*
G54D10*
G75*
G01X682619Y-328612D02*
G03X695319Y-315912I0J12700D01*
G01*
G54D10*
G75*
G01X619919Y-315912D02*
G03X632619Y-328612I12700J0D01*
G01*
G54D10*
X572294Y-415925D02*
X622294Y-415925D01*
G54D10*
X572294Y-441325D02*
X622294Y-441325D01*
G54D10*
G75*
G01X572294Y-415925D02*
G03X559594Y-428625I0J-12700D01*
G01*
G54D10*
G75*
G01X634994Y-428625D02*
G03X622294Y-415925I-12700J0D01*
G01*
G54D10*
G75*
G01X622294Y-441325D02*
G03X634994Y-428625I0J12700D01*
G01*
G54D10*
G75*
G01X559594Y-428625D02*
G03X572294Y-441325I12700J0D01*
G01*
G54D10*
X572294Y-450850D02*
X622294Y-450850D01*
G54D10*
X572294Y-476250D02*
X622294Y-476250D01*
G54D10*
G75*
G01X572294Y-450850D02*
G03X559594Y-463550I0J-12700D01*
G01*
G54D10*
G75*
G01X634994Y-463550D02*
G03X622294Y-450850I-12700J0D01*
G01*
G54D10*
G75*
G01X622294Y-476250D02*
G03X634994Y-463550I0J12700D01*
G01*
G54D10*
G75*
G01X559594Y-463550D02*
G03X572294Y-476250I12700J0D01*
G01*
G54D10*
X683419Y-450850D02*
X733419Y-450850D01*
G54D10*
X683419Y-476250D02*
X733419Y-476250D01*
G54D10*
G75*
G01X683419Y-450850D02*
G03X670719Y-463550I0J-12700D01*
G01*
G54D10*
G75*
G01X746119Y-463550D02*
G03X733419Y-450850I-12700J0D01*
G01*
G54D10*
G75*
G01X733419Y-476250D02*
G03X746119Y-463550I0J12700D01*
G01*
G54D10*
G75*
G01X670719Y-463550D02*
G03X683419Y-476250I12700J0D01*
G01*
G54D10*
G75*
G01X867567Y-488942D02*
G03X867567Y-488942I-12700J0D01*
G01*
G54D10*
X892969Y-488950D02*
X854869Y-488950D01*
G54D12*
X890764Y-468218D02*
X890764Y-468218D01*
G54D12*
X871264Y-468218D02*
X871264Y-468218D01*
G54D10*
X842169Y-438150D02*
X892169Y-438150D01*
G54D10*
X842169Y-463550D02*
X892169Y-463550D01*
G54D10*
G75*
G01X842169Y-438150D02*
G03X829469Y-450850I0J-12700D01*
G01*
G54D10*
G75*
G01X904869Y-450850D02*
G03X892169Y-438150I-12700J0D01*
G01*
G54D10*
G75*
G01X892169Y-463550D02*
G03X904869Y-450850I0J12700D01*
G01*
G54D10*
G75*
G01X829469Y-450850D02*
G03X842169Y-463550I12700J0D01*
G01*
G54D10*
G75*
G01X979698Y-136661D02*
G03X903598Y-136655I-38050J6D01*
G01*
G54D10*
X903548Y-136704D02*
X903549Y-174804D01*
X979748Y-174805D01*
X979748Y-136705D01*
G54D10*
G75*
G01X976498Y-136754D02*
G03X976498Y-136754I-34850J0D01*
G01*
G54D10*
X913074Y-139880D02*
X938474Y-139880D01*
X938474Y-152580D01*
X944824Y-152580D01*
X944824Y-139879D01*
X970224Y-139879D01*
X970223Y-133530D01*
X944824Y-133530D01*
X944824Y-120830D01*
X938474Y-120830D01*
X938474Y-133530D01*
X913074Y-133529D01*
X913074Y-139880D01*
G54D10*
X906724Y-174805D02*
X906724Y-177980D01*
X925774Y-177980D01*
X925774Y-174804D01*
G54D10*
X957523Y-174804D02*
X957524Y-177980D01*
X976574Y-177980D01*
X976574Y-174805D01*
G54D10*
X871538Y-241300D02*
X871538Y-291300D01*
G54D10*
X846138Y-241300D02*
X846138Y-291300D01*
G54D10*
G75*
G01X871538Y-241300D02*
G03X858838Y-228600I-12700J0D01*
G01*
G54D10*
G75*
G01X858838Y-304000D02*
G03X871538Y-291300I0J12700D01*
G01*
G54D10*
G75*
G01X846138Y-291300D02*
G03X858838Y-304000I12700J0D01*
G01*
G54D10*
G75*
G01X858838Y-228600D02*
G03X846138Y-241300I0J-12700D01*
G01*
G54D10*
G75*
G01X43846Y-499261D02*
G03X103791Y-499261I29972J-10321D01*
G01*
G54D10*
X44097Y-499086D02*
X103696Y-499117D01*
G54D12*
X52421Y-489325D02*
X52421Y-489325D01*
G54D12*
X71921Y-489325D02*
X71921Y-489325D01*
G54D10*
X191294Y-488950D02*
X241294Y-488950D01*
G54D10*
X191294Y-514350D02*
X241294Y-514350D01*
G54D10*
G75*
G01X191294Y-488950D02*
G03X178594Y-501650I0J-12700D01*
G01*
G54D10*
G75*
G01X253994Y-501650D02*
G03X241294Y-488950I-12700J0D01*
G01*
G54D10*
G75*
G01X241294Y-514350D02*
G03X253994Y-501650I0J12700D01*
G01*
G54D10*
G75*
G01X178594Y-501650D02*
G03X191294Y-514350I12700J0D01*
G01*
G54D10*
G75*
G01X153186Y-504827D02*
G03X153186Y-504827I-12700J0D01*
G01*
G54D10*
X140494Y-466725D02*
X140494Y-504825D01*
G54D12*
X119762Y-468930D02*
X119762Y-468930D01*
G54D12*
X119762Y-488430D02*
X119762Y-488430D01*
G54D10*
G75*
G01X67469Y-600075D02*
G03X29369Y-600075I-19050J0D01*
G01*
G54D10*
G75*
G01X29369Y-631825D02*
G03X67469Y-631825I19050J0D01*
G01*
G54D10*
X67469Y-600075D02*
X64294Y-603250D01*
X64294Y-628650D01*
X67469Y-631825D01*
G54D10*
X29369Y-600075D02*
X32544Y-603250D01*
X32544Y-628650D01*
X29369Y-631825D01*
G54D10*
X48419Y-565150D02*
X48419Y-581025D01*
G54D10*
X48419Y-666750D02*
X48419Y-650875D01*
G54D12*
X94993Y-553720D02*
X94993Y-553720D01*
G54D12*
X75493Y-553720D02*
X75493Y-553720D01*
G54D10*
X140494Y-581025D02*
X90494Y-581025D01*
G54D10*
X140494Y-555625D02*
X90494Y-555625D01*
G54D10*
G75*
G01X140494Y-581025D02*
G03X153194Y-568325I0J12700D01*
G01*
G54D10*
G75*
G01X77794Y-568325D02*
G03X90494Y-581025I12700J0D01*
G01*
G54D10*
G75*
G01X90494Y-555625D02*
G03X77794Y-568325I0J-12700D01*
G01*
G54D10*
G75*
G01X153194Y-568325D02*
G03X140494Y-555625I-12700J0D01*
G01*
G54D10*
X305594Y-488950D02*
X355594Y-488950D01*
G54D10*
X305594Y-514350D02*
X355594Y-514350D01*
G54D10*
G75*
G01X305594Y-488950D02*
G03X292894Y-501650I0J-12700D01*
G01*
G54D10*
G75*
G01X368294Y-501650D02*
G03X355594Y-488950I-12700J0D01*
G01*
G54D10*
G75*
G01X355594Y-514350D02*
G03X368294Y-501650I0J12700D01*
G01*
G54D10*
G75*
G01X292894Y-501650D02*
G03X305594Y-514350I12700J0D01*
G01*
G54D10*
X140494Y-631825D02*
X190494Y-631825D01*
G54D10*
X140494Y-657225D02*
X190494Y-657225D01*
G54D10*
G75*
G01X140494Y-631825D02*
G03X127794Y-644525I0J-12700D01*
G01*
G54D10*
G75*
G01X203194Y-644525D02*
G03X190494Y-631825I-12700J0D01*
G01*
G54D10*
G75*
G01X190494Y-657225D02*
G03X203194Y-644525I0J12700D01*
G01*
G54D10*
G75*
G01X127794Y-644525D02*
G03X140494Y-657225I12700J0D01*
G01*
G54D10*
X232569Y-631825D02*
X282569Y-631825D01*
G54D10*
X232569Y-657225D02*
X282569Y-657225D01*
G54D10*
G75*
G01X232569Y-631825D02*
G03X219869Y-644525I0J-12700D01*
G01*
G54D10*
G75*
G01X295269Y-644525D02*
G03X282569Y-631825I-12700J0D01*
G01*
G54D10*
G75*
G01X282569Y-657225D02*
G03X295269Y-644525I0J12700D01*
G01*
G54D10*
G75*
G01X219869Y-644525D02*
G03X232569Y-657225I12700J0D01*
G01*
G54D10*
X324644Y-631825D02*
X374644Y-631825D01*
G54D10*
X324644Y-657225D02*
X374644Y-657225D01*
G54D10*
G75*
G01X324644Y-631825D02*
G03X311944Y-644525I0J-12700D01*
G01*
G54D10*
G75*
G01X387344Y-644525D02*
G03X374644Y-631825I-12700J0D01*
G01*
G54D10*
G75*
G01X374644Y-657225D02*
G03X387344Y-644525I0J12700D01*
G01*
G54D10*
G75*
G01X311944Y-644525D02*
G03X324644Y-657225I12700J0D01*
G01*
G54D10*
X105569Y-615950D02*
X105569Y-665950D01*
G54D10*
X80169Y-615950D02*
X80169Y-665950D01*
G54D10*
G75*
G01X105569Y-615950D02*
G03X92869Y-603250I-12700J0D01*
G01*
G54D10*
G75*
G01X92869Y-678650D02*
G03X105569Y-665950I0J12700D01*
G01*
G54D10*
G75*
G01X80169Y-665950D02*
G03X92869Y-678650I12700J0D01*
G01*
G54D10*
G75*
G01X92869Y-603250D02*
G03X80169Y-615950I0J-12700D01*
G01*
G54D10*
X61119Y-812800D02*
X111119Y-812800D01*
G54D10*
X61119Y-838200D02*
X111119Y-838200D01*
G54D10*
G75*
G01X61119Y-812800D02*
G03X48419Y-825500I0J-12700D01*
G01*
G54D10*
G75*
G01X123819Y-825500D02*
G03X111119Y-812800I-12700J0D01*
G01*
G54D10*
G75*
G01X111119Y-838200D02*
G03X123819Y-825500I0J12700D01*
G01*
G54D10*
G75*
G01X48419Y-825500D02*
G03X61119Y-838200I12700J0D01*
G01*
G54D10*
X61119Y-850900D02*
X111119Y-850900D01*
G54D10*
X61119Y-876300D02*
X111119Y-876300D01*
G54D10*
G75*
G01X61119Y-850900D02*
G03X48419Y-863600I0J-12700D01*
G01*
G54D10*
G75*
G01X123819Y-863600D02*
G03X111119Y-850900I-12700J0D01*
G01*
G54D10*
G75*
G01X111119Y-876300D02*
G03X123819Y-863600I0J12700D01*
G01*
G54D10*
G75*
G01X48419Y-863600D02*
G03X61119Y-876300I12700J0D01*
G01*
G54D10*
G75*
G01X353219Y-711200D02*
G03X353219Y-673100I0J19050D01*
G01*
G54D10*
G75*
G01X321469Y-673100D02*
G03X321469Y-711200I0J-19050D01*
G01*
G54D10*
X353219Y-711200D02*
X350044Y-708025D01*
X324644Y-708025D01*
X321469Y-711200D01*
G54D10*
X353219Y-673100D02*
X350044Y-676275D01*
X324644Y-676275D01*
X321469Y-673100D01*
G54D10*
X388144Y-692150D02*
X372269Y-692150D01*
G54D10*
X286544Y-692150D02*
X302419Y-692150D01*
G54D12*
X399574Y-738724D02*
X399574Y-738724D01*
G54D12*
X399574Y-719224D02*
X399574Y-719224D01*
G54D10*
X273844Y-774700D02*
X273844Y-724700D01*
G54D10*
X299244Y-774700D02*
X299244Y-724700D01*
G54D10*
G75*
G01X273844Y-774700D02*
G03X286544Y-787400I12700J0D01*
G01*
G54D10*
G75*
G01X286544Y-712000D02*
G03X273844Y-724700I0J-12700D01*
G01*
G54D10*
G75*
G01X299244Y-724700D02*
G03X286544Y-712000I-12700J0D01*
G01*
G54D10*
G75*
G01X286544Y-787400D02*
G03X299244Y-774700I0J12700D01*
G01*
G54D10*
X324644Y-723900D02*
X374644Y-723900D01*
G54D10*
X324644Y-749300D02*
X374644Y-749300D01*
G54D10*
G75*
G01X324644Y-723900D02*
G03X311944Y-736600I0J-12700D01*
G01*
G54D10*
G75*
G01X387344Y-736600D02*
G03X374644Y-723900I-12700J0D01*
G01*
G54D10*
G75*
G01X374644Y-749300D02*
G03X387344Y-736600I0J12700D01*
G01*
G54D10*
G75*
G01X311944Y-736600D02*
G03X324644Y-749300I12700J0D01*
G01*
G54D10*
X324644Y-762000D02*
X374644Y-762000D01*
G54D10*
X324644Y-787400D02*
X374644Y-787400D01*
G54D10*
G75*
G01X324644Y-762000D02*
G03X311944Y-774700I0J-12700D01*
G01*
G54D10*
G75*
G01X387344Y-774700D02*
G03X374644Y-762000I-12700J0D01*
G01*
G54D10*
G75*
G01X374644Y-787400D02*
G03X387344Y-774700I0J12700D01*
G01*
G54D10*
G75*
G01X311944Y-774700D02*
G03X324644Y-787400I12700J0D01*
G01*
G54D10*
G75*
G01X461171Y-825508D02*
G03X461171Y-825508I-12700J0D01*
G01*
G54D10*
X410369Y-825500D02*
X448469Y-825500D01*
G54D12*
X412574Y-846232D02*
X412574Y-846232D01*
G54D12*
X432074Y-846232D02*
X432074Y-846232D01*
G54D10*
G75*
G01X350052Y-911223D02*
G03X350052Y-911223I-12700J0D01*
G01*
G54D10*
X337344Y-949325D02*
X337344Y-911225D01*
G54D12*
X358076Y-947120D02*
X358076Y-947120D01*
G54D12*
X358076Y-927620D02*
X358076Y-927620D01*
G54D10*
G75*
G01X511977Y-904873D02*
G03X511977Y-904873I-12700J0D01*
G01*
G54D10*
X499269Y-942975D02*
X499269Y-904875D01*
G54D12*
X520001Y-940770D02*
X520001Y-940770D01*
G54D12*
X520001Y-921270D02*
X520001Y-921270D01*
G54D10*
G75*
G01X603258Y-893952D02*
G03X603258Y-953898I-10321J-29973D01*
G01*
G54D10*
X603433Y-894203D02*
X603402Y-953802D01*
G54D12*
X613194Y-902527D02*
X613194Y-902527D01*
G54D12*
X613194Y-922027D02*
X613194Y-922027D01*
G54D10*
G75*
G01X547680Y-871348D02*
G03X547680Y-811402I10320J29973D01*
G01*
G54D10*
X547504Y-871097D02*
X547536Y-811498D01*
G54D12*
X537744Y-862773D02*
X537744Y-862773D01*
G54D12*
X537744Y-843273D02*
X537744Y-843273D01*
G54D10*
G75*
G01X546886Y-942977D02*
G03X546886Y-942977I-12700J0D01*
G01*
G54D10*
X534194Y-904875D02*
X534194Y-942975D01*
G54D12*
X513462Y-907080D02*
X513462Y-907080D01*
G54D12*
X513462Y-926580D02*
X513462Y-926580D01*
G54D14*
X623094Y-841375D02*
X680244Y-841375D01*
G54D12*
X611664Y-781763D02*
X611664Y-781763D01*
G54D12*
X611664Y-801263D02*
X611664Y-801263D01*
G54D10*
G75*
G01X705647Y-841380D02*
G03X705647Y-841380I-25400J0D01*
G01*
G54D14*
X680244Y-793750D02*
X623094Y-793750D01*
G54D12*
X691674Y-853362D02*
X691674Y-853362D01*
G54D12*
X691674Y-833862D02*
X691674Y-833862D01*
G54D10*
G75*
G01X648491Y-793745D02*
G03X648491Y-793745I-25400J0D01*
G01*
G54D14*
X623094Y-746125D02*
X680244Y-746125D01*
G54D12*
X611664Y-686513D02*
X611664Y-686513D01*
G54D12*
X611664Y-706013D02*
X611664Y-706013D01*
G54D10*
G75*
G01X705647Y-746130D02*
G03X705647Y-746130I-25400J0D01*
G01*
G54D14*
G75*
G01X921544Y-749300D02*
G03X921544Y-749300I-85725J0D01*
G01*
G54D14*
G75*
G01X877094Y-749300D02*
G03X877094Y-749300I-41275J0D01*
G01*
G54D12*
X748189Y-635915D02*
X748189Y-635915D01*
G54D12*
X891064Y-639540D02*
X891064Y-639540D01*
G54D10*
G75*
G01X540544Y-784225D02*
G03X540544Y-746125I0J19050D01*
G01*
G54D10*
G75*
G01X508794Y-746125D02*
G03X508794Y-784225I0J-19050D01*
G01*
G54D10*
X540544Y-784225D02*
X537369Y-781050D01*
X511969Y-781050D01*
X508794Y-784225D01*
G54D10*
X540544Y-746125D02*
X537369Y-749300D01*
X511969Y-749300D01*
X508794Y-746125D01*
G54D10*
X575469Y-765175D02*
X559594Y-765175D01*
G54D10*
X473869Y-765175D02*
X489744Y-765175D01*
G54D12*
X586899Y-811749D02*
X586899Y-811749D01*
G54D12*
X586899Y-792249D02*
X586899Y-792249D01*
G54D10*
X505619Y-866775D02*
X505618Y-816775D01*
G54D10*
X531019Y-866775D02*
X531018Y-816775D01*
G54D10*
G75*
G01X505619Y-866775D02*
G03X518319Y-879475I12700J0D01*
G01*
G54D10*
G75*
G01X518318Y-804075D02*
G03X505618Y-816775I0J-12700D01*
G01*
G54D10*
G75*
G01X531018Y-816775D02*
G03X518318Y-804075I-12700J0D01*
G01*
G54D10*
G75*
G01X518319Y-879475D02*
G03X531019Y-866775I0J12700D01*
G01*
G54D10*
X524669Y-711200D02*
X524668Y-661200D01*
G54D10*
X550069Y-711200D02*
X550068Y-661200D01*
G54D10*
G75*
G01X524669Y-711200D02*
G03X537369Y-723900I12700J0D01*
G01*
G54D10*
G75*
G01X537368Y-648500D02*
G03X524668Y-661200I0J-12700D01*
G01*
G54D10*
G75*
G01X550068Y-661200D02*
G03X537368Y-648500I-12700J0D01*
G01*
G54D10*
G75*
G01X537369Y-723900D02*
G03X550069Y-711200I0J12700D01*
G01*
G54D10*
X569119Y-711200D02*
X569118Y-661200D01*
G54D10*
X594519Y-711200D02*
X594518Y-661200D01*
G54D10*
G75*
G01X569119Y-711200D02*
G03X581819Y-723900I12700J0D01*
G01*
G54D10*
G75*
G01X581818Y-648500D02*
G03X569118Y-661200I0J-12700D01*
G01*
G54D10*
G75*
G01X594518Y-661200D02*
G03X581818Y-648500I-12700J0D01*
G01*
G54D10*
G75*
G01X581819Y-723900D02*
G03X594519Y-711200I0J12700D01*
G01*
G54D10*
G75*
G01X618521Y-664361D02*
G03X678466Y-664361I29973J-10321D01*
G01*
G54D10*
X618772Y-664186D02*
X678371Y-664217D01*
G54D12*
X627096Y-654425D02*
X627096Y-654425D01*
G54D12*
X646596Y-654425D02*
X646596Y-654425D01*
G54D10*
G75*
G01X567721Y-515136D02*
G03X627666Y-515136I29973J-10321D01*
G01*
G54D10*
X567972Y-514961D02*
X627571Y-514992D01*
G54D12*
X576296Y-505200D02*
X576296Y-505200D01*
G54D12*
X595796Y-505200D02*
X595796Y-505200D01*
G54D10*
X394494Y-600075D02*
X394494Y-550075D01*
G54D10*
X419894Y-600075D02*
X419894Y-550075D01*
G54D10*
G75*
G01X394494Y-600075D02*
G03X407194Y-612775I12700J0D01*
G01*
G54D10*
G75*
G01X407194Y-537375D02*
G03X394494Y-550075I0J-12700D01*
G01*
G54D10*
G75*
G01X419894Y-550075D02*
G03X407194Y-537375I-12700J0D01*
G01*
G54D10*
G75*
G01X407194Y-612775D02*
G03X419894Y-600075I0J12700D01*
G01*
G54D10*
X511019Y-557982D02*
X450719Y-557982D01*
G54D10*
X510919Y-513582D02*
X450619Y-513582D01*
G54D10*
G75*
G01X510819Y-557982D02*
G03X510819Y-513582I0J22200D01*
G01*
G54D10*
G75*
G01X452328Y-513582D02*
G03X452328Y-557982I0J-22200D01*
G01*
G54D12*
X533769Y-584732D02*
X533769Y-584732D01*
G54D12*
X533769Y-565232D02*
X533769Y-565232D01*
G54D10*
G75*
G01X635796Y-590558D02*
G03X635796Y-590558I-12700J0D01*
G01*
G54D10*
X584994Y-590550D02*
X623094Y-590550D01*
G54D12*
X587199Y-611282D02*
X587199Y-611282D01*
G54D12*
X606699Y-611282D02*
X606699Y-611282D01*
G54D10*
X767594Y-644525D02*
X970794Y-644525D01*
X970794Y-619125D01*
X767594Y-619125D01*
X767594Y-644525D01*
G54D10*
X792994Y-644525D02*
X792994Y-619125D01*
G54D12*
X766070Y-672049D02*
X766070Y-672049D01*
G54D12*
X766070Y-652549D02*
X766070Y-652549D01*
G54D12*
X964246Y-279826D02*
X964246Y-279420D01*
G54D12*
X964415Y-279623D02*
X964076Y-279623D01*
G54D10*
G75*
G01X981868Y-266003D02*
G03X981868Y-266003I-38100J0D01*
G01*
G54D12*
X964246Y-277444D02*
X964246Y-277038D01*
G54D12*
X964415Y-277241D02*
X964077Y-277241D01*
G54D10*
G75*
G01X901700Y-50800D02*
G03X901700Y-50800I-24606J0D01*
G01*
G54D12*
X891889Y-61592D02*
X891889Y-61186D01*
G54D12*
X892058Y-61389D02*
X891720Y-61389D01*
G54D12*
X909724Y-37708D02*
X909724Y-37708D01*
G54D12*
X909724Y-57208D02*
X909724Y-57208D01*
G54D12*
X920746Y-888396D02*
X920746Y-888396D01*
G54D12*
X920746Y-907896D02*
X920746Y-907896D01*
G54D12*
X920746Y6952D02*
X920746Y6952D01*
G54D12*
X920746Y-12548D02*
X920746Y-12548D01*
G54D12*
X19049Y6951D02*
X19049Y6951D01*
G54D12*
X19049Y-12549D02*
X19049Y-12549D01*
G54D12*
X19047Y-888394D02*
X19047Y-888394D01*
G54D12*
X19047Y-907894D02*
X19047Y-907894D01*
G54D10*
G75*
G01X844550Y-350838D02*
G03X844550Y-350838I-24606J0D01*
G01*
G54D12*
X834739Y-361630D02*
X834739Y-361224D01*
G54D12*
X834908Y-361427D02*
X834570Y-361427D01*
G54D12*
X852574Y-337746D02*
X852574Y-337746D01*
G54D12*
X852574Y-357246D02*
X852574Y-357246D01*
G54D12*
X753429Y-120223D02*
X753429Y-120629D01*
G54D12*
X753260Y-120426D02*
X753599Y-120426D01*
G54D10*
G75*
G01X812007Y-134046D02*
G03X812007Y-134046I-38100J0D01*
G01*
G54D10*
G75*
G01X561975Y-225425D02*
G03X561975Y-225425I-24606J0D01*
G01*
G54D12*
X552165Y-236218D02*
X552165Y-235811D01*
G54D12*
X552334Y-236014D02*
X551995Y-236014D01*
G54D12*
X569999Y-212333D02*
X569999Y-212333D01*
G54D12*
X569999Y-231833D02*
X569999Y-231833D01*
G54D10*
G75*
G01X447675Y-774700D02*
G03X447675Y-774700I-24606J0D01*
G01*
G54D12*
X433861Y-759905D02*
X433455Y-759905D01*
G54D12*
X433658Y-759735D02*
X433658Y-760074D01*
G54D12*
X409977Y-742070D02*
X409977Y-742070D01*
G54D12*
X429477Y-742070D02*
X429477Y-742070D01*
G54D15*
X334169Y-79375D02*
X232569Y-79375D01*
X232569Y-15875D01*
X334169Y-15875D01*
X334169Y-79375D01*
G36*
X321469Y-79375D02*
X321469Y-73025D01*
X245269Y-73025D01*
X245269Y-79375D01*
X321469Y-79375D01*
G37*
G54D15*
X321469Y-79375D02*
X321469Y-73025D01*
X245269Y-73025D01*
X245269Y-79375D01*
X321469Y-79375D01*
G54D12*
X335667Y-106873D02*
X335667Y-106873D01*
G54D12*
X335667Y-87373D02*
X335667Y-87373D01*
G54D15*
X835819Y-79375D02*
X734219Y-79375D01*
X734219Y-15875D01*
X835819Y-15875D01*
X835819Y-79375D01*
G36*
X823119Y-79375D02*
X823119Y-73025D01*
X746919Y-73025D01*
X746919Y-79375D01*
X823119Y-79375D01*
G37*
G54D15*
X823119Y-79375D02*
X823119Y-73025D01*
X746919Y-73025D01*
X746919Y-79375D01*
X823119Y-79375D01*
G54D12*
X837317Y-106873D02*
X837317Y-106873D01*
G54D12*
X837317Y-87373D02*
X837317Y-87373D01*
G54D15*
X648452Y-79526D02*
X572252Y-79526D01*
X572252Y-16026D01*
X648452Y-16026D01*
X648452Y-79526D01*
G36*
X635752Y-79526D02*
X635752Y-73176D01*
X584952Y-73176D01*
X584952Y-79526D01*
X635752Y-79526D01*
G37*
G54D15*
X635752Y-79526D02*
X635752Y-73176D01*
X584952Y-73176D01*
X584952Y-79526D01*
X635752Y-79526D01*
G54D12*
X649950Y-107024D02*
X649950Y-107024D01*
G54D12*
X649950Y-87524D02*
X649950Y-87524D01*
G36*
X121444Y-908050D02*
X121444Y-914400D01*
X299244Y-914400D01*
X299244Y-908050D01*
X121444Y-908050D01*
G37*
G54D15*
X121444Y-908050D02*
X121444Y-914400D01*
X299244Y-914400D01*
X299244Y-908050D01*
X121444Y-908050D01*
G54D12*
X107246Y-880552D02*
X107246Y-880552D01*
G54D12*
X107246Y-900052D02*
X107246Y-900052D01*
G54D10*
X804069Y-857250D02*
X899319Y-857250D01*
X899319Y-965200D01*
X804069Y-965200D01*
X804069Y-857250D01*
G54D10*
X810419Y-866775D02*
X892969Y-866775D01*
X892969Y-914400D01*
X810419Y-914400D01*
X810419Y-866775D01*
G54D10*
X819944Y-904875D02*
X819944Y-911225D01*
X883444Y-911225D01*
X883444Y-904875D01*
G54D10*
G75*
G01X883444Y-908050D02*
G03X819944Y-908050I-31750J0D01*
G01*
G54D10*
X851694Y-876300D02*
X851694Y-911225D01*
G54D10*
G75*
G01X835955Y-524458D02*
G03X835948Y-600558I-7J-38050D01*
G01*
G54D10*
X835998Y-600608D02*
X874098Y-600607D01*
X874098Y-524408D01*
X835999Y-524408D01*
G54D10*
G75*
G01X870898Y-562508D02*
G03X870898Y-562508I-34850J0D01*
G01*
G54D10*
X839173Y-591083D02*
X839173Y-565682D01*
X851873Y-565682D01*
X851873Y-559332D01*
X839173Y-559333D01*
X839173Y-533932D01*
X832823Y-533933D01*
X832823Y-559332D01*
X820123Y-559333D01*
X820123Y-565683D01*
X832823Y-565683D01*
X832823Y-591083D01*
X839173Y-591083D01*
G54D10*
X874098Y-597433D02*
X877273Y-597432D01*
X877274Y-578382D01*
X874098Y-578383D01*
G54D10*
X874098Y-546633D02*
X877273Y-546633D01*
X877273Y-527582D01*
X874098Y-527582D01*
G54D10*
X670719Y-508000D02*
X720719Y-508000D01*
G54D10*
X670719Y-533400D02*
X720719Y-533400D01*
G54D10*
G75*
G01X670719Y-508000D02*
G03X658019Y-520700I0J-12700D01*
G01*
G54D10*
G75*
G01X733419Y-520700D02*
G03X720719Y-508000I-12700J0D01*
G01*
G54D10*
G75*
G01X720719Y-533400D02*
G03X733419Y-520700I0J12700D01*
G01*
G54D10*
G75*
G01X658019Y-520700D02*
G03X670719Y-533400I12700J0D01*
G01*
G54D10*
X662781Y-577850D02*
X712781Y-577850D01*
G54D10*
X662781Y-603250D02*
X712781Y-603250D01*
G54D10*
G75*
G01X662781Y-577850D02*
G03X650081Y-590550I0J-12700D01*
G01*
G54D10*
G75*
G01X725481Y-590550D02*
G03X712781Y-577850I-12700J0D01*
G01*
G54D10*
G75*
G01X712781Y-603250D02*
G03X725481Y-590550I0J12700D01*
G01*
G54D10*
G75*
G01X650081Y-590550D02*
G03X662781Y-603250I12700J0D01*
G01*
G54D10*
X772319Y-533400D02*
X772319Y-583400D01*
G54D10*
X746919Y-533400D02*
X746919Y-583400D01*
G54D10*
G75*
G01X772319Y-533400D02*
G03X759619Y-520700I-12700J0D01*
G01*
G54D10*
G75*
G01X759619Y-596100D02*
G03X772319Y-583400I0J12700D01*
G01*
G54D10*
G75*
G01X746919Y-583400D02*
G03X759619Y-596100I12700J0D01*
G01*
G54D10*
G75*
G01X759619Y-520700D02*
G03X746919Y-533400I0J-12700D01*
G01*
G54D10*
G75*
G01X785804Y-947740D02*
G03X785804Y-947740I-12700J0D01*
G01*
G54D10*
X773112Y-909638D02*
X773112Y-947738D01*
G54D12*
X752380Y-911842D02*
X752380Y-911842D01*
G54D12*
X752380Y-931342D02*
X752380Y-931342D01*
G54D14*
X782638Y-963612D02*
X763588Y-963612D01*
G54D10*
G75*
G01X986631Y-460375D02*
G03X986631Y-460375I-24606J0D01*
G01*
G54D12*
X947229Y-449582D02*
X947229Y-449989D01*
G54D12*
X947060Y-449786D02*
X947398Y-449786D01*
G54D12*
X929395Y-473467D02*
X929395Y-473467D01*
G54D12*
X929395Y-453967D02*
X929395Y-453967D01*
G54D10*
G75*
G01X955675Y-511175D02*
G03X955675Y-511175I-24606J0D01*
G01*
G54D12*
X920276Y-525971D02*
X920683Y-525971D01*
G54D12*
X920480Y-526140D02*
X920480Y-525802D01*
G54D12*
X944161Y-543805D02*
X944161Y-543805D01*
G54D12*
X924661Y-543805D02*
X924661Y-543805D01*
G54D10*
G75*
G01X754054Y-947740D02*
G03X754054Y-947740I-12700J0D01*
G01*
G54D10*
X741362Y-909638D02*
X741362Y-947738D01*
G54D12*
X720630Y-911842D02*
X720630Y-911842D01*
G54D12*
X720630Y-931342D02*
X720630Y-931342D01*
G54D10*
X324644Y-800100D02*
X374644Y-800100D01*
G54D10*
X324644Y-825500D02*
X374644Y-825500D01*
G54D10*
G75*
G01X324644Y-800100D02*
G03X311944Y-812800I0J-12700D01*
G01*
G54D10*
G75*
G01X387344Y-812800D02*
G03X374644Y-800100I-12700J0D01*
G01*
G54D10*
G75*
G01X374644Y-825500D02*
G03X387344Y-812800I0J12700D01*
G01*
G54D10*
G75*
G01X311944Y-812800D02*
G03X324644Y-825500I12700J0D01*
G01*
G54D12*
X804068Y-691548D02*
X804068Y-691548D01*
G54D12*
X804068Y-711048D02*
X804068Y-711048D01*
G54D10*
X702469Y-615950D02*
X702469Y-635000D01*
X664369Y-635000D01*
X664369Y-615950D01*
X702469Y-615950D01*
G54D10*
X664369Y-625475D02*
X645319Y-625475D01*
G54D10*
X721519Y-625475D02*
X702469Y-625475D01*
G36*
X702469Y-615950D02*
X702469Y-635000D01*
X692944Y-635000D01*
X692944Y-615950D01*
X702469Y-615950D01*
G37*
G54D10*
X702469Y-615950D02*
X702469Y-635000D01*
X692944Y-635000D01*
X692944Y-615950D01*
X702469Y-615950D01*
G54D12*
X718679Y-643024D02*
X718679Y-643024D01*
G54D12*
X699179Y-643024D02*
X699179Y-643024D01*
G54D10*
G75*
G01X918367Y-587367D02*
G03X918367Y-587367I-12700J0D01*
G01*
G54D10*
X943769Y-587375D02*
X905669Y-587375D01*
G54D12*
X941564Y-566643D02*
X941564Y-566643D01*
G54D12*
X922064Y-566643D02*
X922064Y-566643D01*
G54D14*
X889794Y-596900D02*
X889794Y-577850D01*
G54D10*
G75*
G01X206375Y-127000D02*
G03X206375Y-127000I-24606J0D01*
G01*
G54D12*
X196565Y-137792D02*
X196565Y-137386D01*
G54D12*
X196734Y-137589D02*
X196395Y-137589D01*
G54D12*
X214399Y-113908D02*
X214399Y-113908D01*
G54D12*
X214399Y-133408D02*
X214399Y-133408D01*
G54D10*
X597594Y-406400D02*
X600794Y-403200D01*
X600794Y-384200D01*
X597594Y-381000D01*
X546794Y-381000D01*
X543594Y-384200D01*
X543594Y-403200D01*
X546794Y-406400D01*
X597594Y-406400D01*
G54D10*
X600794Y-393700D02*
X610294Y-393700D01*
G54D10*
X543594Y-393700D02*
X534094Y-393700D01*
G54D12*
X620094Y-413900D02*
X620094Y-413900D01*
G54D12*
X600594Y-413900D02*
X600594Y-413900D01*
G54D10*
X702469Y-546100D02*
X702469Y-565150D01*
X664369Y-565150D01*
X664369Y-546100D01*
X702469Y-546100D01*
G54D10*
X664369Y-555625D02*
X645319Y-555625D01*
G54D10*
X721519Y-555625D02*
X702469Y-555625D01*
G36*
X702469Y-546100D02*
X702469Y-565150D01*
X692944Y-565150D01*
X692944Y-546100D01*
X702469Y-546100D01*
G37*
G54D10*
X702469Y-546100D02*
X702469Y-565150D01*
X692944Y-565150D01*
X692944Y-546100D01*
X702469Y-546100D01*
G54D12*
X718679Y-573174D02*
X718679Y-573174D01*
G54D12*
X699179Y-573174D02*
X699179Y-573174D01*
G54D10*
G75*
G01X918367Y-549283D02*
G03X918367Y-549283I-12700J0D01*
G01*
G54D10*
X943769Y-549275D02*
X905669Y-549275D01*
G54D12*
X941564Y-570007D02*
X941564Y-570007D01*
G54D12*
X922064Y-570007D02*
X922064Y-570007D01*
G54D14*
X889794Y-539750D02*
X889794Y-558800D01*
G54D10*
X781844Y-476250D02*
X800894Y-476250D01*
X800894Y-514350D01*
X781844Y-514350D01*
X781844Y-476250D01*
G54D10*
X791369Y-514350D02*
X791369Y-533400D01*
G54D10*
X791369Y-457200D02*
X791369Y-476250D01*
G36*
X781844Y-476250D02*
X800894Y-476250D01*
X800894Y-485775D01*
X781844Y-485775D01*
X781844Y-476250D01*
G37*
G54D10*
X781844Y-476250D02*
X800894Y-476250D01*
X800894Y-485775D01*
X781844Y-485775D01*
X781844Y-476250D01*
G54D12*
X808918Y-460040D02*
X808918Y-460040D01*
G54D12*
X808918Y-479540D02*
X808918Y-479540D01*
G54D15*
X460332Y-79527D02*
X384132Y-79527D01*
X384132Y-16027D01*
X460332Y-16027D01*
X460332Y-79527D01*
G36*
X447632Y-79527D02*
X447632Y-73177D01*
X396832Y-73177D01*
X396832Y-79527D01*
X447632Y-79527D01*
G37*
G54D15*
X447632Y-79527D02*
X447632Y-73177D01*
X396832Y-73177D01*
X396832Y-79527D01*
X447632Y-79527D01*
G54D12*
X461830Y-107025D02*
X461830Y-107025D01*
G54D12*
X461830Y-87525D02*
X461830Y-87525D01*
G54D10*
X781937Y-179294D02*
X781937Y-198344D01*
X743837Y-198344D01*
X743837Y-179294D01*
X781937Y-179294D01*
G54D10*
X743837Y-188819D02*
X724787Y-188819D01*
G54D10*
X800987Y-188819D02*
X781937Y-188819D01*
G36*
X781937Y-179294D02*
X781937Y-198344D01*
X772412Y-198344D01*
X772412Y-179294D01*
X781937Y-179294D01*
G37*
G54D10*
X781937Y-179294D02*
X781937Y-198344D01*
X772412Y-198344D01*
X772412Y-179294D01*
X781937Y-179294D01*
G54D12*
X798147Y-206368D02*
X798147Y-206368D01*
G54D12*
X778647Y-206368D02*
X778647Y-206368D01*
G54D10*
G75*
G01X804061Y-423864D02*
G03X804061Y-423864I-12700J0D01*
G01*
G54D10*
X791369Y-385762D02*
X791369Y-423862D01*
G54D12*
X770637Y-387968D02*
X770637Y-387968D01*
G54D12*
X770637Y-407468D02*
X770637Y-407468D01*
G54D10*
G75*
G01X791369Y-244475D02*
G03X791369Y-206375I0J19050D01*
G01*
G54D10*
G75*
G01X759619Y-206375D02*
G03X759619Y-244475I0J-19050D01*
G01*
G54D10*
X791369Y-244475D02*
X788194Y-241300D01*
X762794Y-241300D01*
X759619Y-244475D01*
G54D10*
X791369Y-206375D02*
X788194Y-209550D01*
X762794Y-209550D01*
X759619Y-206375D01*
G54D10*
X826294Y-225425D02*
X810419Y-225425D01*
G54D10*
X724694Y-225425D02*
X740569Y-225425D01*
G54D12*
X837724Y-271999D02*
X837724Y-271999D01*
G54D12*
X837724Y-252499D02*
X837724Y-252499D01*
G54D10*
X629444Y-212725D02*
X679444Y-212725D01*
G54D10*
X629444Y-238125D02*
X679444Y-238125D01*
G54D10*
G75*
G01X629444Y-212725D02*
G03X616744Y-225425I0J-12700D01*
G01*
G54D10*
G75*
G01X692144Y-225425D02*
G03X679444Y-212725I-12700J0D01*
G01*
G54D10*
G75*
G01X679444Y-238125D02*
G03X692144Y-225425I0J12700D01*
G01*
G54D10*
G75*
G01X616744Y-225425D02*
G03X629444Y-238125I12700J0D01*
G01*
G54D12*
X830896Y-144094D02*
X830896Y-143688D01*
G54D12*
X831065Y-143891D02*
X830727Y-143891D01*
G54D10*
X724694Y-875506D02*
X724694Y-825506D01*
G54D10*
X750094Y-875506D02*
X750094Y-825506D01*
G54D10*
G75*
G01X724694Y-875506D02*
G03X737394Y-888206I12700J0D01*
G01*
G54D10*
G75*
G01X737394Y-812806D02*
G03X724694Y-825506I0J-12700D01*
G01*
G54D10*
G75*
G01X750094Y-825506D02*
G03X737394Y-812806I-12700J0D01*
G01*
G54D10*
G75*
G01X737394Y-888206D02*
G03X750094Y-875506I0J12700D01*
G01*
G54D10*
X945356Y-826988D02*
X948556Y-830188D01*
X967556Y-830188D01*
X970756Y-826988D01*
X970756Y-776188D01*
X967556Y-772988D01*
X948556Y-772988D01*
X945356Y-776188D01*
X945356Y-826988D01*
G54D10*
X958056Y-830188D02*
X958056Y-839688D01*
G54D10*
X958056Y-772988D02*
X958056Y-763488D01*
G54D12*
X937856Y-849488D02*
X937856Y-849488D01*
G54D12*
X937856Y-829988D02*
X937856Y-829988D01*
G54D16*
X99219Y-73025D02*
X99219Y-22225D01*
X200819Y-22225D01*
X200819Y-73025D01*
X99219Y-73025D01*
G54D12*
X97949Y5045D02*
X97949Y5045D01*
G54D12*
X97949Y-14455D02*
X97949Y-14455D01*
G54D17*
X78975Y-91652D02*
X78128Y-93769D01*
X76435Y-94828D01*
X74742Y-94828D01*
X73048Y-93769D01*
X72202Y-91652D01*
X72202Y-81069D01*
X73048Y-78952D01*
X74742Y-77894D01*
X76435Y-77894D01*
X78128Y-78952D01*
X78975Y-81069D01*
G54D17*
X89982Y-94828D02*
X89982Y-77894D01*
X84902Y-88478D01*
X84902Y-90594D01*
X91675Y-90594D01*
G54D17*
X97602Y-77894D02*
X104375Y-77894D01*
X103528Y-80011D01*
X101835Y-83186D01*
X100142Y-87419D01*
X99295Y-90594D01*
X99295Y-94828D01*
G54D17*
X87739Y-131869D02*
X87739Y-148802D01*
X93665Y-148802D01*
G54D17*
X103826Y-140336D02*
X102133Y-140336D01*
X100439Y-139278D01*
X99593Y-137161D01*
X99593Y-135044D01*
X100439Y-132928D01*
X102133Y-131869D01*
X103826Y-131869D01*
X105519Y-132928D01*
X106366Y-135044D01*
X106366Y-137161D01*
X105519Y-139278D01*
X103826Y-140336D01*
X105519Y-141394D01*
X106366Y-143511D01*
X106366Y-145628D01*
X105519Y-147744D01*
X103826Y-148802D01*
X102133Y-148802D01*
X100439Y-147744D01*
X99593Y-145628D01*
X99593Y-143511D01*
X100439Y-141394D01*
X102133Y-140336D01*
G54D17*
X113932Y-327925D02*
X113932Y-344859D01*
X119859Y-344859D01*
G54D17*
X125786Y-327925D02*
X132560Y-327925D01*
X131713Y-330042D01*
X130020Y-333217D01*
X128326Y-337450D01*
X127480Y-340625D01*
X127480Y-344859D01*
G54D17*
X28175Y-218652D02*
X27328Y-220769D01*
X25635Y-221828D01*
X23942Y-221828D01*
X22248Y-220769D01*
X21402Y-218652D01*
X21402Y-208069D01*
X22248Y-205952D01*
X23942Y-204894D01*
X25635Y-204894D01*
X27328Y-205952D01*
X28175Y-208069D01*
G54D17*
X39182Y-221828D02*
X39182Y-204894D01*
X34102Y-215478D01*
X34102Y-217594D01*
X40875Y-217594D01*
G54D17*
X53575Y-208069D02*
X52728Y-205952D01*
X51035Y-204894D01*
X49342Y-204894D01*
X47648Y-205952D01*
X46802Y-208069D01*
X46802Y-213361D01*
X46802Y-214419D01*
X49342Y-212302D01*
X51035Y-212302D01*
X52728Y-213361D01*
X53575Y-215478D01*
X53575Y-218652D01*
X52728Y-220769D01*
X51035Y-221828D01*
X49342Y-221828D01*
X47648Y-220769D01*
X46802Y-218652D01*
X46802Y-213361D01*
G54D17*
X28175Y-345652D02*
X27328Y-347769D01*
X25635Y-348828D01*
X23942Y-348828D01*
X22248Y-347769D01*
X21402Y-345652D01*
X21402Y-335069D01*
X22248Y-332952D01*
X23942Y-331894D01*
X25635Y-331894D01*
X27328Y-332952D01*
X28175Y-335069D01*
G54D17*
X39182Y-348828D02*
X39182Y-331894D01*
X34102Y-342478D01*
X34102Y-344594D01*
X40875Y-344594D01*
G54D17*
X53575Y-331894D02*
X46802Y-331894D01*
X46802Y-339302D01*
X47648Y-339302D01*
X49342Y-338244D01*
X51035Y-338244D01*
X52728Y-339302D01*
X53575Y-341419D01*
X53575Y-345652D01*
X52728Y-347769D01*
X51035Y-348828D01*
X49342Y-348828D01*
X47648Y-347769D01*
X46802Y-345652D01*
G54D17*
X113900Y-399628D02*
X113053Y-401744D01*
X111360Y-402802D01*
X109667Y-402802D01*
X107973Y-401744D01*
X107127Y-399628D01*
X107127Y-389044D01*
X107973Y-386928D01*
X109667Y-385869D01*
X111360Y-385869D01*
X113053Y-386928D01*
X113900Y-389044D01*
G54D17*
X124907Y-402802D02*
X124907Y-385869D01*
X119827Y-396452D01*
X119827Y-398569D01*
X126600Y-398569D01*
G54D17*
X137607Y-402802D02*
X137607Y-385869D01*
X132527Y-396452D01*
X132527Y-398569D01*
X139300Y-398569D01*
G54D17*
X181507Y-240243D02*
X183624Y-237703D01*
X185740Y-236856D01*
X189974Y-236856D01*
G54D17*
X189974Y-243630D02*
X173040Y-243630D01*
X173040Y-239396D01*
X174099Y-237703D01*
X176215Y-236856D01*
X178332Y-236856D01*
X180449Y-237703D01*
X181507Y-239396D01*
X181507Y-243630D01*
G54D17*
X189974Y-230930D02*
X173040Y-230930D01*
X173040Y-225003D01*
G54D17*
X181507Y-230930D02*
X181507Y-225003D01*
G54D17*
X186799Y-212302D02*
X188915Y-213149D01*
X189974Y-214842D01*
X189974Y-216536D01*
X188915Y-218229D01*
X186799Y-219076D01*
X176215Y-219076D01*
X174099Y-218229D01*
X173040Y-216536D01*
X173040Y-214842D01*
X174099Y-213149D01*
X176215Y-212302D01*
G54D17*
X179390Y-206376D02*
X173040Y-202142D01*
X189974Y-202142D01*
G54D17*
X218125Y-235586D02*
X220665Y-237702D01*
X221512Y-239819D01*
X221512Y-244052D01*
G54D17*
X214739Y-244052D02*
X214739Y-227119D01*
X218972Y-227119D01*
X220665Y-228178D01*
X221512Y-230294D01*
X221512Y-232411D01*
X220665Y-234528D01*
X218972Y-235586D01*
X214739Y-235586D01*
G54D17*
X227439Y-233469D02*
X231672Y-227119D01*
X231672Y-244052D01*
G54D17*
X241832Y-235586D02*
X240139Y-235586D01*
X238445Y-234528D01*
X237599Y-232411D01*
X237599Y-230294D01*
X238445Y-228178D01*
X240139Y-227119D01*
X241832Y-227119D01*
X243525Y-228178D01*
X244372Y-230294D01*
X244372Y-232411D01*
X243525Y-234528D01*
X241832Y-235586D01*
X243525Y-236644D01*
X244372Y-238761D01*
X244372Y-240878D01*
X243525Y-242994D01*
X241832Y-244052D01*
X240139Y-244052D01*
X238445Y-242994D01*
X237599Y-240878D01*
X237599Y-238761D01*
X238445Y-236644D01*
X240139Y-235586D01*
G54D17*
X125042Y-123825D02*
X124195Y-125942D01*
X122502Y-127000D01*
X120809Y-127000D01*
X119115Y-125942D01*
X118269Y-123825D01*
X118269Y-113242D01*
X119115Y-111125D01*
X120809Y-110067D01*
X122502Y-110067D01*
X124195Y-111125D01*
X125042Y-113242D01*
G54D17*
X136049Y-127000D02*
X136049Y-110067D01*
X130969Y-120650D01*
X130969Y-122767D01*
X137742Y-122767D01*
G54D17*
X150442Y-127000D02*
X143669Y-127000D01*
X143669Y-125942D01*
X144515Y-123825D01*
X149595Y-117475D01*
X150442Y-115358D01*
X150442Y-113242D01*
X149595Y-111125D01*
X147902Y-110067D01*
X146209Y-110067D01*
X144515Y-111125D01*
X143669Y-113242D01*
G54D17*
X277019Y-150019D02*
X277019Y-133085D01*
X281252Y-133085D01*
X282945Y-134144D01*
X283792Y-136260D01*
X283792Y-146844D01*
X282945Y-148960D01*
X281252Y-150019D01*
X277019Y-150019D01*
G54D17*
X289719Y-133085D02*
X296492Y-133085D01*
X295645Y-135202D01*
X293952Y-138377D01*
X292259Y-142610D01*
X291412Y-145785D01*
X291412Y-150019D01*
G54D17*
X103981Y-279400D02*
X103981Y-262467D01*
X108215Y-262467D01*
X109908Y-263525D01*
X110755Y-265642D01*
X110755Y-276225D01*
X109908Y-278342D01*
X108215Y-279400D01*
X103981Y-279400D01*
G54D17*
X116681Y-268817D02*
X120915Y-262467D01*
X120915Y-279400D01*
G54D17*
X133615Y-279400D02*
X126841Y-279400D01*
X126841Y-278342D01*
X127688Y-276225D01*
X132768Y-269875D01*
X133615Y-267758D01*
X133615Y-265642D01*
X132768Y-263525D01*
X131075Y-262467D01*
X129381Y-262467D01*
X127688Y-263525D01*
X126841Y-265642D01*
G54D17*
X148275Y-342478D02*
X152509Y-345652D01*
G54D17*
X151662Y-331894D02*
X151662Y-342478D01*
X150815Y-344594D01*
X149122Y-345652D01*
X147429Y-345652D01*
X145735Y-344594D01*
X144889Y-342478D01*
X144889Y-331894D01*
X145735Y-329778D01*
X147429Y-328719D01*
X149122Y-328719D01*
X150815Y-329778D01*
X151662Y-331894D01*
G54D17*
X158436Y-328719D02*
X165209Y-328719D01*
X164362Y-330836D01*
X162669Y-334011D01*
X160976Y-338244D01*
X160129Y-341419D01*
X160129Y-345652D01*
G54D17*
X361000Y-294852D02*
X361000Y-277919D01*
G54D17*
X357614Y-277919D02*
X364387Y-277919D01*
G54D17*
X370314Y-284269D02*
X374547Y-277919D01*
X374547Y-294852D01*
G54D18*
X377434Y-250190D02*
X380821Y-245110D01*
X380821Y-258657D01*
G54D18*
X401903Y-277707D02*
X396484Y-277707D01*
X396484Y-276860D01*
X397162Y-275167D01*
X401226Y-270087D01*
X401903Y-268394D01*
X401903Y-266700D01*
X401226Y-265007D01*
X399871Y-264160D01*
X398516Y-264160D01*
X397162Y-265007D01*
X396484Y-266700D01*
G54D18*
X374259Y-314325D02*
X374937Y-312632D01*
X376291Y-311785D01*
X377646Y-311785D01*
X379001Y-312632D01*
X379678Y-314325D01*
X379678Y-316019D01*
X379001Y-317712D01*
X377646Y-318559D01*
X379001Y-319405D01*
X379678Y-321099D01*
X379678Y-322792D01*
X379001Y-324485D01*
X377646Y-325332D01*
X376291Y-325332D01*
X374937Y-324485D01*
X374259Y-322792D01*
G54D18*
X337048Y-315807D02*
X337048Y-302260D01*
X332984Y-310727D01*
X332984Y-312420D01*
X338403Y-312420D01*
G54D17*
X277442Y-254000D02*
X276595Y-256117D01*
X274902Y-257175D01*
X273209Y-257175D01*
X271515Y-256117D01*
X270669Y-254000D01*
X270669Y-243417D01*
X271515Y-241300D01*
X273209Y-240242D01*
X274902Y-240242D01*
X276595Y-241300D01*
X277442Y-243417D01*
G54D17*
X288449Y-257175D02*
X288449Y-240242D01*
X283369Y-250825D01*
X283369Y-252942D01*
X290142Y-252942D01*
G54D17*
X296069Y-243417D02*
X296915Y-241300D01*
X298609Y-240242D01*
X300302Y-240242D01*
X301995Y-241300D01*
X302842Y-243417D01*
X302842Y-245533D01*
X301995Y-247650D01*
X300302Y-248708D01*
X301995Y-249767D01*
X302842Y-251883D01*
X302842Y-254000D01*
X301995Y-256117D01*
X300302Y-257175D01*
X298609Y-257175D01*
X296915Y-256117D01*
X296069Y-254000D01*
G54D17*
X319725Y-400686D02*
X322265Y-402802D01*
X323112Y-404919D01*
X323112Y-409152D01*
G54D17*
X316339Y-409152D02*
X316339Y-392219D01*
X320572Y-392219D01*
X322265Y-393278D01*
X323112Y-395394D01*
X323112Y-397511D01*
X322265Y-399628D01*
X320572Y-400686D01*
X316339Y-400686D01*
G54D17*
X329039Y-398569D02*
X333272Y-392219D01*
X333272Y-409152D01*
G54D17*
X344279Y-409152D02*
X344279Y-392219D01*
X339199Y-402802D01*
X339199Y-404919D01*
X345972Y-404919D01*
G54D17*
X456250Y-295911D02*
X458790Y-298028D01*
X459637Y-300144D01*
X459637Y-304378D01*
G54D17*
X452864Y-304378D02*
X452864Y-287444D01*
X457097Y-287444D01*
X458790Y-288502D01*
X459637Y-290619D01*
X459637Y-292736D01*
X458790Y-294852D01*
X457097Y-295911D01*
X452864Y-295911D01*
G54D17*
X465564Y-293794D02*
X469797Y-287444D01*
X469797Y-304378D01*
G54D17*
X482497Y-304378D02*
X475724Y-304378D01*
X475724Y-303319D01*
X476570Y-301202D01*
X481650Y-294852D01*
X482497Y-292736D01*
X482497Y-290619D01*
X481650Y-288502D01*
X479957Y-287444D01*
X478264Y-287444D01*
X476570Y-288502D01*
X475724Y-290619D01*
G54D17*
X389575Y-200661D02*
X392115Y-202778D01*
X392962Y-204894D01*
X392962Y-209128D01*
G54D17*
X386189Y-209128D02*
X386189Y-192194D01*
X390422Y-192194D01*
X392115Y-193252D01*
X392962Y-195369D01*
X392962Y-197486D01*
X392115Y-199602D01*
X390422Y-200661D01*
X386189Y-200661D01*
G54D17*
X398889Y-198544D02*
X403122Y-192194D01*
X403122Y-209128D01*
G54D17*
X409049Y-195369D02*
X409895Y-193252D01*
X411589Y-192194D01*
X413282Y-192194D01*
X414975Y-193252D01*
X415822Y-195369D01*
X415822Y-197486D01*
X414975Y-199602D01*
X413282Y-200661D01*
X414975Y-201719D01*
X415822Y-203836D01*
X415822Y-205952D01*
X414975Y-208069D01*
X413282Y-209128D01*
X411589Y-209128D01*
X409895Y-208069D01*
X409049Y-205952D01*
G54D17*
X529487Y-269452D02*
X528640Y-271569D01*
X526947Y-272628D01*
X525254Y-272628D01*
X523560Y-271569D01*
X522714Y-269452D01*
X522714Y-258869D01*
X523560Y-256752D01*
X525254Y-255694D01*
X526947Y-255694D01*
X528640Y-256752D01*
X529487Y-258869D01*
G54D17*
X542187Y-255694D02*
X535414Y-255694D01*
X535414Y-263102D01*
X536260Y-263102D01*
X537954Y-262044D01*
X539647Y-262044D01*
X541340Y-263102D01*
X542187Y-265219D01*
X542187Y-269452D01*
X541340Y-271569D01*
X539647Y-272628D01*
X537954Y-272628D01*
X536260Y-271569D01*
X535414Y-269452D01*
G54D17*
X554887Y-258869D02*
X554040Y-256752D01*
X552347Y-255694D01*
X550654Y-255694D01*
X548960Y-256752D01*
X548114Y-258869D01*
X548114Y-264161D01*
X548114Y-265219D01*
X550654Y-263102D01*
X552347Y-263102D01*
X554040Y-264161D01*
X554887Y-266278D01*
X554887Y-269452D01*
X554040Y-271569D01*
X552347Y-272628D01*
X550654Y-272628D01*
X548960Y-271569D01*
X548114Y-269452D01*
X548114Y-264161D01*
G54D17*
X490964Y-155152D02*
X490964Y-138219D01*
X495197Y-138219D01*
X496890Y-139278D01*
X497737Y-141394D01*
X497737Y-151978D01*
X496890Y-154094D01*
X495197Y-155152D01*
X490964Y-155152D01*
G54D17*
X503664Y-144569D02*
X507897Y-138219D01*
X507897Y-155152D01*
G54D17*
X520597Y-141394D02*
X520597Y-151978D01*
X519750Y-154094D01*
X518057Y-155152D01*
X516364Y-155152D01*
X514670Y-154094D01*
X513824Y-151978D01*
X513824Y-141394D01*
X514670Y-139278D01*
X516364Y-138219D01*
X518057Y-138219D01*
X519750Y-139278D01*
X520597Y-141394D01*
G54D17*
X335389Y-125519D02*
X335389Y-139278D01*
X336235Y-141394D01*
X337929Y-142452D01*
X339622Y-142452D01*
X341315Y-141394D01*
X342162Y-139278D01*
X342162Y-125519D01*
G54D17*
X354862Y-125519D02*
X348089Y-125519D01*
X348089Y-132928D01*
X348935Y-132928D01*
X350629Y-131869D01*
X352322Y-131869D01*
X354015Y-132928D01*
X354862Y-135044D01*
X354862Y-139278D01*
X354015Y-141394D01*
X352322Y-142452D01*
X350629Y-142452D01*
X348935Y-141394D01*
X348089Y-139278D01*
G54D17*
X156763Y-679028D02*
X155916Y-681144D01*
X154223Y-682202D01*
X152529Y-682202D01*
X150836Y-681144D01*
X149989Y-679028D01*
X149989Y-668444D01*
X150836Y-666328D01*
X152529Y-665269D01*
X154223Y-665269D01*
X155916Y-666328D01*
X156763Y-668444D01*
G54D17*
X162689Y-679028D02*
X163536Y-681144D01*
X165229Y-682202D01*
X166923Y-682202D01*
X168616Y-681144D01*
X169463Y-679028D01*
X169463Y-673736D01*
X169463Y-672678D01*
X166923Y-674794D01*
X165229Y-674794D01*
X163536Y-673736D01*
X162689Y-671619D01*
X162689Y-668444D01*
X163536Y-666328D01*
X165229Y-665269D01*
X166923Y-665269D01*
X168616Y-666328D01*
X169463Y-668444D01*
X169463Y-673736D01*
G54D17*
X330964Y-682732D02*
X330964Y-699665D01*
X336891Y-699665D01*
G54D17*
X347898Y-699665D02*
X347898Y-682732D01*
X342818Y-693315D01*
X342818Y-695432D01*
X349592Y-695432D01*
G54D17*
X402275Y-353061D02*
X404815Y-355178D01*
X405662Y-357294D01*
X405662Y-361528D01*
G54D17*
X398889Y-361528D02*
X398889Y-344594D01*
X403122Y-344594D01*
X404815Y-345652D01*
X405662Y-347769D01*
X405662Y-349886D01*
X404815Y-352002D01*
X403122Y-353061D01*
X398889Y-353061D01*
G54D17*
X411589Y-350944D02*
X415822Y-344594D01*
X415822Y-361528D01*
G54D17*
X421749Y-350944D02*
X425982Y-344594D01*
X425982Y-361528D01*
G54D17*
X468950Y-377402D02*
X473184Y-380578D01*
G54D17*
X472337Y-366819D02*
X472337Y-377402D01*
X471490Y-379519D01*
X469797Y-380578D01*
X468104Y-380578D01*
X466410Y-379519D01*
X465564Y-377402D01*
X465564Y-366819D01*
X466410Y-364702D01*
X468104Y-363644D01*
X469797Y-363644D01*
X471490Y-364702D01*
X472337Y-366819D01*
G54D17*
X485884Y-366819D02*
X485037Y-364702D01*
X483344Y-363644D01*
X481651Y-363644D01*
X479957Y-364702D01*
X479111Y-366819D01*
X479111Y-372111D01*
X479111Y-373169D01*
X481651Y-371052D01*
X483344Y-371052D01*
X485037Y-372111D01*
X485884Y-374228D01*
X485884Y-377402D01*
X485037Y-379519D01*
X483344Y-380578D01*
X481651Y-380578D01*
X479957Y-379519D01*
X479111Y-377402D01*
X479111Y-372111D01*
G54D17*
X557850Y-186902D02*
X562084Y-190078D01*
G54D17*
X561237Y-176319D02*
X561237Y-186902D01*
X560390Y-189019D01*
X558697Y-190078D01*
X557004Y-190078D01*
X555310Y-189019D01*
X554464Y-186902D01*
X554464Y-176319D01*
X555310Y-174202D01*
X557004Y-173144D01*
X558697Y-173144D01*
X560390Y-174202D01*
X561237Y-176319D01*
G54D17*
X573091Y-190078D02*
X573091Y-173144D01*
X568011Y-183728D01*
X568011Y-185844D01*
X574784Y-185844D01*
G54D17*
X704112Y-127371D02*
X703266Y-129488D01*
X701572Y-130546D01*
X699879Y-130546D01*
X698186Y-129488D01*
X697339Y-127371D01*
X697339Y-116788D01*
X698186Y-114671D01*
X699879Y-113613D01*
X701572Y-113613D01*
X703266Y-114671D01*
X704112Y-116788D01*
G54D17*
X715119Y-130546D02*
X715119Y-113613D01*
X710039Y-124196D01*
X710039Y-126313D01*
X716812Y-126313D01*
G54D17*
X722739Y-119963D02*
X726972Y-113613D01*
X726972Y-130546D01*
G54D17*
X468950Y-475828D02*
X473184Y-479002D01*
G54D17*
X472337Y-465244D02*
X472337Y-475828D01*
X471490Y-477944D01*
X469797Y-479002D01*
X468104Y-479002D01*
X466410Y-477944D01*
X465564Y-475828D01*
X465564Y-465244D01*
X466410Y-463128D01*
X468104Y-462069D01*
X469797Y-462069D01*
X471490Y-463128D01*
X472337Y-465244D01*
G54D17*
X485884Y-462069D02*
X479111Y-462069D01*
X479111Y-469478D01*
X479957Y-469478D01*
X481651Y-468419D01*
X483344Y-468419D01*
X485037Y-469478D01*
X485884Y-471594D01*
X485884Y-475828D01*
X485037Y-477944D01*
X483344Y-479002D01*
X481651Y-479002D01*
X479957Y-477944D01*
X479111Y-475828D01*
G54D17*
X634050Y-200661D02*
X636590Y-202778D01*
X637437Y-204894D01*
X637437Y-209128D01*
G54D17*
X630664Y-209128D02*
X630664Y-192194D01*
X634897Y-192194D01*
X636590Y-193252D01*
X637437Y-195369D01*
X637437Y-197486D01*
X636590Y-199602D01*
X634897Y-200661D01*
X630664Y-200661D01*
G54D17*
X650137Y-209128D02*
X643364Y-209128D01*
X643364Y-208069D01*
X644210Y-205952D01*
X649290Y-199602D01*
X650137Y-197486D01*
X650137Y-195369D01*
X649290Y-193252D01*
X647597Y-192194D01*
X645904Y-192194D01*
X644210Y-193252D01*
X643364Y-195369D01*
G54D17*
X661144Y-209128D02*
X661144Y-192194D01*
X656064Y-202778D01*
X656064Y-204894D01*
X662837Y-204894D01*
G54D17*
X618175Y-133986D02*
X620715Y-136102D01*
X621562Y-138219D01*
X621562Y-142452D01*
G54D17*
X614789Y-142452D02*
X614789Y-125519D01*
X619022Y-125519D01*
X620715Y-126578D01*
X621562Y-128694D01*
X621562Y-130811D01*
X620715Y-132928D01*
X619022Y-133986D01*
X614789Y-133986D01*
G54D17*
X627489Y-139278D02*
X628335Y-141394D01*
X630029Y-142452D01*
X631722Y-142452D01*
X633415Y-141394D01*
X634262Y-139278D01*
X634262Y-133986D01*
X634262Y-132928D01*
X631722Y-135044D01*
X630029Y-135044D01*
X628335Y-133986D01*
X627489Y-131869D01*
X627489Y-128694D01*
X628335Y-126578D01*
X630029Y-125519D01*
X631722Y-125519D01*
X633415Y-126578D01*
X634262Y-128694D01*
X634262Y-133986D01*
G54D17*
X691412Y-210715D02*
X690565Y-212832D01*
X688872Y-213890D01*
X687179Y-213890D01*
X685485Y-212832D01*
X684639Y-210715D01*
X684639Y-200132D01*
X685485Y-198015D01*
X687179Y-196957D01*
X688872Y-196957D01*
X690565Y-198015D01*
X691412Y-200132D01*
G54D17*
X704112Y-196957D02*
X697339Y-196957D01*
X697339Y-204365D01*
X698185Y-204365D01*
X699879Y-203307D01*
X701572Y-203307D01*
X703265Y-204365D01*
X704112Y-206482D01*
X704112Y-210715D01*
X703265Y-212832D01*
X701572Y-213890D01*
X699879Y-213890D01*
X698185Y-212832D01*
X697339Y-210715D01*
G54D17*
X710039Y-196957D02*
X716812Y-196957D01*
X715965Y-199073D01*
X714272Y-202248D01*
X712579Y-206482D01*
X711732Y-209657D01*
X711732Y-213890D01*
G54D17*
X767189Y-217594D02*
X767189Y-234528D01*
X773115Y-234528D01*
G54D17*
X785816Y-217594D02*
X779043Y-217594D01*
X779043Y-225002D01*
X779889Y-225002D01*
X781583Y-223944D01*
X783276Y-223944D01*
X784969Y-225002D01*
X785816Y-227119D01*
X785816Y-231352D01*
X784969Y-233469D01*
X783276Y-234528D01*
X781583Y-234528D01*
X779889Y-233469D01*
X779043Y-231352D01*
G54D17*
X679876Y-262044D02*
X688343Y-278978D01*
G54D17*
X679876Y-278978D02*
X688343Y-262044D01*
G54D17*
X701044Y-265219D02*
X700197Y-263102D01*
X698504Y-262044D01*
X696810Y-262044D01*
X695117Y-263102D01*
X694270Y-265219D01*
X694270Y-270511D01*
X694270Y-271569D01*
X696810Y-269452D01*
X698504Y-269452D01*
X700197Y-270511D01*
X701044Y-272628D01*
X701044Y-275802D01*
X700197Y-277919D01*
X698504Y-278978D01*
X696810Y-278978D01*
X695117Y-277919D01*
X694270Y-275802D01*
X694270Y-270511D01*
G54D17*
X896200Y-88478D02*
X895353Y-90594D01*
X893660Y-91652D01*
X891966Y-91652D01*
X890273Y-90594D01*
X889426Y-88478D01*
X889426Y-77894D01*
X890273Y-75778D01*
X891966Y-74719D01*
X893660Y-74719D01*
X895353Y-75778D01*
X896200Y-77894D01*
G54D17*
X908900Y-91652D02*
X902126Y-91652D01*
X902126Y-90594D01*
X902973Y-88478D01*
X908053Y-82128D01*
X908900Y-80011D01*
X908900Y-77894D01*
X908053Y-75778D01*
X906360Y-74719D01*
X904666Y-74719D01*
X902973Y-75778D01*
X902126Y-77894D01*
G54D17*
X921600Y-77894D02*
X920753Y-75778D01*
X919060Y-74719D01*
X917366Y-74719D01*
X915673Y-75778D01*
X914826Y-77894D01*
X914826Y-83186D01*
X914826Y-84244D01*
X917366Y-82128D01*
X919060Y-82128D01*
X920753Y-83186D01*
X921600Y-85302D01*
X921600Y-88478D01*
X920753Y-90594D01*
X919060Y-91652D01*
X917366Y-91652D01*
X915673Y-90594D01*
X914826Y-88478D01*
X914826Y-83186D01*
G54D17*
X962663Y-194311D02*
X965203Y-196428D01*
X966050Y-198544D01*
X966050Y-202778D01*
G54D17*
X959276Y-202778D02*
X959276Y-185844D01*
X963510Y-185844D01*
X965203Y-186902D01*
X966050Y-189019D01*
X966050Y-191136D01*
X965203Y-193252D01*
X963510Y-194311D01*
X959276Y-194311D01*
G54D17*
X976210Y-194311D02*
X974516Y-194311D01*
X972823Y-193252D01*
X971976Y-191136D01*
X971976Y-189019D01*
X972823Y-186902D01*
X974516Y-185844D01*
X976210Y-185844D01*
X977903Y-186902D01*
X978750Y-189019D01*
X978750Y-191136D01*
X977903Y-193252D01*
X976210Y-194311D01*
X977903Y-195369D01*
X978750Y-197486D01*
X978750Y-199602D01*
X977903Y-201719D01*
X976210Y-202778D01*
X974516Y-202778D01*
X972823Y-201719D01*
X971976Y-199602D01*
X971976Y-197486D01*
X972823Y-195369D01*
X974516Y-194311D01*
G54D17*
X965256Y-317078D02*
X964409Y-319194D01*
X962716Y-320252D01*
X961022Y-320252D01*
X959329Y-319194D01*
X958482Y-317078D01*
X958482Y-306494D01*
X959329Y-304378D01*
X961022Y-303319D01*
X962716Y-303319D01*
X964409Y-304378D01*
X965256Y-306494D01*
G54D17*
X977956Y-320252D02*
X971182Y-320252D01*
X971182Y-319194D01*
X972029Y-317078D01*
X977109Y-310728D01*
X977956Y-308611D01*
X977956Y-306494D01*
X977109Y-304378D01*
X975416Y-303319D01*
X973722Y-303319D01*
X972029Y-304378D01*
X971182Y-306494D01*
G54D17*
X983882Y-303319D02*
X990656Y-303319D01*
X989809Y-305436D01*
X988116Y-308611D01*
X986422Y-312844D01*
X985576Y-316019D01*
X985576Y-320252D01*
G54D17*
X884082Y-227648D02*
X886622Y-229765D01*
X887468Y-231882D01*
X887468Y-236115D01*
G54D17*
X880695Y-236115D02*
X880695Y-219182D01*
X884928Y-219182D01*
X886622Y-220240D01*
X887468Y-222357D01*
X887468Y-224473D01*
X886622Y-226590D01*
X884928Y-227648D01*
X880695Y-227648D01*
G54D17*
X900168Y-236115D02*
X893395Y-236115D01*
X893395Y-235057D01*
X894242Y-232940D01*
X899322Y-226590D01*
X900168Y-224473D01*
X900168Y-222357D01*
X899322Y-220240D01*
X897628Y-219182D01*
X895935Y-219182D01*
X894242Y-220240D01*
X893395Y-222357D01*
G54D17*
X912868Y-236115D02*
X906095Y-236115D01*
X906095Y-235057D01*
X906942Y-232940D01*
X912022Y-226590D01*
X912868Y-224473D01*
X912868Y-222357D01*
X912022Y-220240D01*
X910328Y-219182D01*
X908635Y-219182D01*
X906942Y-220240D01*
X906095Y-222357D01*
G54D17*
X814443Y-267865D02*
X813597Y-269982D01*
X811903Y-271040D01*
X810210Y-271040D01*
X808517Y-269982D01*
X807670Y-267865D01*
X807670Y-257282D01*
X808517Y-255165D01*
X810210Y-254107D01*
X811903Y-254107D01*
X813597Y-255165D01*
X814443Y-257282D01*
G54D17*
X827143Y-254107D02*
X820370Y-254107D01*
X820370Y-261515D01*
X821217Y-261515D01*
X822910Y-260457D01*
X824603Y-260457D01*
X826297Y-261515D01*
X827143Y-263632D01*
X827143Y-267865D01*
X826297Y-269982D01*
X824603Y-271040D01*
X822910Y-271040D01*
X821217Y-269982D01*
X820370Y-267865D01*
G54D17*
X839843Y-254107D02*
X833070Y-254107D01*
X833070Y-261515D01*
X833917Y-261515D01*
X835610Y-260457D01*
X837303Y-260457D01*
X838997Y-261515D01*
X839843Y-263632D01*
X839843Y-267865D01*
X838997Y-269982D01*
X837303Y-271040D01*
X835610Y-271040D01*
X833917Y-269982D01*
X833070Y-267865D01*
G54D17*
X816824Y-396452D02*
X815978Y-398569D01*
X814284Y-399628D01*
X812591Y-399628D01*
X810898Y-398569D01*
X810051Y-396452D01*
X810051Y-385869D01*
X810898Y-383752D01*
X812591Y-382694D01*
X814284Y-382694D01*
X815978Y-383752D01*
X816824Y-385869D01*
G54D17*
X829524Y-399628D02*
X822751Y-399628D01*
X822751Y-398569D01*
X823598Y-396452D01*
X828678Y-390102D01*
X829524Y-387986D01*
X829524Y-385869D01*
X828678Y-383752D01*
X826984Y-382694D01*
X825291Y-382694D01*
X823598Y-383752D01*
X822751Y-385869D01*
G54D17*
X835451Y-385869D02*
X836298Y-383752D01*
X837991Y-382694D01*
X839684Y-382694D01*
X841378Y-383752D01*
X842224Y-385869D01*
X842224Y-387986D01*
X841378Y-390102D01*
X839684Y-391161D01*
X841378Y-392219D01*
X842224Y-394336D01*
X842224Y-396452D01*
X841378Y-398569D01*
X839684Y-399628D01*
X837991Y-399628D01*
X836298Y-398569D01*
X835451Y-396452D01*
G54D10*
X902394Y-211137D02*
X905594Y-207937D01*
X905594Y-188937D01*
X902394Y-185737D01*
X851594Y-185737D01*
X848394Y-188937D01*
X848394Y-207937D01*
X851594Y-211137D01*
X902394Y-211137D01*
G54D10*
X905594Y-198438D02*
X915094Y-198437D01*
G54D10*
X848394Y-198437D02*
X838894Y-198437D01*
G54D12*
X924894Y-218637D02*
X924894Y-218637D01*
G54D12*
X905394Y-218637D02*
X905394Y-218637D01*
G54D12*
X805989Y-270175D02*
X805989Y-270175D01*
G54D12*
X805989Y-289675D02*
X805989Y-289675D01*
G54D10*
G75*
G01X795218Y-318748D02*
G03X754807Y-318748I-20206J20206D01*
G01*
G54D10*
X754974Y-319248D02*
X794661Y-319248D01*
G54D19*
G75*
G01X788312Y-297024D02*
G03X788312Y-297024I-12700J0D01*
G01*
G54D16*
X762911Y-297024D02*
X788311Y-297024D01*
G54D12*
X98536Y-493634D02*
X98536Y-493634D01*
G54D12*
X79036Y-493634D02*
X79036Y-493634D01*
G54D10*
G75*
G01X49963Y-482863D02*
G03X49963Y-442452I20206J20205D01*
G01*
G54D10*
X49462Y-442619D02*
X49462Y-482306D01*
G54D19*
G75*
G01X84387Y-463257D02*
G03X84387Y-463257I-12700J0D01*
G01*
G54D16*
X71687Y-450556D02*
X71687Y-475956D01*
G54D12*
X495411Y-627778D02*
X495411Y-627778D01*
G54D12*
X475911Y-627778D02*
X475911Y-627778D01*
G54D10*
G75*
G01X446838Y-617007D02*
G03X446838Y-576596I20206J20205D01*
G01*
G54D10*
X446337Y-576762D02*
X446337Y-616450D01*
G54D19*
G75*
G01X481262Y-597400D02*
G03X481262Y-597400I-12700J0D01*
G01*
G54D16*
X468562Y-584700D02*
X468562Y-610100D01*
G54D12*
X308086Y-898446D02*
X308086Y-898446D01*
G54D12*
X288586Y-898446D02*
X288586Y-898446D01*
G54D10*
G75*
G01X259513Y-887676D02*
G03X259513Y-847265I20206J20206D01*
G01*
G54D10*
X259012Y-847431D02*
X259012Y-887119D01*
G54D19*
G75*
G01X293937Y-868069D02*
G03X293937Y-868069I-12700J0D01*
G01*
G54D16*
X281237Y-855369D02*
X281237Y-880769D01*
G54D17*
X894189Y-357294D02*
X894189Y-371052D01*
X895035Y-373169D01*
X896729Y-374228D01*
X898422Y-374228D01*
X900115Y-373169D01*
X900962Y-371052D01*
X900962Y-357294D01*
G54D17*
X906889Y-360469D02*
X907735Y-358352D01*
X909429Y-357294D01*
X911122Y-357294D01*
X912815Y-358352D01*
X913662Y-360469D01*
X913662Y-362586D01*
X912815Y-364702D01*
X911122Y-365761D01*
X912815Y-366819D01*
X913662Y-368936D01*
X913662Y-371052D01*
X912815Y-373169D01*
X911122Y-374228D01*
X909429Y-374228D01*
X907735Y-373169D01*
X906889Y-371052D01*
G54D12*
X571418Y-242172D02*
X571418Y-242172D01*
G54D12*
X590918Y-242172D02*
X590918Y-242172D01*
G54D10*
G75*
G01X619990Y-252943D02*
G03X619990Y-293354I-20205J-20206D01*
G01*
G54D10*
X620491Y-293188D02*
X620491Y-253500D01*
G54D19*
G75*
G01X610967Y-272550D02*
G03X610967Y-272550I-12700J0D01*
G01*
G54D16*
X598266Y-285250D02*
X598266Y-259850D01*
G54D17*
X812062Y-479796D02*
X811215Y-481913D01*
X809522Y-482971D01*
X807829Y-482971D01*
X806135Y-481913D01*
X805289Y-479796D01*
X805289Y-469213D01*
X806135Y-467096D01*
X807829Y-466038D01*
X809522Y-466038D01*
X811215Y-467096D01*
X812062Y-469213D01*
G54D17*
X824762Y-482971D02*
X817989Y-482971D01*
X817989Y-481913D01*
X818835Y-479796D01*
X823915Y-473446D01*
X824762Y-471330D01*
X824762Y-469213D01*
X823915Y-467096D01*
X822222Y-466038D01*
X820529Y-466038D01*
X818835Y-467096D01*
X817989Y-469213D01*
G54D17*
X837462Y-482971D02*
X830689Y-482971D01*
X830689Y-481913D01*
X831535Y-479796D01*
X836615Y-473446D01*
X837462Y-471330D01*
X837462Y-469213D01*
X836615Y-467096D01*
X834922Y-466038D01*
X833229Y-466038D01*
X831535Y-467096D01*
X830689Y-469213D01*
G54D17*
X821376Y-510223D02*
X823916Y-512340D01*
X824762Y-514457D01*
X824762Y-518690D01*
G54D17*
X817989Y-518690D02*
X817989Y-501757D01*
X822222Y-501757D01*
X823916Y-502815D01*
X824762Y-504932D01*
X824762Y-507048D01*
X823916Y-509165D01*
X822222Y-510223D01*
X817989Y-510223D01*
G54D17*
X830689Y-501757D02*
X837462Y-501757D01*
X836615Y-503873D01*
X834922Y-507048D01*
X833229Y-511282D01*
X832382Y-514457D01*
X832382Y-518690D01*
G54D17*
X920012Y-433759D02*
X919165Y-435876D01*
X917472Y-436934D01*
X915779Y-436934D01*
X914085Y-435876D01*
X913239Y-433759D01*
X913239Y-423176D01*
X914085Y-421059D01*
X915779Y-420000D01*
X917472Y-420000D01*
X919165Y-421059D01*
X920012Y-423176D01*
G54D17*
X925939Y-423176D02*
X926785Y-421059D01*
X928479Y-420000D01*
X930172Y-420000D01*
X931865Y-421059D01*
X932712Y-423176D01*
X932712Y-425292D01*
X931865Y-427409D01*
X930172Y-428467D01*
X931865Y-429526D01*
X932712Y-431642D01*
X932712Y-433759D01*
X931865Y-435876D01*
X930172Y-436934D01*
X928479Y-436934D01*
X926785Y-435876D01*
X925939Y-433759D01*
G54D17*
X945412Y-423176D02*
X945412Y-433759D01*
X944565Y-435876D01*
X942872Y-436934D01*
X941179Y-436934D01*
X939485Y-435876D01*
X938639Y-433759D01*
X938639Y-423176D01*
X939485Y-421059D01*
X941179Y-420000D01*
X942872Y-420000D01*
X944565Y-421059D01*
X945412Y-423176D01*
G54D17*
X873975Y-515515D02*
X873128Y-517632D01*
X871435Y-518690D01*
X869741Y-518690D01*
X868048Y-517632D01*
X867201Y-515515D01*
X867201Y-504932D01*
X868048Y-502815D01*
X869741Y-501757D01*
X871435Y-501757D01*
X873128Y-502815D01*
X873975Y-504932D01*
G54D17*
X886675Y-518690D02*
X879901Y-518690D01*
X879901Y-517632D01*
X880748Y-515515D01*
X885828Y-509165D01*
X886675Y-507048D01*
X886675Y-504932D01*
X885828Y-502815D01*
X884135Y-501757D01*
X882441Y-501757D01*
X880748Y-502815D01*
X879901Y-504932D01*
G54D17*
X892601Y-515515D02*
X893448Y-517632D01*
X895141Y-518690D01*
X896835Y-518690D01*
X898528Y-517632D01*
X899375Y-515515D01*
X899375Y-510223D01*
X899375Y-509165D01*
X896835Y-511282D01*
X895141Y-511282D01*
X893448Y-510223D01*
X892601Y-508107D01*
X892601Y-504932D01*
X893448Y-502815D01*
X895141Y-501757D01*
X896835Y-501757D01*
X898528Y-502815D01*
X899375Y-504932D01*
X899375Y-510223D01*
G54D17*
X784863Y-594361D02*
X787403Y-596478D01*
X788250Y-598594D01*
X788250Y-602828D01*
G54D17*
X781476Y-602828D02*
X781476Y-585894D01*
X785710Y-585894D01*
X787403Y-586952D01*
X788250Y-589069D01*
X788250Y-591186D01*
X787403Y-593302D01*
X785710Y-594361D01*
X781476Y-594361D01*
G54D17*
X800950Y-589069D02*
X800103Y-586952D01*
X798410Y-585894D01*
X796716Y-585894D01*
X795023Y-586952D01*
X794176Y-589069D01*
X794176Y-594361D01*
X794176Y-595419D01*
X796716Y-593302D01*
X798410Y-593302D01*
X800103Y-594361D01*
X800950Y-596478D01*
X800950Y-599652D01*
X800103Y-601769D01*
X798410Y-602828D01*
X796716Y-602828D01*
X795023Y-601769D01*
X794176Y-599652D01*
X794176Y-594361D01*
G54D17*
X959276Y-558378D02*
X959276Y-541444D01*
X963510Y-541444D01*
X965203Y-542502D01*
X966050Y-544619D01*
X966050Y-555202D01*
X965203Y-557319D01*
X963510Y-558378D01*
X959276Y-558378D01*
G54D17*
X978750Y-544619D02*
X977903Y-542502D01*
X976210Y-541444D01*
X974516Y-541444D01*
X972823Y-542502D01*
X971976Y-544619D01*
X971976Y-549911D01*
X971976Y-550969D01*
X974516Y-548852D01*
X976210Y-548852D01*
X977903Y-549911D01*
X978750Y-552028D01*
X978750Y-555202D01*
X977903Y-557319D01*
X976210Y-558378D01*
X974516Y-558378D01*
X972823Y-557319D01*
X971976Y-555202D01*
X971976Y-549911D01*
G54D17*
X959276Y-594890D02*
X959276Y-577957D01*
X963510Y-577957D01*
X965203Y-579015D01*
X966050Y-581132D01*
X966050Y-591715D01*
X965203Y-593832D01*
X963510Y-594890D01*
X959276Y-594890D01*
G54D17*
X978750Y-577957D02*
X971976Y-577957D01*
X971976Y-585365D01*
X972823Y-585365D01*
X974516Y-584307D01*
X976210Y-584307D01*
X977903Y-585365D01*
X978750Y-587482D01*
X978750Y-591715D01*
X977903Y-593832D01*
X976210Y-594890D01*
X974516Y-594890D01*
X972823Y-593832D01*
X971976Y-591715D01*
G54D17*
X881700Y-657861D02*
X884240Y-659978D01*
X885087Y-662094D01*
X885087Y-666328D01*
G54D17*
X878314Y-666328D02*
X878314Y-649394D01*
X882547Y-649394D01*
X884240Y-650452D01*
X885087Y-652569D01*
X885087Y-654686D01*
X884240Y-656802D01*
X882547Y-657861D01*
X878314Y-657861D01*
G54D17*
X897787Y-649394D02*
X891014Y-649394D01*
X891014Y-656802D01*
X891860Y-656802D01*
X893554Y-655744D01*
X895247Y-655744D01*
X896940Y-656802D01*
X897787Y-658919D01*
X897787Y-663152D01*
X896940Y-665269D01*
X895247Y-666328D01*
X893554Y-666328D01*
X891860Y-665269D01*
X891014Y-663152D01*
G54D17*
X909810Y-657861D02*
X911503Y-656802D01*
X913535Y-656802D01*
X914890Y-658919D01*
X914890Y-666328D01*
G54D17*
X914890Y-663152D02*
X914043Y-661036D01*
X912350Y-660612D01*
X910656Y-661036D01*
X909810Y-663152D01*
X910148Y-665269D01*
X911503Y-666328D01*
X912350Y-666328D01*
X912688Y-666328D01*
X914043Y-665269D01*
X914890Y-663152D01*
G54D17*
X920817Y-658919D02*
X927590Y-658919D01*
G54D17*
X938597Y-666328D02*
X938597Y-649394D01*
G54D17*
X938597Y-659554D02*
X937750Y-657438D01*
X936057Y-656802D01*
X934363Y-657438D01*
X933517Y-659554D01*
X933517Y-663788D01*
X934363Y-665904D01*
X936057Y-666328D01*
X937750Y-665904D01*
X938597Y-663788D01*
G54D17*
X694164Y-381107D02*
X694164Y-394865D01*
X695010Y-396982D01*
X696704Y-398040D01*
X698397Y-398040D01*
X700090Y-396982D01*
X700937Y-394865D01*
X700937Y-381107D01*
G54D17*
X711944Y-398040D02*
X711944Y-381107D01*
X706864Y-391690D01*
X706864Y-393807D01*
X713637Y-393807D01*
G54D17*
X577906Y-636959D02*
X577059Y-639076D01*
X575366Y-640134D01*
X573672Y-640134D01*
X571979Y-639076D01*
X571132Y-636959D01*
X571132Y-626376D01*
X571979Y-624259D01*
X573672Y-623200D01*
X575366Y-623200D01*
X577059Y-624259D01*
X577906Y-626376D01*
G54D17*
X583832Y-626376D02*
X584679Y-624259D01*
X586372Y-623200D01*
X588066Y-623200D01*
X589759Y-624259D01*
X590606Y-626376D01*
X590606Y-628492D01*
X589759Y-630609D01*
X588066Y-631667D01*
X589759Y-632726D01*
X590606Y-634842D01*
X590606Y-636959D01*
X589759Y-639076D01*
X588066Y-640134D01*
X586372Y-640134D01*
X584679Y-639076D01*
X583832Y-636959D01*
G54D17*
X596532Y-629550D02*
X600766Y-623200D01*
X600766Y-640134D01*
G54D17*
X705700Y-494878D02*
X704853Y-496994D01*
X703160Y-498052D01*
X701466Y-498052D01*
X699773Y-496994D01*
X698926Y-494878D01*
X698926Y-484294D01*
X699773Y-482178D01*
X701466Y-481119D01*
X703160Y-481119D01*
X704853Y-482178D01*
X705700Y-484294D01*
G54D17*
X711626Y-484294D02*
X712473Y-482178D01*
X714166Y-481119D01*
X715860Y-481119D01*
X717553Y-482178D01*
X718400Y-484294D01*
X718400Y-486411D01*
X717553Y-488528D01*
X715860Y-489586D01*
X717553Y-490644D01*
X718400Y-492761D01*
X718400Y-494878D01*
X717553Y-496994D01*
X715860Y-498052D01*
X714166Y-498052D01*
X712473Y-496994D01*
X711626Y-494878D01*
G54D17*
X724326Y-484294D02*
X725173Y-482178D01*
X726866Y-481119D01*
X728560Y-481119D01*
X730253Y-482178D01*
X731100Y-484294D01*
X731100Y-486411D01*
X730253Y-488528D01*
X728560Y-489586D01*
X730253Y-490644D01*
X731100Y-492761D01*
X731100Y-494878D01*
X730253Y-496994D01*
X728560Y-498052D01*
X726866Y-498052D01*
X725173Y-496994D01*
X724326Y-494878D01*
G54D17*
X526312Y-432965D02*
X525465Y-435082D01*
X523772Y-436140D01*
X522079Y-436140D01*
X520385Y-435082D01*
X519539Y-432965D01*
X519539Y-422382D01*
X520385Y-420265D01*
X522079Y-419207D01*
X523772Y-419207D01*
X525465Y-420265D01*
X526312Y-422382D01*
G54D17*
X532239Y-422382D02*
X533085Y-420265D01*
X534779Y-419207D01*
X536472Y-419207D01*
X538165Y-420265D01*
X539012Y-422382D01*
X539012Y-424498D01*
X538165Y-426615D01*
X536472Y-427673D01*
X538165Y-428732D01*
X539012Y-430848D01*
X539012Y-432965D01*
X538165Y-435082D01*
X536472Y-436140D01*
X534779Y-436140D01*
X533085Y-435082D01*
X532239Y-432965D01*
G54D17*
X544939Y-419207D02*
X551712Y-419207D01*
X550865Y-421323D01*
X549172Y-424498D01*
X547479Y-428732D01*
X546632Y-431907D01*
X546632Y-436140D01*
G54D17*
X526312Y-469478D02*
X525465Y-471594D01*
X523772Y-472652D01*
X522079Y-472652D01*
X520385Y-471594D01*
X519539Y-469478D01*
X519539Y-458894D01*
X520385Y-456778D01*
X522079Y-455719D01*
X523772Y-455719D01*
X525465Y-456778D01*
X526312Y-458894D01*
G54D17*
X532239Y-458894D02*
X533085Y-456778D01*
X534779Y-455719D01*
X536472Y-455719D01*
X538165Y-456778D01*
X539012Y-458894D01*
X539012Y-461011D01*
X538165Y-463128D01*
X536472Y-464186D01*
X538165Y-465244D01*
X539012Y-467361D01*
X539012Y-469478D01*
X538165Y-471594D01*
X536472Y-472652D01*
X534779Y-472652D01*
X533085Y-471594D01*
X532239Y-469478D01*
G54D17*
X549172Y-464186D02*
X547479Y-464186D01*
X545785Y-463128D01*
X544939Y-461011D01*
X544939Y-458894D01*
X545785Y-456778D01*
X547479Y-455719D01*
X549172Y-455719D01*
X550865Y-456778D01*
X551712Y-458894D01*
X551712Y-461011D01*
X550865Y-463128D01*
X549172Y-464186D01*
X550865Y-465244D01*
X551712Y-467361D01*
X551712Y-469478D01*
X550865Y-471594D01*
X549172Y-472652D01*
X547479Y-472652D01*
X545785Y-471594D01*
X544939Y-469478D01*
X544939Y-467361D01*
X545785Y-465244D01*
X547479Y-464186D01*
G54D17*
X766818Y-349621D02*
X765972Y-351738D01*
X764278Y-352796D01*
X762585Y-352796D01*
X760892Y-351738D01*
X760045Y-349621D01*
X760045Y-339038D01*
X760892Y-336921D01*
X762585Y-335863D01*
X764278Y-335863D01*
X765972Y-336921D01*
X766818Y-339038D01*
G54D17*
X772745Y-339038D02*
X773592Y-336921D01*
X775285Y-335863D01*
X776978Y-335863D01*
X778672Y-336921D01*
X779518Y-339038D01*
X779518Y-341155D01*
X778672Y-343271D01*
X776978Y-344330D01*
X778672Y-345388D01*
X779518Y-347505D01*
X779518Y-349621D01*
X778672Y-351738D01*
X776978Y-352796D01*
X775285Y-352796D01*
X773592Y-351738D01*
X772745Y-349621D01*
G54D17*
X790525Y-352796D02*
X790525Y-335863D01*
X785445Y-346446D01*
X785445Y-348563D01*
X792218Y-348563D01*
G54D17*
X623150Y-352002D02*
X622303Y-354119D01*
X620610Y-355178D01*
X618916Y-355178D01*
X617223Y-354119D01*
X616376Y-352002D01*
X616376Y-341419D01*
X617223Y-339302D01*
X618916Y-338244D01*
X620610Y-338244D01*
X622303Y-339302D01*
X623150Y-341419D01*
G54D17*
X629076Y-341419D02*
X629923Y-339302D01*
X631616Y-338244D01*
X633310Y-338244D01*
X635003Y-339302D01*
X635850Y-341419D01*
X635850Y-343536D01*
X635003Y-345652D01*
X633310Y-346711D01*
X635003Y-347769D01*
X635850Y-349886D01*
X635850Y-352002D01*
X635003Y-354119D01*
X633310Y-355178D01*
X631616Y-355178D01*
X629923Y-354119D01*
X629076Y-352002D01*
G54D17*
X648550Y-338244D02*
X641776Y-338244D01*
X641776Y-345652D01*
X642623Y-345652D01*
X644316Y-344594D01*
X646010Y-344594D01*
X647703Y-345652D01*
X648550Y-347769D01*
X648550Y-352002D01*
X647703Y-354119D01*
X646010Y-355178D01*
X644316Y-355178D01*
X642623Y-354119D01*
X641776Y-352002D01*
G54D17*
X359625Y-452015D02*
X358778Y-454132D01*
X357085Y-455190D01*
X355391Y-455190D01*
X353698Y-454132D01*
X352851Y-452015D01*
X352851Y-441432D01*
X353698Y-439315D01*
X355391Y-438257D01*
X357085Y-438257D01*
X358778Y-439315D01*
X359625Y-441432D01*
G54D17*
X365551Y-441432D02*
X366398Y-439315D01*
X368091Y-438257D01*
X369785Y-438257D01*
X371478Y-439315D01*
X372325Y-441432D01*
X372325Y-443548D01*
X371478Y-445665D01*
X369785Y-446723D01*
X371478Y-447782D01*
X372325Y-449898D01*
X372325Y-452015D01*
X371478Y-454132D01*
X369785Y-455190D01*
X368091Y-455190D01*
X366398Y-454132D01*
X365551Y-452015D01*
G54D17*
X385025Y-441432D02*
X384178Y-439315D01*
X382485Y-438257D01*
X380791Y-438257D01*
X379098Y-439315D01*
X378251Y-441432D01*
X378251Y-446723D01*
X378251Y-447782D01*
X380791Y-445665D01*
X382485Y-445665D01*
X384178Y-446723D01*
X385025Y-448840D01*
X385025Y-452015D01*
X384178Y-454132D01*
X382485Y-455190D01*
X380791Y-455190D01*
X379098Y-454132D01*
X378251Y-452015D01*
X378251Y-446723D01*
G54D17*
X243525Y-286915D02*
X247759Y-290090D01*
G54D17*
X246912Y-276332D02*
X246912Y-286915D01*
X246065Y-289032D01*
X244372Y-290090D01*
X242679Y-290090D01*
X240985Y-289032D01*
X240139Y-286915D01*
X240139Y-276332D01*
X240985Y-274215D01*
X242679Y-273157D01*
X244372Y-273157D01*
X246065Y-274215D01*
X246912Y-276332D01*
G54D17*
X253686Y-273157D02*
X260459Y-273157D01*
X259612Y-275273D01*
X257919Y-278448D01*
X256226Y-282682D01*
X255379Y-285857D01*
X255379Y-290090D01*
G54D17*
X266386Y-290090D02*
X270619Y-273157D01*
X274852Y-290090D01*
G54D17*
X268079Y-283740D02*
X273159Y-283740D01*
G54D17*
X594363Y-501228D02*
X598596Y-504402D01*
G54D17*
X597750Y-490644D02*
X597750Y-501228D01*
X596903Y-503344D01*
X595210Y-504402D01*
X593516Y-504402D01*
X591823Y-503344D01*
X590976Y-501228D01*
X590976Y-490644D01*
X591823Y-488528D01*
X593516Y-487469D01*
X595210Y-487469D01*
X596903Y-488528D01*
X597750Y-490644D01*
G54D17*
X611297Y-504402D02*
X604523Y-504402D01*
X604523Y-503344D01*
X605370Y-501228D01*
X610450Y-494878D01*
X611297Y-492761D01*
X611297Y-490644D01*
X610450Y-488528D01*
X608757Y-487469D01*
X607063Y-487469D01*
X605370Y-488528D01*
X604523Y-490644D01*
G54D17*
X692788Y-686965D02*
X697021Y-690140D01*
G54D17*
X696175Y-676382D02*
X696175Y-686965D01*
X695328Y-689082D01*
X693635Y-690140D01*
X691941Y-690140D01*
X690248Y-689082D01*
X689401Y-686965D01*
X689401Y-676382D01*
X690248Y-674265D01*
X691941Y-673207D01*
X693635Y-673207D01*
X695328Y-674265D01*
X696175Y-676382D01*
G54D17*
X702948Y-676382D02*
X703795Y-674265D01*
X705488Y-673207D01*
X707182Y-673207D01*
X708875Y-674265D01*
X709722Y-676382D01*
X709722Y-678498D01*
X708875Y-680615D01*
X707182Y-681673D01*
X708875Y-682732D01*
X709722Y-684848D01*
X709722Y-686965D01*
X708875Y-689082D01*
X707182Y-690140D01*
X705488Y-690140D01*
X703795Y-689082D01*
X702948Y-686965D01*
G54D17*
X614789Y-572665D02*
X614789Y-555732D01*
X619022Y-555732D01*
X620715Y-556790D01*
X621562Y-558907D01*
X621562Y-569490D01*
X620715Y-571607D01*
X619022Y-572665D01*
X614789Y-572665D01*
G54D17*
X627489Y-562082D02*
X631722Y-555732D01*
X631722Y-572665D01*
G54D17*
X690989Y-659978D02*
X690989Y-643044D01*
X695222Y-643044D01*
X696915Y-644102D01*
X697762Y-646219D01*
X697762Y-656802D01*
X696915Y-658919D01*
X695222Y-659978D01*
X690989Y-659978D01*
G54D17*
X703689Y-646219D02*
X704535Y-644102D01*
X706229Y-643044D01*
X707922Y-643044D01*
X709615Y-644102D01*
X710462Y-646219D01*
X710462Y-648336D01*
X709615Y-650452D01*
X707922Y-651511D01*
X709615Y-652569D01*
X710462Y-654686D01*
X710462Y-656802D01*
X709615Y-658919D01*
X707922Y-659978D01*
X706229Y-659978D01*
X704535Y-658919D01*
X703689Y-656802D01*
G54D17*
X748562Y-512340D02*
X747715Y-514457D01*
X746022Y-515515D01*
X744329Y-515515D01*
X742635Y-514457D01*
X741789Y-512340D01*
X741789Y-501757D01*
X742635Y-499640D01*
X744329Y-498582D01*
X746022Y-498582D01*
X747715Y-499640D01*
X748562Y-501757D01*
G54D17*
X761262Y-515515D02*
X754489Y-515515D01*
X754489Y-514457D01*
X755335Y-512340D01*
X760415Y-505990D01*
X761262Y-503873D01*
X761262Y-501757D01*
X760415Y-499640D01*
X758722Y-498582D01*
X757029Y-498582D01*
X755335Y-499640D01*
X754489Y-501757D01*
G54D17*
X771422Y-507048D02*
X769729Y-507048D01*
X768035Y-505990D01*
X767189Y-503873D01*
X767189Y-501757D01*
X768035Y-499640D01*
X769729Y-498582D01*
X771422Y-498582D01*
X773115Y-499640D01*
X773962Y-501757D01*
X773962Y-503873D01*
X773115Y-505990D01*
X771422Y-507048D01*
X773115Y-508107D01*
X773962Y-510223D01*
X773962Y-512340D01*
X773115Y-514457D01*
X771422Y-515515D01*
X769729Y-515515D01*
X768035Y-514457D01*
X767189Y-512340D01*
X767189Y-510223D01*
X768035Y-508107D01*
X769729Y-507048D01*
G54D17*
X756076Y-482178D02*
X756076Y-465244D01*
X760310Y-465244D01*
X762003Y-466302D01*
X762850Y-468419D01*
X762850Y-479002D01*
X762003Y-481119D01*
X760310Y-482178D01*
X756076Y-482178D01*
G54D17*
X775550Y-482178D02*
X768776Y-482178D01*
X768776Y-481119D01*
X769623Y-479002D01*
X774703Y-472652D01*
X775550Y-470536D01*
X775550Y-468419D01*
X774703Y-466302D01*
X773010Y-465244D01*
X771316Y-465244D01*
X769623Y-466302D01*
X768776Y-468419D01*
G54D10*
G75*
G01X970748Y-679448D02*
G03X970748Y-679448I-12700J0D01*
G01*
G54D10*
X958056Y-717550D02*
X958056Y-679450D01*
G54D12*
X937324Y-715345D02*
X937324Y-715345D01*
G54D12*
X937324Y-695845D02*
X937324Y-695845D01*
G54D14*
X967581Y-663575D02*
X948531Y-663575D01*
G54D17*
X919589Y-702840D02*
X919589Y-685907D01*
X923822Y-685907D01*
X925515Y-686965D01*
X926362Y-689082D01*
X926362Y-699665D01*
X925515Y-701782D01*
X923822Y-702840D01*
X919589Y-702840D01*
G54D17*
X937369Y-702840D02*
X937369Y-685907D01*
X932289Y-696490D01*
X932289Y-698607D01*
X939062Y-698607D01*
G54D17*
X922975Y-830898D02*
X925515Y-833015D01*
X926362Y-835132D01*
X926362Y-839365D01*
G54D17*
X919589Y-839365D02*
X919589Y-822432D01*
X923822Y-822432D01*
X925515Y-823490D01*
X926362Y-825607D01*
X926362Y-827723D01*
X925515Y-829840D01*
X923822Y-830898D01*
X919589Y-830898D01*
G54D17*
X932289Y-825607D02*
X933135Y-823490D01*
X934829Y-822432D01*
X936522Y-822432D01*
X938215Y-823490D01*
X939062Y-825607D01*
X939062Y-827723D01*
X938215Y-829840D01*
X936522Y-830898D01*
X938215Y-831957D01*
X939062Y-834073D01*
X939062Y-836190D01*
X938215Y-838307D01*
X936522Y-839365D01*
X934829Y-839365D01*
X933135Y-838307D01*
X932289Y-836190D01*
G54D17*
X814232Y-420530D02*
X816772Y-422646D01*
X817618Y-424763D01*
X817618Y-428996D01*
G54D17*
X810845Y-428996D02*
X810845Y-412063D01*
X815078Y-412063D01*
X816772Y-413121D01*
X817618Y-415238D01*
X817618Y-417354D01*
X816772Y-419471D01*
X815078Y-420530D01*
X810845Y-420530D01*
G54D17*
X830318Y-428996D02*
X823545Y-428996D01*
X823545Y-427938D01*
X824392Y-425821D01*
X829472Y-419471D01*
X830318Y-417354D01*
X830318Y-415238D01*
X829472Y-413121D01*
X827778Y-412063D01*
X826085Y-412063D01*
X824392Y-413121D01*
X823545Y-415238D01*
G54D17*
X843018Y-412063D02*
X836245Y-412063D01*
X836245Y-419471D01*
X837092Y-419471D01*
X838785Y-418413D01*
X840478Y-418413D01*
X842172Y-419471D01*
X843018Y-421588D01*
X843018Y-425821D01*
X842172Y-427938D01*
X840478Y-428996D01*
X838785Y-428996D01*
X837092Y-427938D01*
X836245Y-425821D01*
G54D17*
X711626Y-172615D02*
X711626Y-155682D01*
X715860Y-155682D01*
X717553Y-156740D01*
X718400Y-158857D01*
X718400Y-169440D01*
X717553Y-171557D01*
X715860Y-172615D01*
X711626Y-172615D01*
G54D17*
X724326Y-162032D02*
X728560Y-155682D01*
X728560Y-172615D01*
G54D17*
X734486Y-162032D02*
X738720Y-155682D01*
X738720Y-172615D01*
G54D17*
X653312Y-499640D02*
X652465Y-501757D01*
X650772Y-502815D01*
X649079Y-502815D01*
X647385Y-501757D01*
X646539Y-499640D01*
X646539Y-489057D01*
X647385Y-486940D01*
X649079Y-485882D01*
X650772Y-485882D01*
X652465Y-486940D01*
X653312Y-489057D01*
G54D17*
X666012Y-502815D02*
X659239Y-502815D01*
X659239Y-501757D01*
X660085Y-499640D01*
X665165Y-493290D01*
X666012Y-491173D01*
X666012Y-489057D01*
X665165Y-486940D01*
X663472Y-485882D01*
X661779Y-485882D01*
X660085Y-486940D01*
X659239Y-489057D01*
G54D17*
X678712Y-489057D02*
X678712Y-499640D01*
X677865Y-501757D01*
X676172Y-502815D01*
X674479Y-502815D01*
X672785Y-501757D01*
X671939Y-499640D01*
X671939Y-489057D01*
X672785Y-486940D01*
X674479Y-485882D01*
X676172Y-485882D01*
X677865Y-486940D01*
X678712Y-489057D01*
G54D17*
X739037Y-617115D02*
X738190Y-619232D01*
X736497Y-620290D01*
X734804Y-620290D01*
X733110Y-619232D01*
X732264Y-617115D01*
X732264Y-606532D01*
X733110Y-604415D01*
X734804Y-603357D01*
X736497Y-603357D01*
X738190Y-604415D01*
X739037Y-606532D01*
G54D17*
X751737Y-620290D02*
X744964Y-620290D01*
X744964Y-619232D01*
X745810Y-617115D01*
X750890Y-610765D01*
X751737Y-608648D01*
X751737Y-606532D01*
X750890Y-604415D01*
X749197Y-603357D01*
X747504Y-603357D01*
X745810Y-604415D01*
X744964Y-606532D01*
G54D17*
X757664Y-609707D02*
X761897Y-603357D01*
X761897Y-620290D01*
G54D17*
X448101Y-676382D02*
X448101Y-690140D01*
X448948Y-692257D01*
X450641Y-693315D01*
X452335Y-693315D01*
X454028Y-692257D01*
X454875Y-690140D01*
X454875Y-676382D01*
G54D17*
X467575Y-693315D02*
X460801Y-693315D01*
X460801Y-692257D01*
X461648Y-690140D01*
X466728Y-683790D01*
X467575Y-681673D01*
X467575Y-679557D01*
X466728Y-677440D01*
X465035Y-676382D01*
X463341Y-676382D01*
X461648Y-677440D01*
X460801Y-679557D01*
G54D17*
X459637Y-798090D02*
X458790Y-800207D01*
X457097Y-801265D01*
X455404Y-801265D01*
X453710Y-800207D01*
X452864Y-798090D01*
X452864Y-787507D01*
X453710Y-785390D01*
X455404Y-784332D01*
X457097Y-784332D01*
X458790Y-785390D01*
X459637Y-787507D01*
G54D17*
X465564Y-790682D02*
X469797Y-784332D01*
X469797Y-801265D01*
G54D17*
X482497Y-784332D02*
X475724Y-784332D01*
X475724Y-791740D01*
X476570Y-791740D01*
X478264Y-790682D01*
X479957Y-790682D01*
X481650Y-791740D01*
X482497Y-793857D01*
X482497Y-798090D01*
X481650Y-800207D01*
X479957Y-801265D01*
X478264Y-801265D01*
X476570Y-800207D01*
X475724Y-798090D01*
G54D17*
X535043Y-636959D02*
X534197Y-639076D01*
X532503Y-640134D01*
X530810Y-640134D01*
X529117Y-639076D01*
X528270Y-636959D01*
X528270Y-626376D01*
X529117Y-624259D01*
X530810Y-623200D01*
X532503Y-623200D01*
X534197Y-624259D01*
X535043Y-626376D01*
G54D17*
X540970Y-629550D02*
X545203Y-623200D01*
X545203Y-640134D01*
G54D17*
X551130Y-636959D02*
X551977Y-639076D01*
X553670Y-640134D01*
X555363Y-640134D01*
X557057Y-639076D01*
X557903Y-636959D01*
X557903Y-631667D01*
X557903Y-630609D01*
X555363Y-632726D01*
X553670Y-632726D01*
X551977Y-631667D01*
X551130Y-629550D01*
X551130Y-626376D01*
X551977Y-624259D01*
X553670Y-623200D01*
X555363Y-623200D01*
X557057Y-624259D01*
X557903Y-626376D01*
X557903Y-631667D01*
G54D17*
X500912Y-625052D02*
X500065Y-627169D01*
X498372Y-628228D01*
X496679Y-628228D01*
X494985Y-627169D01*
X494139Y-625052D01*
X494139Y-614469D01*
X494985Y-612352D01*
X496679Y-611294D01*
X498372Y-611294D01*
X500065Y-612352D01*
X500912Y-614469D01*
G54D17*
X506839Y-617644D02*
X511072Y-611294D01*
X511072Y-628228D01*
G54D17*
X516999Y-611294D02*
X523772Y-611294D01*
X522925Y-613411D01*
X521232Y-616586D01*
X519539Y-620819D01*
X518692Y-623994D01*
X518692Y-628228D01*
G54D17*
X402487Y-523452D02*
X401640Y-525569D01*
X399947Y-526628D01*
X398254Y-526628D01*
X396560Y-525569D01*
X395714Y-523452D01*
X395714Y-512869D01*
X396560Y-510752D01*
X398254Y-509694D01*
X399947Y-509694D01*
X401640Y-510752D01*
X402487Y-512869D01*
G54D17*
X408414Y-516044D02*
X412647Y-509694D01*
X412647Y-526628D01*
G54D17*
X422807Y-518161D02*
X421114Y-518161D01*
X419420Y-517102D01*
X418574Y-514986D01*
X418574Y-512869D01*
X419420Y-510752D01*
X421114Y-509694D01*
X422807Y-509694D01*
X424500Y-510752D01*
X425347Y-512869D01*
X425347Y-514986D01*
X424500Y-517102D01*
X422807Y-518161D01*
X424500Y-519219D01*
X425347Y-521336D01*
X425347Y-523452D01*
X424500Y-525569D01*
X422807Y-526628D01*
X421114Y-526628D01*
X419420Y-525569D01*
X418574Y-523452D01*
X418574Y-521336D01*
X419420Y-519219D01*
X421114Y-518161D01*
G54D17*
X471914Y-538269D02*
X480380Y-555202D01*
G54D17*
X471914Y-555202D02*
X480380Y-538269D01*
G54D17*
X493081Y-538269D02*
X486308Y-538269D01*
X486308Y-545678D01*
X487154Y-545678D01*
X488848Y-544619D01*
X490541Y-544619D01*
X492234Y-545678D01*
X493081Y-547794D01*
X493081Y-552028D01*
X492234Y-554144D01*
X490541Y-555202D01*
X488848Y-555202D01*
X487154Y-554144D01*
X486308Y-552028D01*
G54D17*
X341368Y-741734D02*
X340522Y-743850D01*
X338828Y-744909D01*
X337135Y-744909D01*
X335442Y-743850D01*
X334595Y-741734D01*
X334595Y-731150D01*
X335442Y-729034D01*
X337135Y-727976D01*
X338828Y-727976D01*
X340522Y-729034D01*
X341368Y-731150D01*
G54D17*
X347295Y-734326D02*
X351528Y-727976D01*
X351528Y-744909D01*
G54D17*
X362535Y-744909D02*
X362535Y-727976D01*
X357455Y-738559D01*
X357455Y-740676D01*
X364228Y-740676D01*
G54D17*
X90914Y-741469D02*
X90914Y-755228D01*
X91760Y-757344D01*
X93454Y-758402D01*
X95147Y-758402D01*
X96840Y-757344D01*
X97687Y-755228D01*
X97687Y-741469D01*
G54D17*
X103614Y-747819D02*
X107847Y-741469D01*
X107847Y-758402D01*
G54D17*
X28175Y-829840D02*
X27328Y-831957D01*
X25635Y-833015D01*
X23942Y-833015D01*
X22248Y-831957D01*
X21402Y-829840D01*
X21402Y-819257D01*
X22248Y-817140D01*
X23942Y-816082D01*
X25635Y-816082D01*
X27328Y-817140D01*
X28175Y-819257D01*
G54D17*
X39182Y-833015D02*
X39182Y-816082D01*
X34102Y-826665D01*
X34102Y-828782D01*
X40875Y-828782D01*
G54D18*
X185347Y-804228D02*
X188733Y-799148D01*
X188733Y-812694D01*
G54D18*
X224103Y-823807D02*
X218684Y-823807D01*
X218684Y-822960D01*
X219362Y-821267D01*
X223426Y-816187D01*
X224103Y-814494D01*
X224103Y-812800D01*
X223426Y-811107D01*
X222071Y-810260D01*
X220716Y-810260D01*
X219362Y-811107D01*
X218684Y-812800D01*
G54D17*
X234550Y-896515D02*
X233703Y-898632D01*
X232010Y-899690D01*
X230317Y-899690D01*
X228623Y-898632D01*
X227777Y-896515D01*
X227777Y-885932D01*
X228623Y-883815D01*
X230317Y-882757D01*
X232010Y-882757D01*
X233703Y-883815D01*
X234550Y-885932D01*
G54D17*
X247250Y-899690D02*
X240477Y-899690D01*
X240477Y-898632D01*
X241323Y-896515D01*
X246403Y-890165D01*
X247250Y-888048D01*
X247250Y-885932D01*
X246403Y-883815D01*
X244710Y-882757D01*
X243017Y-882757D01*
X241323Y-883815D01*
X240477Y-885932D01*
G54D17*
X28175Y-869528D02*
X27328Y-871644D01*
X25635Y-872702D01*
X23942Y-872702D01*
X22248Y-871644D01*
X21402Y-869528D01*
X21402Y-858944D01*
X22248Y-856828D01*
X23942Y-855769D01*
X25635Y-855769D01*
X27328Y-856828D01*
X28175Y-858944D01*
G54D17*
X40875Y-855769D02*
X34102Y-855769D01*
X34102Y-863178D01*
X34948Y-863178D01*
X36642Y-862119D01*
X38335Y-862119D01*
X40028Y-863178D01*
X40875Y-865294D01*
X40875Y-869528D01*
X40028Y-871644D01*
X38335Y-872702D01*
X36642Y-872702D01*
X34948Y-871644D01*
X34102Y-869528D01*
G54D18*
X183759Y-871538D02*
X184437Y-869844D01*
X185791Y-868998D01*
X187146Y-868998D01*
X188501Y-869844D01*
X189178Y-871538D01*
X189178Y-873231D01*
X188501Y-874924D01*
X187146Y-875771D01*
X188501Y-876618D01*
X189178Y-878311D01*
X189178Y-880004D01*
X188501Y-881698D01*
X187146Y-882544D01*
X185791Y-882544D01*
X184437Y-881698D01*
X183759Y-880004D01*
G54D18*
X160836Y-857144D02*
X160836Y-843598D01*
X156772Y-852064D01*
X156772Y-853758D01*
X162190Y-853758D01*
G54D17*
X187963Y-848890D02*
X187963Y-831957D01*
G54D17*
X184576Y-831957D02*
X191350Y-831957D01*
G54D17*
X204050Y-848890D02*
X197276Y-848890D01*
X197276Y-847832D01*
X198123Y-845715D01*
X203203Y-839365D01*
X204050Y-837248D01*
X204050Y-835132D01*
X203203Y-833015D01*
X201510Y-831957D01*
X199816Y-831957D01*
X198123Y-833015D01*
X197276Y-835132D01*
G54D18*
X209159Y-757397D02*
X212546Y-752317D01*
X212546Y-765863D01*
G54D18*
X187590Y-750782D02*
X182172Y-750782D01*
X182172Y-749935D01*
X182849Y-748242D01*
X186913Y-743162D01*
X187590Y-741469D01*
X187590Y-739775D01*
X186913Y-738082D01*
X185558Y-737235D01*
X184204Y-737235D01*
X182849Y-738082D01*
X182172Y-739775D01*
G54D18*
X185347Y-692150D02*
X186024Y-690457D01*
X187379Y-689610D01*
X188733Y-689610D01*
X190088Y-690457D01*
X190765Y-692150D01*
X190765Y-693844D01*
X190088Y-695537D01*
X188733Y-696384D01*
X190088Y-697230D01*
X190765Y-698924D01*
X190765Y-700617D01*
X190088Y-702310D01*
X188733Y-703157D01*
X187379Y-703157D01*
X186024Y-702310D01*
X185347Y-700617D01*
G54D18*
X237036Y-701570D02*
X237036Y-688023D01*
X232972Y-696490D01*
X232972Y-698183D01*
X238390Y-698183D01*
G54D17*
X40114Y-611294D02*
X40114Y-628228D01*
X46040Y-628228D01*
G54D17*
X51968Y-617644D02*
X56201Y-611294D01*
X56201Y-628228D01*
G54D17*
X22619Y-484559D02*
X21772Y-486676D01*
X20079Y-487734D01*
X18386Y-487734D01*
X16692Y-486676D01*
X15846Y-484559D01*
X15846Y-473976D01*
X16692Y-471859D01*
X18386Y-470800D01*
X20079Y-470800D01*
X21772Y-471859D01*
X22619Y-473976D01*
G54D17*
X28546Y-477150D02*
X32779Y-470800D01*
X32779Y-487734D01*
G54D17*
X23201Y-536152D02*
X27434Y-539328D01*
G54D17*
X26588Y-525569D02*
X26588Y-536152D01*
X25741Y-538269D01*
X24048Y-539328D01*
X22354Y-539328D01*
X20661Y-538269D01*
X19814Y-536152D01*
X19814Y-525569D01*
X20661Y-523452D01*
X22354Y-522394D01*
X24048Y-522394D01*
X25741Y-523452D01*
X26588Y-525569D01*
G54D17*
X33361Y-528744D02*
X37595Y-522394D01*
X37595Y-539328D01*
G54D17*
X120038Y-445136D02*
X122578Y-447252D01*
X123425Y-449369D01*
X123425Y-453602D01*
G54D17*
X116652Y-453602D02*
X116652Y-436669D01*
X120885Y-436669D01*
X122578Y-437728D01*
X123425Y-439844D01*
X123425Y-441961D01*
X122578Y-444078D01*
X120885Y-445136D01*
X116652Y-445136D01*
G54D17*
X129352Y-443019D02*
X133585Y-436669D01*
X133585Y-453602D01*
G54D17*
X123425Y-602828D02*
X122578Y-604944D01*
X120885Y-606002D01*
X119192Y-606002D01*
X117498Y-604944D01*
X116652Y-602828D01*
X116652Y-592244D01*
X117498Y-590128D01*
X119192Y-589069D01*
X120885Y-589069D01*
X122578Y-590128D01*
X123425Y-592244D01*
G54D17*
X129352Y-592244D02*
X130198Y-590128D01*
X131892Y-589069D01*
X133585Y-589069D01*
X135278Y-590128D01*
X136125Y-592244D01*
X136125Y-594361D01*
X135278Y-596478D01*
X133585Y-597536D01*
X135278Y-598594D01*
X136125Y-600711D01*
X136125Y-602828D01*
X135278Y-604944D01*
X133585Y-606002D01*
X131892Y-606002D01*
X130198Y-604944D01*
X129352Y-602828D01*
G54D17*
X66275Y-693315D02*
X65428Y-695432D01*
X63735Y-696490D01*
X62042Y-696490D01*
X60348Y-695432D01*
X59502Y-693315D01*
X59502Y-682732D01*
X60348Y-680615D01*
X62042Y-679557D01*
X63735Y-679557D01*
X65428Y-680615D01*
X66275Y-682732D01*
G54D17*
X76435Y-688023D02*
X74742Y-688023D01*
X73048Y-686965D01*
X72202Y-684848D01*
X72202Y-682732D01*
X73048Y-680615D01*
X74742Y-679557D01*
X76435Y-679557D01*
X78128Y-680615D01*
X78975Y-682732D01*
X78975Y-684848D01*
X78128Y-686965D01*
X76435Y-688023D01*
X78128Y-689082D01*
X78975Y-691198D01*
X78975Y-693315D01*
X78128Y-695432D01*
X76435Y-696490D01*
X74742Y-696490D01*
X73048Y-695432D01*
X72202Y-693315D01*
X72202Y-691198D01*
X73048Y-689082D01*
X74742Y-688023D01*
G54D17*
X169463Y-479002D02*
X168616Y-481119D01*
X166923Y-482178D01*
X165229Y-482178D01*
X163536Y-481119D01*
X162689Y-479002D01*
X162689Y-468419D01*
X163536Y-466302D01*
X165229Y-465244D01*
X166923Y-465244D01*
X168616Y-466302D01*
X169463Y-468419D01*
G54D17*
X175389Y-471594D02*
X179623Y-465244D01*
X179623Y-482178D01*
G54D17*
X192323Y-468419D02*
X192323Y-479002D01*
X191476Y-481119D01*
X189783Y-482178D01*
X188089Y-482178D01*
X186396Y-481119D01*
X185549Y-479002D01*
X185549Y-468419D01*
X186396Y-466302D01*
X188089Y-465244D01*
X189783Y-465244D01*
X191476Y-466302D01*
X192323Y-468419D01*
G54D17*
X304400Y-479002D02*
X303553Y-481119D01*
X301860Y-482178D01*
X300167Y-482178D01*
X298473Y-481119D01*
X297627Y-479002D01*
X297627Y-468419D01*
X298473Y-466302D01*
X300167Y-465244D01*
X301860Y-465244D01*
X303553Y-466302D01*
X304400Y-468419D01*
G54D17*
X310327Y-471594D02*
X314560Y-465244D01*
X314560Y-482178D01*
G54D17*
X320487Y-471594D02*
X324720Y-465244D01*
X324720Y-482178D01*
G54D17*
X269475Y-675852D02*
X268628Y-677969D01*
X266935Y-679028D01*
X265242Y-679028D01*
X263548Y-677969D01*
X262702Y-675852D01*
X262702Y-665269D01*
X263548Y-663152D01*
X265242Y-662094D01*
X266935Y-662094D01*
X268628Y-663152D01*
X269475Y-665269D01*
G54D17*
X275402Y-668444D02*
X279635Y-662094D01*
X279635Y-679028D01*
G54D17*
X292335Y-679028D02*
X285562Y-679028D01*
X285562Y-677969D01*
X286408Y-675852D01*
X291488Y-669502D01*
X292335Y-667386D01*
X292335Y-665269D01*
X291488Y-663152D01*
X289795Y-662094D01*
X288102Y-662094D01*
X286408Y-663152D01*
X285562Y-665269D01*
G54D17*
X253600Y-780628D02*
X252753Y-782744D01*
X251060Y-783802D01*
X249367Y-783802D01*
X247673Y-782744D01*
X246827Y-780628D01*
X246827Y-770044D01*
X247673Y-767928D01*
X249367Y-766869D01*
X251060Y-766869D01*
X252753Y-767928D01*
X253600Y-770044D01*
G54D17*
X266300Y-770044D02*
X265453Y-767928D01*
X263760Y-766869D01*
X262067Y-766869D01*
X260373Y-767928D01*
X259527Y-770044D01*
X259527Y-775336D01*
X259527Y-776394D01*
X262067Y-774278D01*
X263760Y-774278D01*
X265453Y-775336D01*
X266300Y-777452D01*
X266300Y-780628D01*
X265453Y-782744D01*
X263760Y-783802D01*
X262067Y-783802D01*
X260373Y-782744D01*
X259527Y-780628D01*
X259527Y-775336D01*
G54D17*
X393300Y-631402D02*
X392453Y-633519D01*
X390760Y-634578D01*
X389067Y-634578D01*
X387373Y-633519D01*
X386527Y-631402D01*
X386527Y-620819D01*
X387373Y-618702D01*
X389067Y-617644D01*
X390760Y-617644D01*
X392453Y-618702D01*
X393300Y-620819D01*
G54D17*
X399227Y-623994D02*
X403460Y-617644D01*
X403460Y-634578D01*
G54D17*
X409387Y-620819D02*
X410233Y-618702D01*
X411927Y-617644D01*
X413620Y-617644D01*
X415313Y-618702D01*
X416160Y-620819D01*
X416160Y-622936D01*
X415313Y-625052D01*
X413620Y-626111D01*
X415313Y-627169D01*
X416160Y-629286D01*
X416160Y-631402D01*
X415313Y-633519D01*
X413620Y-634578D01*
X411927Y-634578D01*
X410233Y-633519D01*
X409387Y-631402D01*
G54D17*
X405239Y-897044D02*
X405239Y-910802D01*
X406085Y-912919D01*
X407779Y-913978D01*
X409472Y-913978D01*
X411165Y-912919D01*
X412012Y-910802D01*
X412012Y-897044D01*
G54D17*
X424712Y-900219D02*
X423865Y-898102D01*
X422172Y-897044D01*
X420479Y-897044D01*
X418785Y-898102D01*
X417939Y-900219D01*
X417939Y-905511D01*
X417939Y-906569D01*
X420479Y-904452D01*
X422172Y-904452D01*
X423865Y-905511D01*
X424712Y-907628D01*
X424712Y-910802D01*
X423865Y-912919D01*
X422172Y-913978D01*
X420479Y-913978D01*
X418785Y-912919D01*
X417939Y-910802D01*
X417939Y-905511D01*
G54D17*
X327663Y-883286D02*
X330203Y-885402D01*
X331050Y-887519D01*
X331050Y-891752D01*
G54D17*
X324276Y-891752D02*
X324276Y-874819D01*
X328510Y-874819D01*
X330203Y-875878D01*
X331050Y-877994D01*
X331050Y-880111D01*
X330203Y-882228D01*
X328510Y-883286D01*
X324276Y-883286D01*
G54D17*
X336976Y-881169D02*
X341210Y-874819D01*
X341210Y-891752D01*
G54D17*
X353910Y-874819D02*
X347136Y-874819D01*
X347136Y-882228D01*
X347983Y-882228D01*
X349676Y-881169D01*
X351370Y-881169D01*
X353063Y-882228D01*
X353910Y-884344D01*
X353910Y-888578D01*
X353063Y-890694D01*
X351370Y-891752D01*
X349676Y-891752D01*
X347983Y-890694D01*
X347136Y-888578D01*
G54D17*
X340575Y-779834D02*
X339728Y-781950D01*
X338035Y-783009D01*
X336341Y-783009D01*
X334648Y-781950D01*
X333801Y-779834D01*
X333801Y-769250D01*
X334648Y-767134D01*
X336341Y-766076D01*
X338035Y-766076D01*
X339728Y-767134D01*
X340575Y-769250D01*
G54D17*
X346501Y-769250D02*
X347348Y-767134D01*
X349041Y-766076D01*
X350735Y-766076D01*
X352428Y-767134D01*
X353275Y-769250D01*
X353275Y-771367D01*
X352428Y-773484D01*
X350735Y-774542D01*
X352428Y-775600D01*
X353275Y-777717D01*
X353275Y-779834D01*
X352428Y-781950D01*
X350735Y-783009D01*
X349041Y-783009D01*
X347348Y-781950D01*
X346501Y-779834D01*
G54D17*
X365975Y-783009D02*
X359201Y-783009D01*
X359201Y-781950D01*
X360048Y-779834D01*
X365128Y-773484D01*
X365975Y-771367D01*
X365975Y-769250D01*
X365128Y-767134D01*
X363435Y-766076D01*
X361741Y-766076D01*
X360048Y-767134D01*
X359201Y-769250D01*
G54D17*
X346925Y-845715D02*
X346078Y-847832D01*
X344385Y-848890D01*
X342691Y-848890D01*
X340998Y-847832D01*
X340151Y-845715D01*
X340151Y-835132D01*
X340998Y-833015D01*
X342691Y-831957D01*
X344385Y-831957D01*
X346078Y-833015D01*
X346925Y-835132D01*
G54D17*
X352851Y-831957D02*
X359625Y-831957D01*
X358778Y-834073D01*
X357085Y-837248D01*
X355391Y-841482D01*
X354545Y-844657D01*
X354545Y-848890D01*
G54D17*
X410213Y-846773D02*
X412753Y-848890D01*
X413600Y-851007D01*
X413600Y-855240D01*
G54D17*
X406826Y-855240D02*
X406826Y-838307D01*
X411060Y-838307D01*
X412753Y-839365D01*
X413600Y-841482D01*
X413600Y-843598D01*
X412753Y-845715D01*
X411060Y-846773D01*
X406826Y-846773D01*
G54D17*
X426300Y-855240D02*
X419526Y-855240D01*
X419526Y-854182D01*
X420373Y-852065D01*
X425453Y-845715D01*
X426300Y-843598D01*
X426300Y-841482D01*
X425453Y-839365D01*
X423760Y-838307D01*
X422066Y-838307D01*
X420373Y-839365D01*
X419526Y-841482D01*
G54D17*
X432226Y-841482D02*
X433073Y-839365D01*
X434766Y-838307D01*
X436460Y-838307D01*
X438153Y-839365D01*
X439000Y-841482D01*
X439000Y-843598D01*
X438153Y-845715D01*
X436460Y-846773D01*
X438153Y-847832D01*
X439000Y-849948D01*
X439000Y-852065D01*
X438153Y-854182D01*
X436460Y-855240D01*
X434766Y-855240D01*
X433073Y-854182D01*
X432226Y-852065D01*
G54D17*
X507050Y-765810D02*
X509590Y-767927D01*
X510437Y-770044D01*
X510437Y-774277D01*
G54D17*
X503663Y-774277D02*
X503663Y-757344D01*
X507897Y-757344D01*
X509590Y-758402D01*
X510437Y-760519D01*
X510437Y-762635D01*
X509590Y-764752D01*
X507897Y-765810D01*
X503663Y-765810D01*
G54D17*
X516363Y-774277D02*
X516363Y-757344D01*
X522290Y-757344D01*
G54D17*
X516363Y-765810D02*
X522290Y-765810D01*
G54D17*
X534991Y-771102D02*
X534144Y-773219D01*
X532451Y-774277D01*
X530757Y-774277D01*
X529064Y-773219D01*
X528217Y-771102D01*
X528217Y-760519D01*
X529064Y-758402D01*
X530757Y-757344D01*
X532451Y-757344D01*
X534144Y-758402D01*
X534991Y-760519D01*
G54D17*
X547691Y-774277D02*
X540917Y-774277D01*
X540917Y-773219D01*
X541764Y-771102D01*
X546844Y-764752D01*
X547691Y-762635D01*
X547691Y-760519D01*
X546844Y-758402D01*
X545151Y-757344D01*
X543457Y-757344D01*
X541764Y-758402D01*
X540917Y-760519D01*
G54D17*
X564412Y-798090D02*
X563565Y-800207D01*
X561872Y-801265D01*
X560179Y-801265D01*
X558485Y-800207D01*
X557639Y-798090D01*
X557639Y-787507D01*
X558485Y-785390D01*
X560179Y-784332D01*
X561872Y-784332D01*
X563565Y-785390D01*
X564412Y-787507D01*
G54D17*
X577112Y-784332D02*
X570339Y-784332D01*
X570339Y-791740D01*
X571185Y-791740D01*
X572879Y-790682D01*
X574572Y-790682D01*
X576265Y-791740D01*
X577112Y-793857D01*
X577112Y-798090D01*
X576265Y-800207D01*
X574572Y-801265D01*
X572879Y-801265D01*
X571185Y-800207D01*
X570339Y-798090D01*
G54D17*
X589812Y-801265D02*
X583039Y-801265D01*
X583039Y-800207D01*
X583885Y-798090D01*
X588965Y-791740D01*
X589812Y-789623D01*
X589812Y-787507D01*
X588965Y-785390D01*
X587272Y-784332D01*
X585579Y-784332D01*
X583885Y-785390D01*
X583039Y-787507D01*
G54D17*
X613625Y-726652D02*
X612778Y-728769D01*
X611085Y-729828D01*
X609391Y-729828D01*
X607698Y-728769D01*
X606851Y-726652D01*
X606851Y-716069D01*
X607698Y-713952D01*
X609391Y-712894D01*
X611085Y-712894D01*
X612778Y-713952D01*
X613625Y-716069D01*
G54D17*
X626325Y-712894D02*
X619551Y-712894D01*
X619551Y-720302D01*
X620398Y-720302D01*
X622091Y-719244D01*
X623785Y-719244D01*
X625478Y-720302D01*
X626325Y-722419D01*
X626325Y-726652D01*
X625478Y-728769D01*
X623785Y-729828D01*
X622091Y-729828D01*
X620398Y-728769D01*
X619551Y-726652D01*
G54D17*
X632251Y-716069D02*
X633098Y-713952D01*
X634791Y-712894D01*
X636485Y-712894D01*
X638178Y-713952D01*
X639025Y-716069D01*
X639025Y-718186D01*
X638178Y-720302D01*
X636485Y-721361D01*
X638178Y-722419D01*
X639025Y-724536D01*
X639025Y-726652D01*
X638178Y-728769D01*
X636485Y-729828D01*
X634791Y-729828D01*
X633098Y-728769D01*
X632251Y-726652D01*
G54D17*
X631087Y-872702D02*
X630240Y-874819D01*
X628547Y-875878D01*
X626854Y-875878D01*
X625160Y-874819D01*
X624314Y-872702D01*
X624314Y-862119D01*
X625160Y-860002D01*
X626854Y-858944D01*
X628547Y-858944D01*
X630240Y-860002D01*
X631087Y-862119D01*
G54D17*
X643787Y-858944D02*
X637014Y-858944D01*
X637014Y-866352D01*
X637860Y-866352D01*
X639554Y-865294D01*
X641247Y-865294D01*
X642940Y-866352D01*
X643787Y-868469D01*
X643787Y-872702D01*
X642940Y-874819D01*
X641247Y-875878D01*
X639554Y-875878D01*
X637860Y-874819D01*
X637014Y-872702D01*
G54D17*
X649714Y-865294D02*
X653947Y-858944D01*
X653947Y-875878D01*
G54D17*
X764014Y-894928D02*
X764014Y-877994D01*
X768247Y-877994D01*
X769940Y-879052D01*
X770787Y-881169D01*
X770787Y-891752D01*
X769940Y-893869D01*
X768247Y-894928D01*
X764014Y-894928D01*
G54D17*
X776714Y-891752D02*
X777560Y-893869D01*
X779254Y-894928D01*
X780947Y-894928D01*
X782640Y-893869D01*
X783487Y-891752D01*
X783487Y-886461D01*
X783487Y-885402D01*
X780947Y-887519D01*
X779254Y-887519D01*
X777560Y-886461D01*
X776714Y-884344D01*
X776714Y-881169D01*
X777560Y-879052D01*
X779254Y-877994D01*
X780947Y-877994D01*
X782640Y-879052D01*
X783487Y-881169D01*
X783487Y-886461D01*
G54D17*
X730094Y-973773D02*
X732634Y-975890D01*
X733481Y-978007D01*
X733481Y-982240D01*
G54D17*
X726708Y-982240D02*
X726708Y-965307D01*
X730941Y-965307D01*
X732634Y-966365D01*
X733481Y-968482D01*
X733481Y-970598D01*
X732634Y-972715D01*
X730941Y-973773D01*
X726708Y-973773D01*
G54D17*
X746181Y-982240D02*
X739408Y-982240D01*
X739408Y-981182D01*
X740254Y-979065D01*
X745334Y-972715D01*
X746181Y-970598D01*
X746181Y-968482D01*
X745334Y-966365D01*
X743641Y-965307D01*
X741948Y-965307D01*
X740254Y-966365D01*
X739408Y-968482D01*
G54D17*
X752108Y-971657D02*
X756341Y-965307D01*
X756341Y-982240D01*
G54D17*
X694587Y-885402D02*
X693740Y-887519D01*
X692047Y-888578D01*
X690354Y-888578D01*
X688660Y-887519D01*
X687814Y-885402D01*
X687814Y-874819D01*
X688660Y-872702D01*
X690354Y-871644D01*
X692047Y-871644D01*
X693740Y-872702D01*
X694587Y-874819D01*
G54D17*
X705594Y-888578D02*
X705594Y-871644D01*
X700514Y-882228D01*
X700514Y-884344D01*
X707287Y-884344D01*
G54D17*
X713214Y-885402D02*
X714060Y-887519D01*
X715754Y-888578D01*
X717447Y-888578D01*
X719140Y-887519D01*
X719987Y-885402D01*
X719987Y-880111D01*
X719987Y-879052D01*
X717447Y-881169D01*
X715754Y-881169D01*
X714060Y-880111D01*
X713214Y-877994D01*
X713214Y-874819D01*
X714060Y-872702D01*
X715754Y-871644D01*
X717447Y-871644D01*
X719140Y-872702D01*
X719987Y-874819D01*
X719987Y-880111D01*
G54D17*
X480063Y-969011D02*
X482603Y-971128D01*
X483450Y-973244D01*
X483450Y-977478D01*
G54D17*
X476676Y-977478D02*
X476676Y-960544D01*
X480910Y-960544D01*
X482603Y-961602D01*
X483450Y-963719D01*
X483450Y-965836D01*
X482603Y-967952D01*
X480910Y-969011D01*
X476676Y-969011D01*
G54D17*
X496150Y-977478D02*
X489376Y-977478D01*
X489376Y-976419D01*
X490223Y-974302D01*
X495303Y-967952D01*
X496150Y-965836D01*
X496150Y-963719D01*
X495303Y-961602D01*
X493610Y-960544D01*
X491916Y-960544D01*
X490223Y-961602D01*
X489376Y-963719D01*
G54D17*
X508850Y-963719D02*
X508850Y-974302D01*
X508003Y-976419D01*
X506310Y-977478D01*
X504616Y-977478D01*
X502923Y-976419D01*
X502076Y-974302D01*
X502076Y-963719D01*
X502923Y-961602D01*
X504616Y-960544D01*
X506310Y-960544D01*
X508003Y-961602D01*
X508850Y-963719D01*
G54D17*
X524513Y-969011D02*
X527053Y-971128D01*
X527900Y-973244D01*
X527900Y-977478D01*
G54D17*
X521126Y-977478D02*
X521126Y-960544D01*
X525360Y-960544D01*
X527053Y-961602D01*
X527900Y-963719D01*
X527900Y-965836D01*
X527053Y-967952D01*
X525360Y-969011D01*
X521126Y-969011D01*
G54D17*
X533826Y-966894D02*
X538060Y-960544D01*
X538060Y-977478D01*
G54D17*
X543986Y-974302D02*
X544833Y-976419D01*
X546526Y-977478D01*
X548220Y-977478D01*
X549913Y-976419D01*
X550760Y-974302D01*
X550760Y-969011D01*
X550760Y-967952D01*
X548220Y-970069D01*
X546526Y-970069D01*
X544833Y-969011D01*
X543986Y-966894D01*
X543986Y-963719D01*
X544833Y-961602D01*
X546526Y-960544D01*
X548220Y-960544D01*
X549913Y-961602D01*
X550760Y-963719D01*
X550760Y-969011D01*
G54D17*
X472337Y-852065D02*
X471490Y-854182D01*
X469797Y-855240D01*
X468104Y-855240D01*
X466410Y-854182D01*
X465564Y-852065D01*
X465564Y-841482D01*
X466410Y-839365D01*
X468104Y-838307D01*
X469797Y-838307D01*
X471490Y-839365D01*
X472337Y-841482D01*
G54D17*
X485037Y-838307D02*
X478264Y-838307D01*
X478264Y-845715D01*
X479110Y-845715D01*
X480804Y-844657D01*
X482497Y-844657D01*
X484190Y-845715D01*
X485037Y-847832D01*
X485037Y-852065D01*
X484190Y-854182D01*
X482497Y-855240D01*
X480804Y-855240D01*
X479110Y-854182D01*
X478264Y-852065D01*
G54D17*
X496044Y-855240D02*
X496044Y-838307D01*
X490964Y-848890D01*
X490964Y-851007D01*
X497737Y-851007D01*
G54D17*
X605264Y-977478D02*
X605264Y-960544D01*
X609497Y-960544D01*
X611190Y-961602D01*
X612037Y-963719D01*
X612037Y-974302D01*
X611190Y-976419D01*
X609497Y-977478D01*
X605264Y-977478D01*
G54D17*
X622197Y-969011D02*
X620504Y-969011D01*
X618810Y-967952D01*
X617964Y-965836D01*
X617964Y-963719D01*
X618810Y-961602D01*
X620504Y-960544D01*
X622197Y-960544D01*
X623890Y-961602D01*
X624737Y-963719D01*
X624737Y-965836D01*
X623890Y-967952D01*
X622197Y-969011D01*
X623890Y-970069D01*
X624737Y-972186D01*
X624737Y-974302D01*
X623890Y-976419D01*
X622197Y-977478D01*
X620504Y-977478D01*
X618810Y-976419D01*
X617964Y-974302D01*
X617964Y-972186D01*
X618810Y-970069D01*
X620504Y-969011D01*
G54D17*
X591188Y-874290D02*
X595421Y-877465D01*
G54D17*
X594575Y-863707D02*
X594575Y-874290D01*
X593728Y-876407D01*
X592035Y-877465D01*
X590341Y-877465D01*
X588648Y-876407D01*
X587801Y-874290D01*
X587801Y-863707D01*
X588648Y-861590D01*
X590341Y-860532D01*
X592035Y-860532D01*
X593728Y-861590D01*
X594575Y-863707D01*
G54D17*
X605582Y-868998D02*
X603888Y-868998D01*
X602195Y-867940D01*
X601348Y-865823D01*
X601348Y-863707D01*
X602195Y-861590D01*
X603888Y-860532D01*
X605582Y-860532D01*
X607275Y-861590D01*
X608122Y-863707D01*
X608122Y-865823D01*
X607275Y-867940D01*
X605582Y-868998D01*
X607275Y-870057D01*
X608122Y-872173D01*
X608122Y-874290D01*
X607275Y-876407D01*
X605582Y-877465D01*
X603888Y-877465D01*
X602195Y-876407D01*
X601348Y-874290D01*
X601348Y-872173D01*
X602195Y-870057D01*
X603888Y-868998D01*
G54D17*
X206801Y-592244D02*
X215268Y-609178D01*
G54D17*
X206801Y-609178D02*
X215268Y-592244D01*
G54D17*
X221195Y-598594D02*
X225429Y-592244D01*
X225429Y-609178D01*
G54D17*
X205214Y-538269D02*
X213680Y-555202D01*
G54D17*
X205214Y-555202D02*
X213680Y-538269D01*
G54D17*
X226381Y-555202D02*
X219608Y-555202D01*
X219608Y-554144D01*
X220454Y-552028D01*
X225534Y-545678D01*
X226381Y-543561D01*
X226381Y-541444D01*
X225534Y-539328D01*
X223841Y-538269D01*
X222148Y-538269D01*
X220454Y-539328D01*
X219608Y-541444D01*
G54D17*
X319514Y-538269D02*
X327980Y-555202D01*
G54D17*
X319514Y-555202D02*
X327980Y-538269D01*
G54D17*
X333908Y-541444D02*
X334754Y-539328D01*
X336448Y-538269D01*
X338141Y-538269D01*
X339834Y-539328D01*
X340681Y-541444D01*
X340681Y-543561D01*
X339834Y-545678D01*
X338141Y-546736D01*
X339834Y-547794D01*
X340681Y-549911D01*
X340681Y-552028D01*
X339834Y-554144D01*
X338141Y-555202D01*
X336448Y-555202D01*
X334754Y-554144D01*
X333908Y-552028D01*
G54D17*
X319514Y-592244D02*
X327980Y-609178D01*
G54D17*
X319514Y-609178D02*
X327980Y-592244D01*
G54D17*
X338988Y-609178D02*
X338988Y-592244D01*
X333908Y-602828D01*
X333908Y-604944D01*
X340681Y-604944D01*
G54D17*
X770787Y-863178D02*
X769940Y-865294D01*
X768247Y-866352D01*
X766554Y-866352D01*
X764860Y-865294D01*
X764014Y-863178D01*
X764014Y-852594D01*
X764860Y-850478D01*
X766554Y-849419D01*
X768247Y-849419D01*
X769940Y-850478D01*
X770787Y-852594D01*
G54D17*
X783487Y-849419D02*
X776714Y-849419D01*
X776714Y-856828D01*
X777560Y-856828D01*
X779254Y-855769D01*
X780947Y-855769D01*
X782640Y-856828D01*
X783487Y-858944D01*
X783487Y-863178D01*
X782640Y-865294D01*
X780947Y-866352D01*
X779254Y-866352D01*
X777560Y-865294D01*
X776714Y-863178D01*
G54D17*
X796187Y-852594D02*
X796187Y-863178D01*
X795340Y-865294D01*
X793647Y-866352D01*
X791954Y-866352D01*
X790260Y-865294D01*
X789414Y-863178D01*
X789414Y-852594D01*
X790260Y-850478D01*
X791954Y-849419D01*
X793647Y-849419D01*
X795340Y-850478D01*
X796187Y-852594D01*
G54D17*
X207013Y-731415D02*
X207013Y-714482D01*
G54D17*
X203626Y-714482D02*
X210400Y-714482D01*
G54D17*
X216326Y-717657D02*
X217173Y-715540D01*
X218866Y-714482D01*
X220560Y-714482D01*
X222253Y-715540D01*
X223100Y-717657D01*
X223100Y-719773D01*
X222253Y-721890D01*
X220560Y-722948D01*
X222253Y-724007D01*
X223100Y-726123D01*
X223100Y-728240D01*
X222253Y-730357D01*
X220560Y-731415D01*
X218866Y-731415D01*
X217173Y-730357D01*
X216326Y-728240D01*
G54D17*
X506839Y-355707D02*
X506839Y-372640D01*
X512765Y-372640D01*
G54D17*
X525466Y-358882D02*
X524619Y-356765D01*
X522926Y-355707D01*
X521233Y-355707D01*
X519539Y-356765D01*
X518693Y-358882D01*
X518693Y-364173D01*
X518693Y-365232D01*
X521233Y-363115D01*
X522926Y-363115D01*
X524619Y-364173D01*
X525466Y-366290D01*
X525466Y-369465D01*
X524619Y-371582D01*
X522926Y-372640D01*
X521233Y-372640D01*
X519539Y-371582D01*
X518693Y-369465D01*
X518693Y-364173D01*
G54D17*
X578700Y-237702D02*
X577853Y-239819D01*
X576160Y-240878D01*
X574466Y-240878D01*
X572773Y-239819D01*
X571926Y-237702D01*
X571926Y-227119D01*
X572773Y-225002D01*
X574466Y-223944D01*
X576160Y-223944D01*
X577853Y-225002D01*
X578700Y-227119D01*
G54D17*
X584626Y-227119D02*
X585473Y-225002D01*
X587166Y-223944D01*
X588860Y-223944D01*
X590553Y-225002D01*
X591400Y-227119D01*
X591400Y-229236D01*
X590553Y-231352D01*
X588860Y-232411D01*
X590553Y-233469D01*
X591400Y-235586D01*
X591400Y-237702D01*
X590553Y-239819D01*
X588860Y-240878D01*
X587166Y-240878D01*
X585473Y-239819D01*
X584626Y-237702D01*
G54D17*
X597326Y-237702D02*
X598173Y-239819D01*
X599866Y-240878D01*
X601560Y-240878D01*
X603253Y-239819D01*
X604100Y-237702D01*
X604100Y-232411D01*
X604100Y-231352D01*
X601560Y-233469D01*
X599866Y-233469D01*
X598173Y-232411D01*
X597326Y-230294D01*
X597326Y-227119D01*
X598173Y-225002D01*
X599866Y-223944D01*
X601560Y-223944D01*
X603253Y-225002D01*
X604100Y-227119D01*
X604100Y-232411D01*
G54D17*
X610238Y-370523D02*
X612778Y-372640D01*
X613625Y-374757D01*
X613625Y-378990D01*
G54D17*
X606851Y-378990D02*
X606851Y-362057D01*
X611085Y-362057D01*
X612778Y-363115D01*
X613625Y-365232D01*
X613625Y-367348D01*
X612778Y-369465D01*
X611085Y-370523D01*
X606851Y-370523D01*
G54D17*
X619551Y-368407D02*
X623785Y-362057D01*
X623785Y-378990D01*
G54D17*
X636485Y-365232D02*
X636485Y-375815D01*
X635638Y-377932D01*
X633945Y-378990D01*
X632251Y-378990D01*
X630558Y-377932D01*
X629711Y-375815D01*
X629711Y-365232D01*
X630558Y-363115D01*
X632251Y-362057D01*
X633945Y-362057D01*
X635638Y-363115D01*
X636485Y-365232D01*
G54D10*
X442912Y-92869D02*
X492913Y-92868D01*
G54D10*
X442912Y-118269D02*
X492912Y-118268D01*
G54D10*
G75*
G01X442912Y-92869D02*
G03X430212Y-105569I0J-12700D01*
G01*
G54D10*
G75*
G01X505612Y-105568D02*
G03X492912Y-92868I-12700J0D01*
G01*
G54D10*
G75*
G01X492912Y-118268D02*
G03X505612Y-105568I0J12700D01*
G01*
G54D10*
G75*
G01X430212Y-105569D02*
G03X442912Y-118269I12700J0D01*
G01*
G54D17*
X453287Y-137690D02*
X452440Y-139807D01*
X450747Y-140865D01*
X449054Y-140865D01*
X447360Y-139807D01*
X446514Y-137690D01*
X446514Y-127107D01*
X447360Y-124990D01*
X449054Y-123932D01*
X450747Y-123932D01*
X452440Y-124990D01*
X453287Y-127107D01*
G54D17*
X464294Y-140865D02*
X464294Y-123932D01*
X459214Y-134515D01*
X459214Y-136632D01*
X465987Y-136632D01*
G54D17*
X476147Y-132398D02*
X474454Y-132398D01*
X472760Y-131340D01*
X471914Y-129223D01*
X471914Y-127107D01*
X472760Y-124990D01*
X474454Y-123932D01*
X476147Y-123932D01*
X477840Y-124990D01*
X478687Y-127107D01*
X478687Y-129223D01*
X477840Y-131340D01*
X476147Y-132398D01*
X477840Y-133457D01*
X478687Y-135573D01*
X478687Y-137690D01*
X477840Y-139807D01*
X476147Y-140865D01*
X474454Y-140865D01*
X472760Y-139807D01*
X471914Y-137690D01*
X471914Y-135573D01*
X472760Y-133457D01*
X474454Y-132398D01*
G54D17*
X595157Y-610236D02*
X597697Y-612352D01*
X598543Y-614469D01*
X598543Y-618702D01*
G54D17*
X591770Y-618702D02*
X591770Y-601769D01*
X596003Y-601769D01*
X597697Y-602828D01*
X598543Y-604944D01*
X598543Y-607061D01*
X597697Y-609178D01*
X596003Y-610236D01*
X591770Y-610236D01*
G54D17*
X609550Y-618702D02*
X609550Y-601769D01*
X604470Y-612352D01*
X604470Y-614469D01*
X611243Y-614469D01*
G54D10*
X121444Y-977900D02*
X121444Y-984250D01*
X172244Y-984250D01*
G54D10*
X172244Y-984250D02*
X172244Y-977900D01*
G54D10*
X197644Y-977900D02*
X197644Y-984250D01*
X248444Y-984250D01*
X248444Y-977900D01*
G54D10*
X273844Y-977900D02*
X273844Y-984250D01*
X299244Y-984250D01*
X299244Y-977900D01*
G54D18*
X123434Y-967740D02*
X126821Y-962660D01*
X126821Y-976207D01*
G54D18*
X149490Y-976207D02*
X144072Y-976207D01*
X144072Y-975360D01*
X144749Y-973667D01*
X148813Y-968587D01*
X149490Y-966894D01*
X149490Y-965200D01*
X148813Y-963507D01*
X147458Y-962660D01*
X146104Y-962660D01*
X144749Y-963507D01*
X144072Y-965200D01*
G54D18*
X163916Y-965200D02*
X164593Y-963507D01*
X165948Y-962660D01*
X167302Y-962660D01*
X168657Y-963507D01*
X169334Y-965200D01*
X169334Y-966894D01*
X168657Y-968587D01*
X167302Y-969434D01*
X168657Y-970280D01*
X169334Y-971974D01*
X169334Y-973667D01*
X168657Y-975360D01*
X167302Y-976207D01*
X165948Y-976207D01*
X164593Y-975360D01*
X163916Y-973667D01*
G54D10*
X108744Y-970756D02*
X108744Y-908050D01*
X311944Y-908050D01*
X311944Y-971550D01*
X302419Y-971550D01*
G54D18*
X198840Y-968534D02*
X202227Y-963454D01*
X202227Y-977001D01*
G54D18*
X224897Y-976207D02*
X219478Y-976207D01*
X219478Y-975360D01*
X220155Y-973667D01*
X224219Y-968587D01*
X224897Y-966894D01*
X224897Y-965200D01*
X224219Y-963507D01*
X222865Y-962660D01*
X221510Y-962660D01*
X220155Y-963507D01*
X219478Y-965200D01*
G54D18*
X240116Y-965994D02*
X240793Y-964301D01*
X242148Y-963454D01*
X243502Y-963454D01*
X244857Y-964301D01*
X245534Y-965994D01*
X245534Y-967688D01*
X244857Y-969381D01*
X243502Y-970228D01*
X244857Y-971074D01*
X245534Y-972768D01*
X245534Y-974461D01*
X244857Y-976154D01*
X243502Y-977001D01*
X242148Y-977001D01*
X240793Y-976154D01*
X240116Y-974461D01*
G54D10*
X237331Y-971550D02*
X227806Y-971550D01*
G54D10*
X214312Y-971550D02*
X206375Y-971550D01*
G54D10*
X191294Y-971550D02*
X173038Y-971550D01*
G54D10*
X108744Y-971550D02*
X119062Y-971550D01*
G54D18*
X261547Y-966946D02*
X264933Y-961866D01*
X264933Y-975413D01*
G54D18*
X271029Y-975413D02*
X271029Y-977106D01*
X270352Y-978800D01*
X269675Y-978800D01*
G54D18*
X281189Y-975413D02*
X275771Y-975413D01*
X275771Y-974566D01*
X276448Y-972873D01*
X280512Y-967793D01*
X281189Y-966100D01*
X281189Y-964406D01*
X280512Y-962713D01*
X279157Y-961866D01*
X277803Y-961866D01*
X276448Y-962713D01*
X275771Y-964406D01*
G54D18*
X293297Y-964406D02*
X293974Y-962713D01*
X295329Y-961866D01*
X296683Y-961866D01*
X298038Y-962713D01*
X298715Y-964406D01*
X298715Y-966100D01*
X298038Y-967793D01*
X296683Y-968640D01*
X298038Y-969486D01*
X298715Y-971180D01*
X298715Y-972873D01*
X298038Y-974566D01*
X296683Y-975413D01*
X295329Y-975413D01*
X293974Y-974566D01*
X293297Y-972873D01*
G54D20*
X477301Y-43993D02*
X477301Y-21415D01*
X486332Y-43993D01*
X486332Y-21415D01*
G54D20*
X503265Y-39760D02*
X502136Y-42582D01*
X499879Y-43993D01*
X497621Y-43993D01*
X495363Y-42582D01*
X494234Y-39760D01*
X494234Y-25649D01*
X495363Y-22826D01*
X497621Y-21415D01*
X499879Y-21415D01*
X502136Y-22826D01*
X503265Y-25649D01*
G54D20*
X517941Y-43993D02*
X517941Y-21415D01*
X511167Y-35526D01*
X511167Y-38349D01*
X520198Y-38349D01*
G54D20*
X537131Y-25649D02*
X537131Y-39760D01*
X536002Y-42582D01*
X533745Y-43993D01*
X531487Y-43993D01*
X529229Y-42582D01*
X528100Y-39760D01*
X528100Y-25649D01*
X529229Y-22826D01*
X531487Y-21415D01*
X533745Y-21415D01*
X536002Y-22826D01*
X537131Y-25649D01*
G54D20*
X545033Y-43993D02*
X550678Y-21415D01*
X556322Y-43993D01*
G54D20*
X547291Y-35526D02*
X554064Y-35526D01*
G54D20*
X569800Y-103524D02*
X569800Y-121869D01*
G54D20*
X569800Y-112838D02*
X568671Y-115660D01*
X566413Y-116224D01*
X564155Y-115660D01*
X563026Y-112838D01*
X563026Y-107193D01*
X564155Y-104371D01*
X566413Y-103524D01*
X568671Y-104371D01*
X569800Y-107193D01*
G54D20*
X577701Y-116224D02*
X577701Y-103524D01*
G54D20*
X577701Y-106346D02*
X579959Y-103524D01*
X582217Y-103524D01*
G54D20*
X590119Y-103524D02*
X590119Y-121869D01*
G54D20*
X590119Y-111991D02*
X591248Y-115660D01*
X593506Y-116224D01*
X595764Y-115660D01*
X596893Y-112838D01*
X596893Y-107193D01*
X595764Y-104371D01*
X593506Y-103524D01*
X591248Y-104371D01*
X590119Y-107758D01*
G54D20*
X604794Y-106346D02*
X613825Y-106346D01*
G54D20*
X623985Y-93646D02*
X623985Y-114813D01*
X625114Y-116224D01*
X626243Y-115660D01*
G54D20*
X621727Y-103524D02*
X626243Y-103524D01*
G54D20*
X640919Y-114813D02*
X639112Y-116224D01*
X636855Y-116224D01*
X634597Y-114813D01*
X634145Y-111991D01*
X634145Y-107193D01*
X635274Y-104371D01*
X637532Y-103524D01*
X639790Y-104371D01*
X640919Y-106346D01*
X640919Y-109169D01*
X634145Y-109169D01*
G54D20*
X654465Y-104371D02*
X652207Y-103524D01*
X649949Y-104371D01*
X648820Y-107193D01*
X648820Y-112838D01*
X649949Y-115660D01*
X652207Y-116224D01*
X654465Y-115660D01*
G54D20*
X662366Y-116224D02*
X662366Y-93646D01*
G54D20*
X662366Y-107193D02*
X663495Y-104371D01*
X665753Y-103524D01*
X668011Y-104371D01*
X669140Y-107193D01*
X669140Y-116224D01*
G54D17*
X87950Y-972980D02*
X90490Y-975096D01*
X91337Y-977213D01*
X91337Y-981446D01*
G54D17*
X84564Y-981446D02*
X84564Y-964513D01*
X88797Y-964513D01*
X90490Y-965571D01*
X91337Y-967688D01*
X91337Y-969804D01*
X90490Y-971921D01*
X88797Y-972980D01*
X84564Y-972980D01*
G54D17*
X104037Y-981446D02*
X97264Y-981446D01*
X97264Y-980388D01*
X98110Y-978271D01*
X103190Y-971921D01*
X104037Y-969804D01*
X104037Y-967688D01*
X103190Y-965571D01*
X101497Y-964513D01*
X99804Y-964513D01*
X98110Y-965571D01*
X97264Y-967688D01*
G54D17*
X320519Y-973773D02*
X323059Y-975890D01*
X323906Y-978007D01*
X323906Y-982240D01*
G54D17*
X317132Y-982240D02*
X317132Y-965307D01*
X321366Y-965307D01*
X323059Y-966365D01*
X323906Y-968482D01*
X323906Y-970598D01*
X323059Y-972715D01*
X321366Y-973773D01*
X317132Y-973773D01*
G54D17*
X329832Y-971657D02*
X334066Y-965307D01*
X334066Y-982240D01*
G54D17*
X346766Y-968482D02*
X345919Y-966365D01*
X344226Y-965307D01*
X342532Y-965307D01*
X340839Y-966365D01*
X339992Y-968482D01*
X339992Y-973773D01*
X339992Y-974832D01*
X342532Y-972715D01*
X344226Y-972715D01*
X345919Y-973773D01*
X346766Y-975890D01*
X346766Y-979065D01*
X345919Y-981182D01*
X344226Y-982240D01*
X342532Y-982240D01*
X340839Y-981182D01*
X339992Y-979065D01*
X339992Y-973773D01*
G54D18*
X633816Y-959009D02*
X637202Y-953929D01*
X637202Y-967476D01*
G54D18*
X705115Y-966682D02*
X699697Y-966682D01*
X699697Y-965835D01*
X700374Y-964142D01*
X704438Y-959062D01*
X705115Y-957369D01*
X705115Y-955675D01*
X704438Y-953982D01*
X703083Y-953135D01*
X701729Y-953135D01*
X700374Y-953982D01*
X699697Y-955675D01*
G54D18*
X711211Y-966682D02*
X711211Y-968375D01*
X710534Y-970069D01*
X709857Y-970069D01*
G54D18*
X715953Y-955675D02*
X716630Y-953982D01*
X717985Y-953135D01*
X719339Y-953135D01*
X720694Y-953982D01*
X721371Y-955675D01*
X721371Y-957369D01*
X720694Y-959062D01*
X719339Y-959909D01*
X720694Y-960755D01*
X721371Y-962449D01*
X721371Y-964142D01*
X720694Y-965835D01*
X719339Y-966682D01*
X717985Y-966682D01*
X716630Y-965835D01*
X715953Y-964142D01*
G54D17*
X612619Y-920592D02*
X615159Y-922709D01*
X616006Y-924826D01*
X616006Y-929059D01*
G54D17*
X609232Y-929059D02*
X609232Y-912126D01*
X613466Y-912126D01*
X615159Y-913184D01*
X616006Y-915300D01*
X616006Y-917417D01*
X615159Y-919534D01*
X613466Y-920592D01*
X609232Y-920592D01*
G54D17*
X621932Y-918476D02*
X626166Y-912126D01*
X626166Y-929059D01*
G54D17*
X632092Y-912126D02*
X638866Y-912126D01*
X638019Y-914242D01*
X636326Y-917417D01*
X634632Y-921650D01*
X633786Y-924826D01*
X633786Y-929059D01*
G54D10*
X656431Y-962819D02*
X656431Y-979488D01*
X683419Y-979488D01*
X683419Y-962819D01*
G54D21*
X433018Y-788354D02*
X421503Y-788354D01*
G54D21*
X427260Y-783556D02*
X427260Y-793152D01*
G54D21*
X809255Y-355760D02*
X797741Y-355760D01*
G54D21*
X803498Y-350962D02*
X803498Y-360558D01*
G54D21*
X866405Y-78741D02*
X854891Y-78741D01*
G54D21*
X860648Y-73943D02*
X860648Y-83539D01*
G54D21*
X925143Y-277179D02*
X913628Y-277179D01*
G54D21*
X919385Y-272381D02*
X919385Y-281976D01*
G54D21*
X930699Y-527210D02*
X919184Y-527210D01*
G54D21*
X924942Y-522412D02*
X924942Y-532008D01*
G54D21*
X953718Y-456566D02*
X942203Y-456566D01*
G54D21*
X947960Y-451768D02*
X947960Y-461364D01*
G54D21*
X760836Y-145416D02*
X749322Y-145416D01*
G54D21*
X755079Y-140618D02*
X755079Y-150214D01*
G54D21*
X172668Y-134304D02*
X161153Y-134304D01*
G54D21*
X166910Y-129506D02*
X166910Y-139102D01*
G54D21*
X558430Y-231141D02*
X546916Y-231141D01*
G54D21*
X552673Y-226343D02*
X552673Y-235939D01*
G54D17*
X764014Y-742263D02*
X764014Y-759196D01*
X769940Y-759196D01*
G54D17*
X775868Y-756021D02*
X776714Y-758138D01*
X778408Y-759196D01*
X780101Y-759196D01*
X781794Y-758138D01*
X782641Y-756021D01*
X782641Y-750730D01*
X782641Y-749671D01*
X780101Y-751788D01*
X778408Y-751788D01*
X776714Y-750730D01*
X775868Y-748613D01*
X775868Y-745438D01*
X776714Y-743321D01*
X778408Y-742263D01*
X780101Y-742263D01*
X781794Y-743321D01*
X782641Y-745438D01*
X782641Y-750730D01*
G54D17*
X123796Y-96415D02*
X128029Y-79482D01*
X132262Y-96415D01*
G54D17*
X125489Y-90065D02*
X130569Y-90065D01*
G54D17*
X138190Y-96415D02*
X138190Y-79482D01*
X144963Y-96415D01*
X144963Y-79482D01*
G54D17*
X154276Y-96415D02*
X154276Y-79482D01*
G54D17*
X150890Y-79482D02*
X157663Y-79482D01*
G54D17*
X176459Y-79482D02*
X176459Y-93240D01*
X175612Y-95357D01*
X173919Y-96415D01*
X172226Y-96415D01*
X170532Y-95357D01*
X169686Y-93240D01*
G54D17*
X182386Y-85832D02*
X186619Y-79482D01*
X186619Y-96415D01*
G54D10*
X245269Y-47625D02*
X245269Y-20638D01*
X270669Y-20638D01*
X270669Y-47625D01*
G54D17*
X207962Y-36512D02*
X208809Y-38629D01*
X210502Y-39688D01*
X212196Y-39688D01*
X213889Y-38629D01*
X214736Y-36512D01*
X214736Y-34396D01*
X213889Y-32279D01*
X212196Y-31221D01*
X210502Y-31221D01*
X208809Y-30162D01*
X207962Y-28046D01*
X207962Y-25929D01*
X208809Y-23812D01*
X210502Y-22754D01*
X212196Y-22754D01*
X213889Y-23812D01*
X214736Y-25929D01*
G54D17*
X220662Y-29104D02*
X224896Y-22754D01*
X224896Y-39688D01*
G54D22*
X337196Y-90647D02*
X323650Y-90647D01*
G54D22*
X330423Y-85003D02*
X330423Y-96292D01*
G54D10*
X296069Y-47625D02*
X296069Y-20638D01*
X321469Y-20638D01*
X321469Y-47625D01*
G54D17*
X344543Y-66782D02*
X344543Y-80540D01*
X343697Y-82657D01*
X342003Y-83715D01*
X340310Y-83715D01*
X338617Y-82657D01*
X337770Y-80540D01*
G54D17*
X357243Y-83715D02*
X350470Y-83715D01*
X350470Y-82657D01*
X351317Y-80540D01*
X356397Y-74190D01*
X357243Y-72073D01*
X357243Y-69957D01*
X356397Y-67840D01*
X354703Y-66782D01*
X353010Y-66782D01*
X351317Y-67840D01*
X350470Y-69957D01*
G54D18*
X289383Y-90329D02*
X292093Y-90329D01*
X292093Y-94563D01*
X291415Y-96256D01*
X290061Y-97103D01*
X288706Y-97103D01*
X287351Y-96256D01*
X286674Y-94563D01*
X286674Y-86096D01*
X287351Y-84403D01*
X288706Y-83556D01*
X290061Y-83556D01*
X291415Y-84403D01*
X292093Y-86096D01*
G54D18*
X296834Y-97103D02*
X296834Y-89483D01*
G54D18*
X296834Y-91176D02*
X297511Y-89991D01*
X298866Y-89483D01*
X300221Y-89991D01*
X300898Y-91176D01*
X300898Y-97103D01*
G54D18*
X309703Y-97103D02*
X309703Y-83556D01*
G54D18*
X309703Y-91684D02*
X309026Y-89991D01*
X307671Y-89483D01*
X306316Y-89991D01*
X305639Y-91684D01*
X305639Y-95071D01*
X306316Y-96764D01*
X307671Y-97103D01*
X309026Y-96764D01*
X309703Y-95071D01*
G54D10*
X746919Y-49212D02*
X746919Y-21431D01*
X772319Y-21431D01*
X772319Y-49212D01*
G54D10*
X797719Y-48419D02*
X797719Y-21431D01*
X823119Y-21431D01*
X823119Y-48419D01*
G54D17*
X711256Y-12013D02*
X711256Y-25771D01*
X710409Y-27888D01*
X708716Y-28946D01*
X707022Y-28946D01*
X705329Y-27888D01*
X704482Y-25771D01*
G54D17*
X717182Y-15188D02*
X718029Y-13071D01*
X719722Y-12013D01*
X721416Y-12013D01*
X723109Y-13071D01*
X723956Y-15188D01*
X723956Y-17305D01*
X723109Y-19421D01*
X721416Y-20480D01*
X723109Y-21538D01*
X723956Y-23655D01*
X723956Y-25771D01*
X723109Y-27888D01*
X721416Y-28946D01*
X719722Y-28946D01*
X718029Y-27888D01*
X717182Y-25771D01*
G54D18*
X743215Y-32438D02*
X737797Y-32438D01*
X737797Y-31592D01*
X738474Y-29898D01*
X742538Y-24818D01*
X743215Y-23125D01*
X743215Y-21432D01*
X742538Y-19738D01*
X741183Y-18892D01*
X739829Y-18892D01*
X738474Y-19738D01*
X737797Y-21432D01*
G54D18*
X776690Y-23972D02*
X780077Y-18892D01*
X780077Y-32438D01*
G54D17*
X847781Y-11219D02*
X847781Y-24978D01*
X846934Y-27094D01*
X845241Y-28152D01*
X843548Y-28152D01*
X841854Y-27094D01*
X841008Y-24978D01*
G54D17*
X858788Y-28152D02*
X858788Y-11219D01*
X853708Y-21802D01*
X853708Y-23919D01*
X860481Y-23919D01*
G54D18*
X788597Y-23972D02*
X791983Y-18892D01*
X791983Y-32438D01*
G54D18*
X813065Y-68951D02*
X807647Y-68951D01*
X807647Y-68104D01*
X808324Y-66411D01*
X812388Y-61331D01*
X813065Y-59637D01*
X813065Y-57944D01*
X812388Y-56251D01*
X811033Y-55404D01*
X809679Y-55404D01*
X808324Y-56251D01*
X807647Y-57944D01*
G54D18*
X819161Y-68951D02*
X819161Y-70644D01*
X818484Y-72337D01*
X817807Y-72337D01*
G54D18*
X827967Y-68951D02*
X827967Y-55404D01*
X823903Y-63871D01*
X823903Y-65564D01*
X829321Y-65564D01*
G54D23*
X700953Y-86044D02*
X700953Y-71368D01*
G54D23*
X700953Y-81457D02*
X706823Y-71368D01*
G54D23*
X703154Y-78706D02*
X706823Y-86044D01*
G54D23*
X716361Y-85126D02*
X715187Y-86044D01*
X713720Y-86044D01*
X712252Y-85126D01*
X711959Y-83292D01*
X711959Y-80173D01*
X712692Y-78339D01*
X714160Y-77788D01*
X715628Y-78339D01*
X716361Y-79623D01*
X716361Y-81457D01*
X711959Y-81457D01*
G54D23*
X721498Y-77788D02*
X724433Y-86044D01*
X727368Y-77788D01*
G54D23*
X724433Y-86044D02*
X723699Y-88795D01*
X722965Y-89712D01*
X722232Y-89712D01*
G54D23*
X802898Y-101630D02*
X806566Y-86955D01*
X810235Y-101630D01*
G54D23*
X804365Y-96127D02*
X808768Y-96127D01*
G54D23*
X815372Y-101630D02*
X815372Y-86955D01*
X820508Y-86955D01*
G54D23*
X815372Y-94293D02*
X820508Y-94293D01*
G54D23*
X661924Y-73832D02*
X661924Y-83004D01*
X661190Y-84838D01*
X659723Y-85756D01*
X658255Y-85756D01*
X656788Y-84838D01*
X656054Y-83004D01*
X656054Y-73832D01*
X656788Y-71997D01*
X658255Y-71080D01*
X659723Y-71080D01*
X661190Y-71997D01*
X661924Y-73832D01*
G54D23*
X667060Y-85756D02*
X667060Y-71080D01*
X670729Y-71080D01*
X672196Y-71997D01*
X672930Y-73832D01*
X672930Y-75666D01*
X672196Y-77500D01*
X670729Y-78418D01*
X667060Y-78418D01*
G54D23*
X683349Y-76583D02*
X687018Y-71080D01*
X687018Y-85756D01*
G54D23*
X390461Y-92882D02*
X390461Y-102054D01*
X389728Y-103888D01*
X388260Y-104806D01*
X386793Y-104806D01*
X385325Y-103888D01*
X384591Y-102054D01*
X384591Y-92882D01*
X385325Y-91047D01*
X386793Y-90130D01*
X388260Y-90130D01*
X389728Y-91047D01*
X390461Y-92882D01*
G54D23*
X395597Y-104806D02*
X395597Y-90130D01*
X399266Y-90130D01*
X400734Y-91047D01*
X401467Y-92882D01*
X401467Y-94716D01*
X400734Y-96550D01*
X399266Y-97468D01*
X395597Y-97468D01*
G54D23*
X417756Y-104806D02*
X411886Y-104806D01*
X411886Y-103888D01*
X412620Y-102054D01*
X417023Y-96550D01*
X417756Y-94716D01*
X417756Y-92882D01*
X417023Y-91047D01*
X415555Y-90130D01*
X414088Y-90130D01*
X412620Y-91047D01*
X411886Y-92882D01*
G54D10*
X890588Y-103981D02*
X890588Y-153981D01*
G54D10*
X865188Y-103981D02*
X865188Y-153981D01*
G54D10*
G75*
G01X890588Y-103981D02*
G03X877888Y-91281I-12700J0D01*
G01*
G54D10*
G75*
G01X877888Y-166681D02*
G03X890588Y-153981I0J12700D01*
G01*
G54D10*
G75*
G01X865188Y-153981D02*
G03X877888Y-166681I12700J0D01*
G01*
G54D10*
G75*
G01X877888Y-91281D02*
G03X865188Y-103981I0J-12700D01*
G01*
G54D10*
G75*
G01X854861Y-104773D02*
G03X854861Y-104773I-12700J0D01*
G01*
G54D10*
X842169Y-142875D02*
X842169Y-104775D01*
G54D12*
X821437Y-140670D02*
X821437Y-140670D01*
G54D12*
X821437Y-121170D02*
X821437Y-121170D01*
G54D17*
X818994Y-159386D02*
X821534Y-161502D01*
X822381Y-163619D01*
X822381Y-167852D01*
G54D17*
X815608Y-167852D02*
X815608Y-150919D01*
X819841Y-150919D01*
X821534Y-151978D01*
X822381Y-154094D01*
X822381Y-156211D01*
X821534Y-158328D01*
X819841Y-159386D01*
X815608Y-159386D01*
G54D17*
X828308Y-158328D02*
X833388Y-158328D01*
X828308Y-167852D01*
X833388Y-167852D01*
G54D17*
X858100Y-175790D02*
X857253Y-177907D01*
X855560Y-178965D01*
X853866Y-178965D01*
X852173Y-177907D01*
X851326Y-175790D01*
X851326Y-165207D01*
X852173Y-163090D01*
X853866Y-162032D01*
X855560Y-162032D01*
X857253Y-163090D01*
X858100Y-165207D01*
G54D17*
X864026Y-169440D02*
X869106Y-169440D01*
X864026Y-178965D01*
X869106Y-178965D01*
G54D10*
X151002Y-228602D02*
X131952Y-228602D01*
X131952Y-190502D01*
X151002Y-190502D01*
X151002Y-228602D01*
G54D10*
X141476Y-190502D02*
X141476Y-171452D01*
G54D10*
X141476Y-247652D02*
X141476Y-228602D01*
G36*
X151002Y-228602D02*
X131952Y-228602D01*
X131952Y-219076D01*
X151002Y-219076D01*
X151002Y-228602D01*
G37*
G54D10*
X151002Y-228602D02*
X131952Y-228602D01*
X131952Y-219076D01*
X151002Y-219076D01*
X151002Y-228602D01*
G54D12*
X123928Y-244812D02*
X123928Y-244812D01*
G54D12*
X123928Y-225312D02*
X123928Y-225312D01*
G54D16*
X255736Y-100566D02*
X252536Y-103766D01*
X252536Y-122766D01*
X255736Y-125966D01*
X306536Y-125966D01*
X309736Y-122766D01*
X309736Y-103766D01*
X306536Y-100566D01*
X255736Y-100566D01*
G54D16*
X252536Y-113266D02*
X243036Y-113266D01*
G54D16*
X309736Y-113266D02*
X319236Y-113266D01*
G54D12*
X233236Y-93066D02*
X233236Y-93066D01*
G54D12*
X252736Y-93066D02*
X252736Y-93066D01*
G36*
X268336Y-125966D02*
X268336Y-100566D01*
X255636Y-100566D01*
X252461Y-103741D01*
X252461Y-122791D01*
X255636Y-125966D01*
X268336Y-125966D01*
G37*
G54D16*
X268336Y-125966D02*
X268336Y-100566D01*
X255636Y-100566D01*
X252461Y-103741D01*
X252461Y-122791D01*
X255636Y-125966D01*
X268336Y-125966D01*
G54D16*
X549816Y-105922D02*
X546616Y-102722D01*
X527616Y-102722D01*
X524416Y-105922D01*
X524416Y-156722D01*
X527616Y-159922D01*
X546616Y-159922D01*
X549816Y-156722D01*
X549816Y-105922D01*
G54D16*
X537116Y-102722D02*
X537116Y-93222D01*
G54D16*
X537116Y-159922D02*
X537116Y-169422D01*
G54D12*
X557316Y-83422D02*
X557316Y-83422D01*
G54D12*
X557316Y-102922D02*
X557316Y-102922D01*
G36*
X524416Y-118522D02*
X549816Y-118522D01*
X549816Y-105822D01*
X546641Y-102646D01*
X527591Y-102646D01*
X524416Y-105822D01*
X524416Y-118522D01*
G37*
G54D16*
X524416Y-118522D02*
X549816Y-118522D01*
X549816Y-105822D01*
X546641Y-102646D01*
X527591Y-102646D01*
X524416Y-105822D01*
X524416Y-118522D01*
G54D15*
X643731Y-905669D02*
X694531Y-905669D01*
X694531Y-969169D01*
X643731Y-969169D01*
X643731Y-905669D01*
G36*
X656431Y-905669D02*
X656431Y-912019D01*
X681831Y-912019D01*
X681831Y-905669D01*
X656431Y-905669D01*
G37*
G54D15*
X656431Y-905669D02*
X656431Y-912019D01*
X681831Y-912019D01*
X681831Y-905669D01*
X656431Y-905669D01*
G54D12*
X702530Y-917171D02*
X702530Y-917171D01*
G54D12*
X702530Y-936671D02*
X702530Y-936671D01*
M02*
