%FSLAX34Y34*%
%MOMM*%
%LNCOPPER_TOP*%
G71*
G01*
%ADD10C, 3.302*%
%ADD11C, 3.810*%
%ADD12C, 3.556*%
%ADD13C, 3.302*%
%ADD14C, 3.810*%
%ADD15C, 3.175*%
%ADD16C, 3.556*%
%ADD17C, 7.747*%
%ADD18C, 7.747*%
%ADD19C, 2.946*%
%ADD20C, 1.270*%
%ADD21C, 1.397*%
%ADD22C, 1.524*%
%ADD23C, 7.470*%
%ADD24C, 4.064*%
%ADD25C, 4.699*%
%ADD26C, 3.302*%
%ADD27C, 0.762*%
%ADD28C, 2.794*%
%ADD29C, 2.032*%
%ADD30C, 1.905*%
%ADD31C, 4.318*%
%ADD32C, 1.753*%
%ADD33C, 0.305*%
%ADD34C, 0.356*%
%ADD35C, 1.778*%
%ADD36C, 1.676*%
%ADD37C, 4.064*%
%ADD38C, 3.937*%
%ADD39C, 0.254*%
%ADD40C, 0.677*%
%ADD41C, 0.635*%
%ADD42C, 0.847*%
%ADD43C, 2.159*%
%ADD44C, 0.787*%
%ADD45C, 0.768*%
%ADD46C, 0.931*%
%ADD47C, 1.143*%
%ADD48C, 1.016*%
%ADD49C, 2.032*%
%ADD50C, 2.540*%
%ADD51C, 2.286*%
%ADD52C, 2.032*%
%ADD53C, 2.540*%
%ADD54C, 2.286*%
%ADD55C, 6.477*%
%ADD56C, 6.477*%
%ADD57C, 6.200*%
%ADD58C, 2.794*%
%ADD59C, 3.429*%
%ADD60C, 2.032*%
%ADD61C, 1.524*%
%ADD62C, 3.048*%
%ADD63C, 2.286*%
%LPD*%
G36*
X0Y0D02*
X1000764Y0D01*
X1000764Y-995684D01*
X0Y-995684D01*
X0Y0D01*
G37*
%LPC*%
X35721Y-114302D02*
G54D10*
D03*
X85720Y-114300D02*
G54D10*
D03*
X48419Y-152400D02*
G54D11*
D03*
X86519Y-203200D02*
G54D11*
D03*
X35721Y-241302D02*
G54D10*
D03*
X85720Y-241300D02*
G54D10*
D03*
X48419Y-279400D02*
G54D11*
D03*
X86519Y-330200D02*
G54D11*
D03*
X45244Y-368300D02*
G54D10*
D03*
X45245Y-418303D02*
G54D10*
D03*
X219869Y-339725D02*
G54D12*
D03*
X219874Y-390530D02*
G54D12*
D03*
X245269Y-365125D02*
G54D13*
D03*
X181769Y-171450D02*
G54D10*
D03*
X181769Y-273050D02*
G54D10*
D03*
X264321Y-219077D02*
G54D10*
D03*
X314320Y-219076D02*
G54D10*
D03*
X318294Y-155575D02*
G54D13*
D03*
X343698Y-186527D02*
G54D13*
D03*
X369096Y-155575D02*
G54D13*
D03*
X484981Y-228600D02*
G54D14*
D03*
X434181Y-228600D02*
G54D14*
D03*
X433775Y-228492D02*
G54D14*
D03*
X485290Y-228662D02*
G54D14*
D03*
X459049Y-179567D02*
G54D14*
D03*
X435769Y-315912D02*
G54D10*
D03*
X461171Y-346862D02*
G54D10*
D03*
X486571Y-315912D02*
G54D10*
D03*
X584994Y-206375D02*
G54D13*
D03*
X615944Y-180973D02*
G54D13*
D03*
X584994Y-155573D02*
G54D13*
D03*
G36*
X851694Y-419100D02*
X851694Y-387350D01*
X883444Y-387350D01*
X883444Y-419100D01*
X851694Y-419100D01*
G37*
X892968Y-403226D02*
G54D10*
D03*
X918368Y-403226D02*
G54D10*
D03*
X943776Y-403230D02*
G54D10*
D03*
X867568Y-327026D02*
G54D10*
D03*
X892968Y-327026D02*
G54D10*
D03*
X918368Y-327026D02*
G54D10*
D03*
X943768Y-327026D02*
G54D10*
D03*
G36*
X651669Y-444500D02*
X651669Y-412750D01*
X683419Y-412750D01*
X683419Y-444500D01*
X651669Y-444500D01*
G37*
X692943Y-428626D02*
G54D10*
D03*
X718347Y-428628D02*
G54D10*
D03*
X743743Y-428626D02*
G54D10*
D03*
X667543Y-352426D02*
G54D10*
D03*
X692943Y-352426D02*
G54D10*
D03*
X718343Y-352426D02*
G54D10*
D03*
X743743Y-352426D02*
G54D10*
D03*
G36*
X45244Y-803275D02*
X45244Y-771525D01*
X76994Y-771525D01*
X76994Y-803275D01*
X45244Y-803275D01*
G37*
X86518Y-787401D02*
G54D10*
D03*
X111921Y-787407D02*
G54D10*
D03*
X137318Y-787401D02*
G54D10*
D03*
X61118Y-711201D02*
G54D10*
D03*
X86518Y-711201D02*
G54D10*
D03*
X111918Y-711201D02*
G54D10*
D03*
X137318Y-711201D02*
G54D10*
D03*
X242094Y-600075D02*
G54D12*
D03*
X191013Y-600076D02*
G54D12*
D03*
X242094Y-546100D02*
G54D12*
D03*
X191013Y-546100D02*
G54D12*
D03*
X356394Y-600075D02*
G54D12*
D03*
X305313Y-600076D02*
G54D12*
D03*
X356394Y-546100D02*
G54D12*
D03*
X305313Y-546100D02*
G54D12*
D03*
G36*
X404019Y-739775D02*
X404019Y-708025D01*
X435769Y-708025D01*
X435769Y-739775D01*
X404019Y-739775D01*
G37*
X445293Y-723901D02*
G54D10*
D03*
X470696Y-723907D02*
G54D10*
D03*
X496093Y-723901D02*
G54D10*
D03*
X419893Y-647701D02*
G54D10*
D03*
X445293Y-647701D02*
G54D10*
D03*
X470693Y-647701D02*
G54D10*
D03*
X496093Y-647701D02*
G54D10*
D03*
G36*
X362744Y-958850D02*
X362744Y-927100D01*
X394494Y-927100D01*
X394494Y-958850D01*
X362744Y-958850D01*
G37*
X404019Y-942975D02*
G54D10*
D03*
X429419Y-942975D02*
G54D10*
D03*
X454821Y-942979D02*
G54D10*
D03*
X378619Y-866775D02*
G54D10*
D03*
X404019Y-866775D02*
G54D10*
D03*
X429419Y-866775D02*
G54D10*
D03*
X454819Y-866775D02*
G54D10*
D03*
X86519Y-368300D02*
G54D10*
D03*
X86518Y-418301D02*
G54D10*
D03*
G54D15*
X254797Y-314328D02*
X235747Y-314328D01*
G54D15*
X254794Y-339725D02*
X235744Y-339725D01*
G54D15*
X254794Y-365125D02*
X235744Y-365125D01*
X226219Y-209550D02*
G54D10*
D03*
X226219Y-171450D02*
G54D10*
D03*
X362746Y-376958D02*
G54D10*
D03*
X362745Y-415062D02*
G54D10*
D03*
X378619Y-228600D02*
G54D11*
D03*
X419894Y-269875D02*
G54D11*
D03*
X321471Y-323852D02*
G54D11*
D03*
X378619Y-342900D02*
G54D11*
D03*
G36*
X252412Y-162750D02*
X263556Y-151606D01*
X279368Y-151606D01*
X290512Y-162750D01*
X290512Y-178562D01*
X279368Y-189706D01*
X263556Y-189706D01*
X252412Y-178562D01*
X252412Y-162750D01*
G37*
X461169Y-273050D02*
G54D10*
D03*
X499269Y-273050D02*
G54D10*
D03*
X689769Y-149225D02*
G54D10*
D03*
X651669Y-149225D02*
G54D10*
D03*
X651669Y-180975D02*
G54D10*
D03*
X689769Y-180975D02*
G54D10*
D03*
X499269Y-447675D02*
G54D13*
D03*
X473867Y-416725D02*
G54D13*
D03*
X448467Y-447675D02*
G54D13*
D03*
X407196Y-419102D02*
G54D10*
D03*
X407193Y-469101D02*
G54D10*
D03*
X445294Y-381000D02*
G54D10*
D03*
X407196Y-381002D02*
G54D10*
D03*
X540547Y-304802D02*
G54D11*
D03*
X578644Y-355600D02*
G54D11*
D03*
X716756Y-269875D02*
G54D13*
D03*
X665675Y-269875D02*
G54D13*
D03*
X632623Y-315915D02*
G54D10*
D03*
X682620Y-315913D02*
G54D10*
D03*
X572294Y-428625D02*
G54D10*
D03*
X622294Y-428626D02*
G54D10*
D03*
X572294Y-463550D02*
G54D10*
D03*
X622298Y-463553D02*
G54D10*
D03*
X683419Y-463550D02*
G54D10*
D03*
X733424Y-463553D02*
G54D10*
D03*
X892969Y-488950D02*
G54D10*
D03*
X854869Y-488950D02*
G54D10*
D03*
X842169Y-450850D02*
G54D10*
D03*
X892170Y-450850D02*
G54D10*
D03*
X967581Y-160338D02*
G54D14*
D03*
X916781Y-160337D02*
G54D14*
D03*
X916381Y-160232D02*
G54D14*
D03*
X967890Y-160399D02*
G54D14*
D03*
X941649Y-111305D02*
G54D14*
D03*
X858838Y-241300D02*
G54D10*
D03*
X858837Y-291301D02*
G54D10*
D03*
X48419Y-504825D02*
G54D13*
D03*
X73821Y-535775D02*
G54D13*
D03*
X99223Y-504827D02*
G54D13*
D03*
X191294Y-501650D02*
G54D10*
D03*
X241297Y-501653D02*
G54D10*
D03*
X140494Y-466725D02*
G54D10*
D03*
X140494Y-504825D02*
G54D10*
D03*
X48419Y-565150D02*
G54D16*
D03*
X48419Y-666750D02*
G54D16*
D03*
X140495Y-568327D02*
G54D10*
D03*
X90493Y-568324D02*
G54D10*
D03*
X305594Y-501650D02*
G54D10*
D03*
X355597Y-501653D02*
G54D10*
D03*
X140494Y-644525D02*
G54D10*
D03*
X190494Y-644526D02*
G54D10*
D03*
X232572Y-644531D02*
G54D10*
D03*
X282570Y-644526D02*
G54D10*
D03*
X324644Y-644525D02*
G54D10*
D03*
X374644Y-644526D02*
G54D10*
D03*
X92870Y-615952D02*
G54D10*
D03*
X92868Y-665951D02*
G54D10*
D03*
X61119Y-825500D02*
G54D10*
D03*
X111120Y-825500D02*
G54D10*
D03*
X61119Y-863600D02*
G54D10*
D03*
X111122Y-863607D02*
G54D10*
D03*
X388144Y-692150D02*
G54D16*
D03*
X286544Y-692150D02*
G54D16*
D03*
X286544Y-774700D02*
G54D10*
D03*
X286544Y-724699D02*
G54D10*
D03*
X324645Y-736604D02*
G54D10*
D03*
X374644Y-736600D02*
G54D10*
D03*
X324644Y-774700D02*
G54D10*
D03*
X374647Y-774704D02*
G54D10*
D03*
X410369Y-825500D02*
G54D10*
D03*
X448469Y-825500D02*
G54D10*
D03*
X337344Y-949325D02*
G54D10*
D03*
X337344Y-911225D02*
G54D10*
D03*
X499269Y-942975D02*
G54D10*
D03*
X499269Y-904875D02*
G54D10*
D03*
X597694Y-898525D02*
G54D13*
D03*
X597700Y-949333D02*
G54D13*
D03*
X553244Y-866775D02*
G54D13*
D03*
X584194Y-841373D02*
G54D13*
D03*
X553244Y-815973D02*
G54D13*
D03*
X534194Y-904875D02*
G54D10*
D03*
X534194Y-942975D02*
G54D10*
D03*
X623094Y-841375D02*
G54D11*
D03*
X680244Y-841375D02*
G54D11*
D03*
X680244Y-793750D02*
G54D11*
D03*
X623094Y-793750D02*
G54D11*
D03*
X623094Y-746125D02*
G54D11*
D03*
X680246Y-746127D02*
G54D11*
D03*
X575469Y-765175D02*
G54D16*
D03*
X473873Y-765183D02*
G54D16*
D03*
X518323Y-866779D02*
G54D10*
D03*
X518319Y-816774D02*
G54D10*
D03*
X537369Y-711200D02*
G54D10*
D03*
X537369Y-661199D02*
G54D10*
D03*
X581819Y-711200D02*
G54D10*
D03*
X581819Y-661199D02*
G54D10*
D03*
X623094Y-669925D02*
G54D13*
D03*
X648496Y-700875D02*
G54D13*
D03*
X673896Y-669925D02*
G54D13*
D03*
X572294Y-520700D02*
G54D13*
D03*
X597696Y-551650D02*
G54D13*
D03*
X623096Y-520700D02*
G54D13*
D03*
X407194Y-600075D02*
G54D10*
D03*
X407197Y-550077D02*
G54D10*
D03*
X508002Y-535785D02*
G54D12*
D03*
X456919Y-535782D02*
G54D12*
D03*
X584994Y-590550D02*
G54D10*
D03*
X623094Y-590550D02*
G54D10*
D03*
X780294Y-631825D02*
G54D10*
D03*
X805694Y-631825D02*
G54D10*
D03*
X831094Y-631825D02*
G54D10*
D03*
X856494Y-631825D02*
G54D10*
D03*
X881894Y-631825D02*
G54D10*
D03*
X907294Y-631825D02*
G54D10*
D03*
X932694Y-631825D02*
G54D10*
D03*
X958094Y-631825D02*
G54D10*
D03*
X943769Y-253206D02*
G54D10*
D03*
G36*
X959644Y-262731D02*
X959644Y-294481D01*
X927894Y-294481D01*
X927894Y-262731D01*
X959644Y-262731D01*
G37*
X877098Y-38102D02*
G54D10*
D03*
G36*
X892970Y-79375D02*
X861220Y-79375D01*
X861220Y-47625D01*
X892970Y-47625D01*
X892970Y-79375D01*
G37*
X952500Y-946150D02*
G54D17*
D03*
X952500Y-50800D02*
G54D17*
D03*
X50800Y-50800D02*
G54D17*
D03*
X50800Y-946152D02*
G54D18*
D03*
X819944Y-338138D02*
G54D10*
D03*
G36*
X835819Y-379412D02*
X804069Y-379412D01*
X804069Y-347662D01*
X835819Y-347662D01*
X835819Y-379412D01*
G37*
G36*
X758031Y-162719D02*
X758031Y-130969D01*
X789781Y-130969D01*
X789781Y-162719D01*
X758031Y-162719D01*
G37*
X773912Y-121445D02*
G54D10*
D03*
X537373Y-212727D02*
G54D10*
D03*
G36*
X553243Y-253999D02*
X521493Y-253999D01*
X521493Y-222249D01*
X553243Y-222249D01*
X553243Y-253999D01*
G37*
X410372Y-774706D02*
G54D10*
D03*
G36*
X451645Y-758827D02*
X451645Y-790577D01*
X419895Y-790577D01*
X419895Y-758827D01*
X451645Y-758827D01*
G37*
G54D15*
X321469Y-57150D02*
X321469Y-38100D01*
G54D15*
X296071Y-57151D02*
X296071Y-38101D01*
G54D15*
X270668Y-57150D02*
X270668Y-38100D01*
G54D15*
X245269Y-57150D02*
X245269Y-38100D01*
G54D15*
X823119Y-57150D02*
X823119Y-38100D01*
G54D15*
X797726Y-57152D02*
X797726Y-38102D01*
G54D15*
X772327Y-57153D02*
X772327Y-38103D01*
G54D15*
X746919Y-57150D02*
X746919Y-38100D01*
G54D15*
X635752Y-57301D02*
X635752Y-38251D01*
G54D15*
X610355Y-57301D02*
X610355Y-38251D01*
G54D15*
X584952Y-57302D02*
X584952Y-38252D01*
G54D15*
X121444Y-930285D02*
X121444Y-949335D01*
G54D15*
X146844Y-930275D02*
X146844Y-949325D01*
G54D15*
X172244Y-930275D02*
X172244Y-949325D01*
G54D15*
X197644Y-930275D02*
X197644Y-949325D01*
G54D15*
X223044Y-930275D02*
X223044Y-949325D01*
G54D15*
X248444Y-930275D02*
X248444Y-949325D01*
G54D15*
X273844Y-930275D02*
X273844Y-949325D01*
G54D15*
X299244Y-930275D02*
X299244Y-949325D01*
X859631Y-536575D02*
G54D14*
D03*
X859631Y-587375D02*
G54D14*
D03*
X859528Y-587785D02*
G54D14*
D03*
X859693Y-536266D02*
G54D14*
D03*
X810598Y-562508D02*
G54D14*
D03*
X670719Y-520700D02*
G54D10*
D03*
X720720Y-520700D02*
G54D10*
D03*
X662781Y-590550D02*
G54D10*
D03*
X712782Y-590550D02*
G54D10*
D03*
X759625Y-533403D02*
G54D10*
D03*
X759618Y-583401D02*
G54D10*
D03*
X773112Y-909638D02*
G54D13*
D03*
X773117Y-947742D02*
G54D13*
D03*
X962025Y-476250D02*
G54D19*
D03*
G36*
X947928Y-428816D02*
X976122Y-428816D01*
X976122Y-457010D01*
X947928Y-457010D01*
X947928Y-428816D01*
G37*
X946150Y-511175D02*
G54D19*
D03*
G36*
X898716Y-525272D02*
X898716Y-497078D01*
X926910Y-497078D01*
X926910Y-525272D01*
X898716Y-525272D01*
G37*
X741362Y-909638D02*
G54D10*
D03*
X741365Y-947740D02*
G54D10*
D03*
X140495Y-863602D02*
G54D11*
D03*
X169069Y-892175D02*
G54D11*
D03*
X188119Y-784225D02*
G54D11*
D03*
X238921Y-806454D02*
G54D11*
D03*
X169069Y-755650D02*
G54D11*
D03*
X224631Y-776288D02*
G54D11*
D03*
X191294Y-673100D02*
G54D11*
D03*
X242097Y-673106D02*
G54D11*
D03*
X324644Y-812800D02*
G54D10*
D03*
X374644Y-812800D02*
G54D10*
D03*
G54D20*
G75*
G01X924719Y-749300D02*
G03X924719Y-749300I-88900J0D01*
G01*
G54D21*
G75*
G01X912019Y-749300D02*
G03X912019Y-749300I-76200J0D01*
G01*
G54D21*
G75*
G01X899319Y-749300D02*
G03X899319Y-749300I-63500J0D01*
G01*
G54D21*
G75*
G01X886619Y-749300D02*
G03X886619Y-749300I-50800J0D01*
G01*
G54D21*
G75*
G01X873919Y-749300D02*
G03X873919Y-749300I-38100J0D01*
G01*
G54D21*
G75*
G01X861219Y-749300D02*
G03X861219Y-749300I-25400J0D01*
G01*
G54D22*
G75*
G01X848519Y-749300D02*
G03X848519Y-749300I-12700J0D01*
G01*
X835819Y-749300D02*
G54D23*
D03*
X737394Y-793750D02*
G54D24*
D03*
X737400Y-711206D02*
G54D24*
D03*
X851702Y-965208D02*
G54D25*
D03*
X851696Y-855665D02*
G54D25*
D03*
X645319Y-625475D02*
G54D13*
D03*
X721519Y-625475D02*
G54D13*
D03*
X943769Y-587375D02*
G54D26*
D03*
X905669Y-587375D02*
G54D26*
D03*
G54D27*
G75*
G01X931069Y-749300D02*
G03X931069Y-749300I-95250J0D01*
G01*
G54D27*
G75*
G01X937419Y-749300D02*
G03X937419Y-749300I-101600J0D01*
G01*
X181771Y-114302D02*
G54D10*
D03*
G36*
X197642Y-155574D02*
X165892Y-155574D01*
X165892Y-123824D01*
X197642Y-123824D01*
X197642Y-155574D01*
G37*
X521494Y-393700D02*
G54D10*
D03*
X623094Y-393700D02*
G54D10*
D03*
X645319Y-555625D02*
G54D13*
D03*
X721519Y-555625D02*
G54D13*
D03*
X943769Y-549275D02*
G54D26*
D03*
X905669Y-549275D02*
G54D26*
D03*
X791369Y-533400D02*
G54D10*
D03*
X791369Y-457200D02*
G54D10*
D03*
X569118Y-955676D02*
G54D28*
D03*
G54D15*
X447632Y-57302D02*
X447632Y-38252D01*
G54D15*
X422234Y-57302D02*
X422234Y-38252D01*
G54D15*
X396832Y-57302D02*
X396832Y-38252D01*
G36*
X672306Y-38925D02*
X683450Y-27781D01*
X699262Y-27781D01*
X710406Y-38925D01*
X710406Y-54737D01*
X699262Y-65881D01*
X683450Y-65881D01*
X672306Y-54737D01*
X672306Y-38925D01*
G37*
X724787Y-188819D02*
G54D13*
D03*
X800987Y-188819D02*
G54D13*
D03*
X272259Y-573091D02*
G54D11*
D03*
X457206Y-493718D02*
G54D11*
D03*
G36*
X267494Y-806482D02*
X278638Y-795338D01*
X294450Y-795338D01*
X305594Y-806482D01*
X305594Y-822294D01*
X294450Y-833438D01*
X278638Y-833438D01*
X267494Y-822294D01*
X267494Y-806482D01*
G37*
G54D29*
X842169Y-454025D02*
X842169Y-444500D01*
X858044Y-428625D01*
X912019Y-428625D01*
X918369Y-422275D01*
X918369Y-409575D01*
X791369Y-385762D02*
G54D10*
D03*
X791369Y-423862D02*
G54D10*
D03*
X826298Y-225427D02*
G54D16*
D03*
X724694Y-225425D02*
G54D16*
D03*
X629448Y-225427D02*
G54D10*
D03*
X679445Y-225426D02*
G54D10*
D03*
G54D29*
X584994Y-155575D02*
X626269Y-155575D01*
X651669Y-180975D01*
G54D29*
X623094Y-669925D02*
X623094Y-635000D01*
X632619Y-625475D01*
X645319Y-625475D01*
G54D29*
X537369Y-660400D02*
X537369Y-619125D01*
X565944Y-590550D01*
X581819Y-590550D01*
G54D29*
X537369Y-711200D02*
X537369Y-727075D01*
X543719Y-733425D01*
X597694Y-733425D01*
X629444Y-701675D01*
X648494Y-701675D01*
G54D29*
X572294Y-520700D02*
X572294Y-508000D01*
X581819Y-498475D01*
X638969Y-498475D01*
X645319Y-504825D01*
X645319Y-555625D01*
G54D29*
X578644Y-355600D02*
X578644Y-371475D01*
X600869Y-393700D01*
X623094Y-393700D01*
G54D30*
X350044Y-885825D02*
X369094Y-885825D01*
X375444Y-892175D01*
X454819Y-892175D01*
X486569Y-923925D01*
G54D30*
X483394Y-920750D02*
X486569Y-923925D01*
X559594Y-923925D01*
X569119Y-933450D01*
X569119Y-955675D01*
G54D30*
X337344Y-949325D02*
X340519Y-949325D01*
X372269Y-917575D01*
X461169Y-917575D01*
X477044Y-933450D01*
X477044Y-962025D01*
X486569Y-971550D01*
G54D30*
X248444Y-939800D02*
X248444Y-901700D01*
X254794Y-895350D01*
X315119Y-895350D01*
X324644Y-885825D01*
X350044Y-885825D01*
X737394Y-875506D02*
G54D10*
D03*
X737394Y-825506D02*
G54D10*
D03*
G54D29*
X597694Y-898525D02*
X619919Y-876300D01*
X737394Y-876300D01*
X919956Y-877888D02*
G54D28*
D03*
G54D30*
X552450Y-815181D02*
X697706Y-814388D01*
X733425Y-850106D01*
X745331Y-850106D01*
X772319Y-877094D01*
X958056Y-750888D02*
G54D10*
D03*
X958056Y-852488D02*
G54D10*
D03*
G54D29*
X737394Y-825500D02*
X758031Y-825500D01*
X788988Y-856456D01*
X851694Y-856456D01*
G54D30*
X337344Y-949325D02*
X340519Y-949325D01*
X747720Y-253208D02*
G54D10*
D03*
X124619Y-47625D02*
G54D31*
D03*
X175421Y-47627D02*
G54D31*
D03*
G54D29*
X286544Y-692150D02*
X327819Y-692150D01*
X375444Y-644525D01*
G36*
X108744Y-671544D02*
X119888Y-660400D01*
X135700Y-660400D01*
X146844Y-671544D01*
X146844Y-687356D01*
X135700Y-698500D01*
X119888Y-698500D01*
X108744Y-687356D01*
X108744Y-671544D01*
G37*
G54D29*
X435769Y-774700D02*
X445294Y-774700D01*
X473869Y-803275D01*
X473869Y-863600D01*
X470694Y-866775D01*
X454819Y-866775D01*
X826294Y-198438D02*
G54D10*
D03*
X927894Y-198438D02*
G54D10*
D03*
X775494Y-269875D02*
G54D14*
D03*
X775494Y-319881D02*
G54D14*
D03*
X98836Y-463139D02*
G54D14*
D03*
X48830Y-463139D02*
G54D14*
D03*
X495711Y-597283D02*
G54D14*
D03*
X445704Y-597283D02*
G54D14*
D03*
X308389Y-867958D02*
G54D14*
D03*
X258380Y-867952D02*
G54D14*
D03*
X571122Y-272669D02*
G54D14*
D03*
X621124Y-272668D02*
G54D14*
D03*
X958056Y-717550D02*
G54D13*
D03*
X958056Y-679450D02*
G54D13*
D03*
G54D29*
X224631Y-776288D02*
X224631Y-750888D01*
X251619Y-723900D01*
X286544Y-723900D01*
G54D32*
X486569Y-971550D02*
X643731Y-972344D01*
X656431Y-963612D01*
X656431Y-937419D01*
X442915Y-105571D02*
G54D10*
D03*
X492913Y-105569D02*
G54D10*
D03*
G54D30*
X772319Y-877094D02*
X776288Y-881062D01*
X916781Y-881062D01*
X919956Y-877888D01*
G54D32*
X222250Y-939800D02*
X222250Y-962025D01*
X234950Y-974725D01*
X419100Y-974725D01*
X428625Y-965200D01*
X428625Y-942975D01*
G36*
X388938Y-923131D02*
X388938Y-934244D01*
X451644Y-934244D01*
X452438Y-935038D01*
X452438Y-924719D01*
X451644Y-923925D01*
X388938Y-923925D01*
X388938Y-923131D01*
G37*
G54D33*
X388938Y-923131D02*
X388938Y-934244D01*
X451644Y-934244D01*
X452438Y-935038D01*
X452438Y-924719D01*
X451644Y-923925D01*
X388938Y-923925D01*
X388938Y-923131D01*
G36*
X375444Y-924719D02*
X375444Y-930275D01*
X391319Y-930275D01*
X391319Y-925512D01*
X377031Y-925512D01*
X376238Y-924719D01*
X375444Y-924719D01*
G37*
G54D33*
X375444Y-924719D02*
X375444Y-930275D01*
X391319Y-930275D01*
X391319Y-925512D01*
X377031Y-925512D01*
X376238Y-924719D01*
X375444Y-924719D01*
G36*
X339725Y-893762D02*
X339725Y-936625D01*
X342900Y-936625D01*
X369094Y-910431D01*
X461169Y-910431D01*
X461169Y-908050D01*
X451644Y-898525D01*
X371475Y-898525D01*
X365125Y-892175D01*
X341312Y-892175D01*
X339725Y-893762D01*
G37*
G54D33*
X339725Y-893762D02*
X339725Y-936625D01*
X342900Y-936625D01*
X369094Y-910431D01*
X461169Y-910431D01*
X461169Y-908050D01*
X451644Y-898525D01*
X371475Y-898525D01*
X365125Y-892175D01*
X341312Y-892175D01*
X339725Y-893762D01*
G36*
X235744Y-924719D02*
X235744Y-954881D01*
X230188Y-960438D01*
X230188Y-969962D01*
X231775Y-971550D01*
X421481Y-971550D01*
X425450Y-967581D01*
X425450Y-955675D01*
X423862Y-954088D01*
X407194Y-954088D01*
X345281Y-892175D01*
X268288Y-892175D01*
X250031Y-910431D01*
X130175Y-910431D01*
X129381Y-911225D01*
X129381Y-919956D01*
X230188Y-919956D01*
X235744Y-925512D01*
X235744Y-924719D01*
G37*
G54D33*
X235744Y-924719D02*
X235744Y-954881D01*
X230188Y-960438D01*
X230188Y-969962D01*
X231775Y-971550D01*
X421481Y-971550D01*
X425450Y-967581D01*
X425450Y-955675D01*
X423862Y-954088D01*
X407194Y-954088D01*
X345281Y-892175D01*
X268288Y-892175D01*
X250031Y-910431D01*
X130175Y-910431D01*
X129381Y-911225D01*
X129381Y-919956D01*
X230188Y-919956D01*
X235744Y-925512D01*
X235744Y-924719D01*
G36*
X481012Y-867569D02*
X481012Y-907256D01*
X481806Y-908050D01*
X387350Y-908050D01*
X381794Y-902494D01*
X381794Y-882650D01*
X387350Y-877094D01*
X469900Y-877094D01*
X479425Y-867569D01*
X481012Y-867569D01*
G37*
G54D33*
X481012Y-867569D02*
X481012Y-907256D01*
X481806Y-908050D01*
X387350Y-908050D01*
X381794Y-902494D01*
X381794Y-882650D01*
X387350Y-877094D01*
X469900Y-877094D01*
X479425Y-867569D01*
X481012Y-867569D01*
G36*
X484188Y-865188D02*
X484188Y-904081D01*
X483394Y-904875D01*
X484188Y-865188D01*
G37*
G54D33*
X484188Y-865188D02*
X484188Y-904081D01*
X483394Y-904875D01*
X484188Y-865188D01*
G36*
X484188Y-930275D02*
X484188Y-967581D01*
X484981Y-968375D01*
X598488Y-968375D01*
X599281Y-969169D01*
X599281Y-959644D01*
X598488Y-958850D01*
X594519Y-958850D01*
X574675Y-939006D01*
X569912Y-939006D01*
X554831Y-923925D01*
X491331Y-923925D01*
X484981Y-930275D01*
X484188Y-930275D01*
G37*
G54D33*
X484188Y-930275D02*
X484188Y-967581D01*
X484981Y-968375D01*
X598488Y-968375D01*
X599281Y-969169D01*
X599281Y-959644D01*
X598488Y-958850D01*
X594519Y-958850D01*
X574675Y-939006D01*
X569912Y-939006D01*
X554831Y-923925D01*
X491331Y-923925D01*
X484981Y-930275D01*
X484188Y-930275D01*
G36*
X742156Y-838200D02*
X742156Y-843756D01*
X773906Y-875506D01*
X840581Y-875506D01*
X841375Y-874712D01*
X841375Y-845344D01*
X795338Y-845344D01*
X755650Y-805656D01*
X742950Y-805656D01*
X742156Y-806450D01*
X742156Y-841375D01*
X742156Y-838200D01*
G37*
G54D33*
X742156Y-838200D02*
X742156Y-843756D01*
X773906Y-875506D01*
X840581Y-875506D01*
X841375Y-874712D01*
X841375Y-845344D01*
X795338Y-845344D01*
X755650Y-805656D01*
X742950Y-805656D01*
X742156Y-806450D01*
X742156Y-841375D01*
X742156Y-838200D01*
G36*
X869950Y-650875D02*
X952500Y-650875D01*
X953294Y-650081D01*
X953294Y-643731D01*
X862806Y-643731D01*
X862806Y-648494D01*
X869156Y-648494D01*
X871538Y-650875D01*
X869950Y-650875D01*
G37*
G54D33*
X869950Y-650875D02*
X952500Y-650875D01*
X953294Y-650081D01*
X953294Y-643731D01*
X862806Y-643731D01*
X862806Y-648494D01*
X869156Y-648494D01*
X871538Y-650875D01*
X869950Y-650875D01*
G54D29*
X673894Y-669925D02*
X673894Y-601662D01*
X662781Y-590550D01*
G54D30*
X623094Y-669925D02*
X645319Y-669925D01*
X667544Y-692150D01*
X687388Y-692150D01*
X719931Y-659606D01*
X846931Y-659606D01*
X857250Y-649288D01*
X857250Y-632619D01*
G36*
X873922Y-289751D02*
X885066Y-278607D01*
X900878Y-278607D01*
X912022Y-289751D01*
X912022Y-305563D01*
X900878Y-316707D01*
X885066Y-316707D01*
X873922Y-305563D01*
X873922Y-289751D01*
G37*
G36*
X805662Y-289752D02*
X816806Y-278608D01*
X832618Y-278608D01*
X843762Y-289752D01*
X843762Y-305564D01*
X832618Y-316708D01*
X816806Y-316708D01*
X805662Y-305564D01*
X805662Y-289752D01*
G37*
G36*
X505142Y-485280D02*
X517030Y-473392D01*
X533896Y-473392D01*
X545782Y-485280D01*
X545782Y-502146D01*
X533896Y-514032D01*
X517030Y-514032D01*
X505142Y-502146D01*
X505142Y-485280D01*
G37*
G36*
X473869Y-58769D02*
X485013Y-47625D01*
X500825Y-47625D01*
X511969Y-58769D01*
X511969Y-74581D01*
X500825Y-85725D01*
X485013Y-85725D01*
X473869Y-74581D01*
X473869Y-58769D01*
G37*
G54D34*
X6350Y-6350D02*
X996950Y-6350D01*
X996950Y-990600D01*
X6350Y-990600D01*
X6350Y-6350D01*
X877888Y-103981D02*
G54D10*
D03*
X877887Y-153982D02*
G54D10*
D03*
X842172Y-142875D02*
G54D10*
D03*
X842169Y-104775D02*
G54D10*
D03*
G54D35*
X746125Y-46831D02*
X746125Y-164306D01*
X771525Y-189706D01*
X800100Y-189706D01*
G36*
X492919Y-569944D02*
X504063Y-558800D01*
X519875Y-558800D01*
X531019Y-569944D01*
X531019Y-585756D01*
X519875Y-596900D01*
X504063Y-596900D01*
X492919Y-585756D01*
X492919Y-569944D01*
G37*
X141477Y-171452D02*
G54D13*
D03*
X141476Y-247652D02*
G54D13*
D03*
G54D36*
X943769Y-549275D02*
X962819Y-549275D01*
X972344Y-539750D01*
X972344Y-500856D01*
X962025Y-490538D01*
X962025Y-477044D01*
X331836Y-113266D02*
G54D37*
D03*
X230236Y-113266D02*
G54D37*
D03*
X537116Y-182022D02*
G54D37*
D03*
X537116Y-80422D02*
G54D37*
D03*
G54D38*
X656431Y-927894D02*
X656431Y-946944D01*
G54D38*
X681831Y-927894D02*
X681831Y-946944D01*
G36*
X780256Y-654050D02*
X842962Y-654050D01*
X850106Y-646906D01*
X850106Y-642938D01*
X847725Y-640556D01*
X784225Y-640556D01*
X780256Y-644525D01*
X780256Y-654050D01*
G37*
G54D39*
X780256Y-654050D02*
X842962Y-654050D01*
X850106Y-646906D01*
X850106Y-642938D01*
X847725Y-640556D01*
X784225Y-640556D01*
X780256Y-644525D01*
X780256Y-654050D01*
G36*
X881856Y-411956D02*
X881856Y-421481D01*
X908050Y-421481D01*
X908844Y-420688D01*
X908844Y-412750D01*
X908050Y-411956D01*
X881856Y-411956D01*
G37*
G54D39*
X881856Y-411956D02*
X881856Y-421481D01*
X908050Y-421481D01*
X908844Y-420688D01*
X908844Y-412750D01*
X908050Y-411956D01*
X881856Y-411956D01*
G36*
X120650Y-695325D02*
X120650Y-701675D01*
X121444Y-702469D01*
X127000Y-702469D01*
X128588Y-700881D01*
X128588Y-696119D01*
X120650Y-696119D01*
X120650Y-695325D01*
G37*
G54D39*
X120650Y-695325D02*
X120650Y-701675D01*
X121444Y-702469D01*
X127000Y-702469D01*
X128588Y-700881D01*
X128588Y-696119D01*
X120650Y-696119D01*
X120650Y-695325D01*
G36*
X698500Y-308006D02*
X709644Y-296862D01*
X725456Y-296862D01*
X736600Y-308006D01*
X736600Y-323818D01*
X725456Y-334962D01*
X709644Y-334962D01*
X698500Y-323818D01*
X698500Y-308006D01*
G37*
%LPD*%
G54D40*
G36*
X32334Y-114302D02*
X32334Y-97292D01*
X39107Y-97292D01*
X39107Y-114302D01*
X32334Y-114302D01*
G37*
G36*
X35721Y-110915D02*
X52731Y-110915D01*
X52731Y-117689D01*
X35721Y-117689D01*
X35721Y-110915D01*
G37*
G36*
X39107Y-114302D02*
X39107Y-131312D01*
X32334Y-131312D01*
X32334Y-114302D01*
X39107Y-114302D01*
G37*
G36*
X35721Y-117689D02*
X18711Y-117689D01*
X18711Y-110915D01*
X35721Y-110915D01*
X35721Y-117689D01*
G37*
G54D40*
G36*
X32334Y-241302D02*
X32334Y-224292D01*
X39107Y-224292D01*
X39107Y-241302D01*
X32334Y-241302D01*
G37*
G36*
X35721Y-237915D02*
X52731Y-237915D01*
X52731Y-244689D01*
X35721Y-244689D01*
X35721Y-237915D01*
G37*
G36*
X39107Y-241302D02*
X39107Y-258312D01*
X32334Y-258312D01*
X32334Y-241302D01*
X39107Y-241302D01*
G37*
G36*
X35721Y-244689D02*
X18711Y-244689D01*
X18711Y-237915D01*
X35721Y-237915D01*
X35721Y-244689D01*
G37*
G54D40*
G36*
X45245Y-414916D02*
X62255Y-414916D01*
X62255Y-421690D01*
X45245Y-421690D01*
X45245Y-414916D01*
G37*
G36*
X48631Y-418303D02*
X48631Y-435313D01*
X41858Y-435313D01*
X41858Y-418303D01*
X48631Y-418303D01*
G37*
G36*
X45245Y-421690D02*
X28235Y-421690D01*
X28235Y-414916D01*
X45245Y-414916D01*
X45245Y-421690D01*
G37*
G36*
X41858Y-418303D02*
X41858Y-401293D01*
X48631Y-401293D01*
X48631Y-418303D01*
X41858Y-418303D01*
G37*
G54D27*
G36*
X219874Y-386720D02*
X238154Y-386720D01*
X238154Y-394340D01*
X219874Y-394340D01*
X219874Y-386720D01*
G37*
G36*
X223684Y-390530D02*
X223684Y-408810D01*
X216064Y-408810D01*
X216064Y-390530D01*
X223684Y-390530D01*
G37*
G36*
X219874Y-394340D02*
X201594Y-394340D01*
X201594Y-386720D01*
X219874Y-386720D01*
X219874Y-394340D01*
G37*
G54D40*
G36*
X260934Y-219077D02*
X260934Y-202067D01*
X267707Y-202067D01*
X267707Y-219077D01*
X260934Y-219077D01*
G37*
G36*
X264321Y-215690D02*
X281331Y-215690D01*
X281331Y-222464D01*
X264321Y-222464D01*
X264321Y-215690D01*
G37*
G36*
X267707Y-219077D02*
X267707Y-236087D01*
X260934Y-236087D01*
X260934Y-219077D01*
X267707Y-219077D01*
G37*
G36*
X264321Y-222464D02*
X247311Y-222464D01*
X247311Y-215690D01*
X264321Y-215690D01*
X264321Y-222464D01*
G37*
G54D40*
G36*
X343698Y-189914D02*
X326688Y-189914D01*
X326688Y-183140D01*
X343698Y-183140D01*
X343698Y-189914D01*
G37*
G36*
X340311Y-186527D02*
X340311Y-169517D01*
X347084Y-169517D01*
X347084Y-186527D01*
X340311Y-186527D01*
G37*
G36*
X343698Y-183140D02*
X360708Y-183140D01*
X360708Y-189914D01*
X343698Y-189914D01*
X343698Y-183140D01*
G37*
G36*
X347084Y-186527D02*
X347084Y-203537D01*
X340311Y-203537D01*
X340311Y-186527D01*
X347084Y-186527D01*
G37*
G54D40*
G36*
X940389Y-403230D02*
X940389Y-386220D01*
X947163Y-386220D01*
X947163Y-403230D01*
X940389Y-403230D01*
G37*
G36*
X943776Y-399843D02*
X960786Y-399843D01*
X960786Y-406617D01*
X943776Y-406617D01*
X943776Y-399843D01*
G37*
G36*
X947163Y-403230D02*
X947163Y-420240D01*
X940389Y-420240D01*
X940389Y-403230D01*
X947163Y-403230D01*
G37*
G54D40*
G36*
X714960Y-428628D02*
X714960Y-411618D01*
X721733Y-411618D01*
X721733Y-428628D01*
X714960Y-428628D01*
G37*
G36*
X721733Y-428628D02*
X721733Y-445638D01*
X714960Y-445638D01*
X714960Y-428628D01*
X721733Y-428628D01*
G37*
G54D40*
G36*
X108534Y-787407D02*
X108534Y-770397D01*
X115307Y-770397D01*
X115307Y-787407D01*
X108534Y-787407D01*
G37*
G36*
X115307Y-787407D02*
X115307Y-804417D01*
X108534Y-804417D01*
X108534Y-787407D01*
X115307Y-787407D01*
G37*
G54D40*
G36*
X467309Y-723907D02*
X467309Y-706897D01*
X474082Y-706897D01*
X474082Y-723907D01*
X467309Y-723907D01*
G37*
G36*
X474082Y-723907D02*
X474082Y-740917D01*
X467309Y-740917D01*
X467309Y-723907D01*
X474082Y-723907D01*
G37*
G54D40*
G36*
X458207Y-942979D02*
X458207Y-959989D01*
X451434Y-959989D01*
X451434Y-942979D01*
X458207Y-942979D01*
G37*
G54D41*
G36*
X245272Y-311153D02*
X271172Y-311153D01*
X271172Y-317503D01*
X245272Y-317503D01*
X245272Y-311153D01*
G37*
G36*
X245272Y-317503D02*
X219372Y-317503D01*
X219372Y-311153D01*
X245272Y-311153D01*
X245272Y-317503D01*
G37*
G36*
X242097Y-314328D02*
X242097Y-297953D01*
X248447Y-297953D01*
X248447Y-314328D01*
X242097Y-314328D01*
G37*
G54D40*
G36*
X362745Y-418449D02*
X345735Y-418449D01*
X345735Y-411675D01*
X362745Y-411675D01*
X362745Y-418449D01*
G37*
G36*
X359358Y-415062D02*
X359358Y-398052D01*
X366132Y-398052D01*
X366132Y-415062D01*
X359358Y-415062D01*
G37*
G36*
X362745Y-411675D02*
X379755Y-411675D01*
X379755Y-418449D01*
X362745Y-418449D01*
X362745Y-411675D01*
G37*
G36*
X366132Y-415062D02*
X366132Y-432072D01*
X359358Y-432072D01*
X359358Y-415062D01*
X366132Y-415062D01*
G37*
G54D42*
G36*
X317237Y-323852D02*
X317237Y-304302D01*
X325704Y-304302D01*
X325704Y-323852D01*
X317237Y-323852D01*
G37*
G36*
X321471Y-319619D02*
X341021Y-319619D01*
X341021Y-328085D01*
X321471Y-328085D01*
X321471Y-319619D01*
G37*
G36*
X325704Y-323852D02*
X325704Y-343402D01*
X317237Y-343402D01*
X317237Y-323852D01*
X325704Y-323852D01*
G37*
G36*
X321471Y-328085D02*
X301921Y-328085D01*
X301921Y-319619D01*
X321471Y-319619D01*
X321471Y-328085D01*
G37*
G54D40*
G36*
X407196Y-415715D02*
X424206Y-415715D01*
X424206Y-422489D01*
X407196Y-422489D01*
X407196Y-415715D01*
G37*
G36*
X410582Y-419102D02*
X410582Y-436112D01*
X403809Y-436112D01*
X403809Y-419102D01*
X410582Y-419102D01*
G37*
G36*
X407196Y-422489D02*
X390186Y-422489D01*
X390186Y-415715D01*
X407196Y-415715D01*
X407196Y-422489D01*
G37*
G36*
X403809Y-419102D02*
X403809Y-402092D01*
X410582Y-402092D01*
X410582Y-419102D01*
X403809Y-419102D01*
G37*
G54D40*
G36*
X403809Y-381002D02*
X403809Y-363992D01*
X410582Y-363992D01*
X410582Y-381002D01*
X403809Y-381002D01*
G37*
G36*
X407196Y-377615D02*
X424206Y-377615D01*
X424206Y-384389D01*
X407196Y-384389D01*
X407196Y-377615D01*
G37*
G36*
X410582Y-381002D02*
X410582Y-398012D01*
X403809Y-398012D01*
X403809Y-381002D01*
X410582Y-381002D01*
G37*
G36*
X407196Y-384389D02*
X390186Y-384389D01*
X390186Y-377615D01*
X407196Y-377615D01*
X407196Y-384389D01*
G37*
G54D42*
G36*
X536313Y-304802D02*
X536313Y-285252D01*
X544780Y-285252D01*
X544780Y-304802D01*
X536313Y-304802D01*
G37*
G36*
X540547Y-300569D02*
X560097Y-300569D01*
X560097Y-309035D01*
X540547Y-309035D01*
X540547Y-300569D01*
G37*
G36*
X544780Y-304802D02*
X544780Y-324352D01*
X536313Y-324352D01*
X536313Y-304802D01*
X544780Y-304802D01*
G37*
G36*
X540547Y-309035D02*
X520997Y-309035D01*
X520997Y-300569D01*
X540547Y-300569D01*
X540547Y-309035D01*
G37*
G54D40*
G36*
X629236Y-315915D02*
X629236Y-298905D01*
X636009Y-298905D01*
X636009Y-315915D01*
X629236Y-315915D01*
G37*
G36*
X632623Y-312528D02*
X649633Y-312528D01*
X649633Y-319302D01*
X632623Y-319302D01*
X632623Y-312528D01*
G37*
G36*
X636009Y-315915D02*
X636009Y-332925D01*
X629236Y-332925D01*
X629236Y-315915D01*
X636009Y-315915D01*
G37*
G36*
X632623Y-319302D02*
X615613Y-319302D01*
X615613Y-312528D01*
X632623Y-312528D01*
X632623Y-319302D01*
G37*
G54D40*
G36*
X618911Y-463553D02*
X618911Y-446543D01*
X625684Y-446543D01*
X625684Y-463553D01*
X618911Y-463553D01*
G37*
G36*
X622298Y-460166D02*
X639308Y-460166D01*
X639308Y-466940D01*
X622298Y-466940D01*
X622298Y-460166D01*
G37*
G36*
X625684Y-463553D02*
X625684Y-480563D01*
X618911Y-480563D01*
X618911Y-463553D01*
X625684Y-463553D01*
G37*
G36*
X622298Y-466940D02*
X605288Y-466940D01*
X605288Y-460166D01*
X622298Y-460166D01*
X622298Y-466940D01*
G37*
G54D40*
G36*
X730037Y-463553D02*
X730037Y-446543D01*
X736810Y-446543D01*
X736810Y-463553D01*
X730037Y-463553D01*
G37*
G36*
X733424Y-460166D02*
X750434Y-460166D01*
X750434Y-466940D01*
X733424Y-466940D01*
X733424Y-460166D01*
G37*
G36*
X736810Y-463553D02*
X736810Y-480563D01*
X730037Y-480563D01*
X730037Y-463553D01*
X736810Y-463553D01*
G37*
G36*
X733424Y-466940D02*
X716414Y-466940D01*
X716414Y-460166D01*
X733424Y-460166D01*
X733424Y-466940D01*
G37*
G54D42*
G36*
X912148Y-160232D02*
X912148Y-140682D01*
X920615Y-140682D01*
X920615Y-160232D01*
X912148Y-160232D01*
G37*
G36*
X916381Y-155999D02*
X935931Y-155999D01*
X935931Y-164466D01*
X916381Y-164466D01*
X916381Y-155999D01*
G37*
G36*
X920615Y-160232D02*
X920615Y-179782D01*
X912148Y-179782D01*
X912148Y-160232D01*
X920615Y-160232D01*
G37*
G36*
X916381Y-164466D02*
X896831Y-164466D01*
X896831Y-155999D01*
X916381Y-155999D01*
X916381Y-164466D01*
G37*
G54D40*
G36*
X99223Y-508214D02*
X82213Y-508214D01*
X82213Y-501440D01*
X99223Y-501440D01*
X99223Y-508214D01*
G37*
G36*
X95836Y-504827D02*
X95836Y-487817D01*
X102609Y-487817D01*
X102609Y-504827D01*
X95836Y-504827D01*
G37*
G36*
X99223Y-501440D02*
X116233Y-501440D01*
X116233Y-508214D01*
X99223Y-508214D01*
X99223Y-501440D01*
G37*
G36*
X102609Y-504827D02*
X102609Y-521837D01*
X95836Y-521837D01*
X95836Y-504827D01*
X102609Y-504827D01*
G37*
G54D40*
G36*
X237910Y-501653D02*
X237910Y-484643D01*
X244683Y-484643D01*
X244683Y-501653D01*
X237910Y-501653D01*
G37*
G36*
X241297Y-498266D02*
X258307Y-498266D01*
X258307Y-505040D01*
X241297Y-505040D01*
X241297Y-498266D01*
G37*
G36*
X244683Y-501653D02*
X244683Y-518663D01*
X237910Y-518663D01*
X237910Y-501653D01*
X244683Y-501653D01*
G37*
G36*
X241297Y-505040D02*
X224287Y-505040D01*
X224287Y-498266D01*
X241297Y-498266D01*
X241297Y-505040D01*
G37*
G54D40*
G36*
X143881Y-568327D02*
X143881Y-585337D01*
X137108Y-585337D01*
X137108Y-568327D01*
X143881Y-568327D01*
G37*
G36*
X140495Y-571714D02*
X123485Y-571714D01*
X123485Y-564940D01*
X140495Y-564940D01*
X140495Y-571714D01*
G37*
G36*
X137108Y-568327D02*
X137108Y-551317D01*
X143881Y-551317D01*
X143881Y-568327D01*
X137108Y-568327D01*
G37*
G36*
X140495Y-564940D02*
X157505Y-564940D01*
X157505Y-571714D01*
X140495Y-571714D01*
X140495Y-564940D01*
G37*
G54D40*
G36*
X352210Y-501653D02*
X352210Y-484643D01*
X358983Y-484643D01*
X358983Y-501653D01*
X352210Y-501653D01*
G37*
G36*
X355597Y-498266D02*
X372607Y-498266D01*
X372607Y-505040D01*
X355597Y-505040D01*
X355597Y-498266D01*
G37*
G36*
X358983Y-501653D02*
X358983Y-518663D01*
X352210Y-518663D01*
X352210Y-501653D01*
X358983Y-501653D01*
G37*
G36*
X355597Y-505040D02*
X338587Y-505040D01*
X338587Y-498266D01*
X355597Y-498266D01*
X355597Y-505040D01*
G37*
G54D40*
G36*
X229185Y-644531D02*
X229185Y-627521D01*
X235958Y-627521D01*
X235958Y-644531D01*
X229185Y-644531D01*
G37*
G36*
X232572Y-641144D02*
X249582Y-641144D01*
X249582Y-647918D01*
X232572Y-647918D01*
X232572Y-641144D01*
G37*
G36*
X232572Y-647918D02*
X215562Y-647918D01*
X215562Y-641144D01*
X232572Y-641144D01*
X232572Y-647918D01*
G37*
G54D40*
G36*
X92870Y-612565D02*
X109880Y-612565D01*
X109880Y-619339D01*
X92870Y-619339D01*
X92870Y-612565D01*
G37*
G36*
X96256Y-615952D02*
X96256Y-632962D01*
X89483Y-632962D01*
X89483Y-615952D01*
X96256Y-615952D01*
G37*
G36*
X92870Y-619339D02*
X75860Y-619339D01*
X75860Y-612565D01*
X92870Y-612565D01*
X92870Y-619339D01*
G37*
G36*
X89483Y-615952D02*
X89483Y-598942D01*
X96256Y-598942D01*
X96256Y-615952D01*
X89483Y-615952D01*
G37*
G54D40*
G36*
X107735Y-863607D02*
X107735Y-846597D01*
X114508Y-846597D01*
X114508Y-863607D01*
X107735Y-863607D01*
G37*
G36*
X114508Y-863607D02*
X114508Y-880617D01*
X107735Y-880617D01*
X107735Y-863607D01*
X114508Y-863607D01*
G37*
G36*
X111122Y-866994D02*
X94112Y-866994D01*
X94112Y-860220D01*
X111122Y-860220D01*
X111122Y-866994D01*
G37*
G54D40*
G36*
X321258Y-736604D02*
X321258Y-719594D01*
X328032Y-719594D01*
X328032Y-736604D01*
X321258Y-736604D01*
G37*
G36*
X324645Y-733217D02*
X341655Y-733217D01*
X341655Y-739991D01*
X324645Y-739991D01*
X324645Y-733217D01*
G37*
G36*
X328032Y-736604D02*
X328032Y-753614D01*
X321258Y-753614D01*
X321258Y-736604D01*
X328032Y-736604D01*
G37*
G36*
X324645Y-739991D02*
X307635Y-739991D01*
X307635Y-733217D01*
X324645Y-733217D01*
X324645Y-739991D01*
G37*
G54D40*
G36*
X371260Y-774704D02*
X371260Y-757694D01*
X378033Y-757694D01*
X378033Y-774704D01*
X371260Y-774704D01*
G37*
G36*
X374647Y-771317D02*
X391657Y-771317D01*
X391657Y-778091D01*
X374647Y-778091D01*
X374647Y-771317D01*
G37*
G36*
X378033Y-774704D02*
X378033Y-791714D01*
X371260Y-791714D01*
X371260Y-774704D01*
X378033Y-774704D01*
G37*
G36*
X374647Y-778091D02*
X357637Y-778091D01*
X357637Y-771317D01*
X374647Y-771317D01*
X374647Y-778091D01*
G37*
G54D40*
G36*
X594313Y-949333D02*
X594313Y-932323D01*
X601086Y-932323D01*
X601086Y-949333D01*
X594313Y-949333D01*
G37*
G36*
X597700Y-945946D02*
X614710Y-945946D01*
X614710Y-952720D01*
X597700Y-952720D01*
X597700Y-945946D01*
G37*
G36*
X595305Y-951728D02*
X583277Y-939700D01*
X588067Y-934910D01*
X600094Y-946938D01*
X595305Y-951728D01*
G37*
G54D42*
G36*
X676013Y-746127D02*
X676013Y-726577D01*
X684479Y-726577D01*
X684479Y-746127D01*
X676013Y-746127D01*
G37*
G36*
X680246Y-741894D02*
X699796Y-741894D01*
X699796Y-750360D01*
X680246Y-750360D01*
X680246Y-741894D01*
G37*
G36*
X684479Y-746127D02*
X684479Y-765677D01*
X676013Y-765677D01*
X676013Y-746127D01*
X684479Y-746127D01*
G37*
G36*
X680246Y-750360D02*
X660696Y-750360D01*
X660696Y-741894D01*
X680246Y-741894D01*
X680246Y-750360D01*
G37*
G54D27*
G36*
X471179Y-762489D02*
X484105Y-749563D01*
X489493Y-754951D01*
X476567Y-767877D01*
X471179Y-762489D01*
G37*
G36*
X473873Y-761373D02*
X492153Y-761373D01*
X492153Y-768993D01*
X473873Y-768993D01*
X473873Y-761373D01*
G37*
G36*
X476567Y-762489D02*
X489493Y-775415D01*
X484105Y-780803D01*
X471179Y-767877D01*
X476567Y-762489D01*
G37*
G54D40*
G36*
X518323Y-870166D02*
X501313Y-870166D01*
X501313Y-863392D01*
X518323Y-863392D01*
X518323Y-870166D01*
G37*
G36*
X514936Y-866779D02*
X514936Y-849769D01*
X521709Y-849769D01*
X521709Y-866779D01*
X514936Y-866779D01*
G37*
G36*
X518323Y-863392D02*
X535333Y-863392D01*
X535333Y-870166D01*
X518323Y-870166D01*
X518323Y-863392D01*
G37*
G36*
X521709Y-866779D02*
X521709Y-883789D01*
X514936Y-883789D01*
X514936Y-866779D01*
X521709Y-866779D01*
G37*
G54D40*
G36*
X407197Y-553464D02*
X390187Y-553464D01*
X390187Y-546690D01*
X407197Y-546690D01*
X407197Y-553464D01*
G37*
G36*
X403810Y-550077D02*
X403810Y-533067D01*
X410583Y-533067D01*
X410583Y-550077D01*
X403810Y-550077D01*
G37*
G36*
X407197Y-546690D02*
X424207Y-546690D01*
X424207Y-553464D01*
X407197Y-553464D01*
X407197Y-546690D01*
G37*
G36*
X410583Y-550077D02*
X410583Y-567087D01*
X403810Y-567087D01*
X403810Y-550077D01*
X410583Y-550077D01*
G37*
G54D27*
G36*
X511812Y-535785D02*
X511812Y-554065D01*
X504192Y-554065D01*
X504192Y-535785D01*
X511812Y-535785D01*
G37*
G36*
X508002Y-539595D02*
X489722Y-539595D01*
X489722Y-531975D01*
X508002Y-531975D01*
X508002Y-539595D01*
G37*
G36*
X504192Y-535785D02*
X504192Y-517505D01*
X511812Y-517505D01*
X511812Y-535785D01*
X504192Y-535785D01*
G37*
G36*
X508002Y-531975D02*
X526282Y-531975D01*
X526282Y-539595D01*
X508002Y-539595D01*
X508002Y-531975D01*
G37*
G54D40*
G36*
X877098Y-41489D02*
X860088Y-41489D01*
X860088Y-34715D01*
X877098Y-34715D01*
X877098Y-41489D01*
G37*
G36*
X873711Y-38102D02*
X873711Y-21092D01*
X880484Y-21092D01*
X880484Y-38102D01*
X873711Y-38102D01*
G37*
G36*
X877098Y-34715D02*
X894108Y-34715D01*
X894108Y-41489D01*
X877098Y-41489D01*
X877098Y-34715D01*
G37*
G54D43*
G36*
X963295Y-946150D02*
X963295Y-985385D01*
X941705Y-985385D01*
X941705Y-946150D01*
X963295Y-946150D01*
G37*
G36*
X952500Y-956945D02*
X913265Y-956945D01*
X913265Y-935355D01*
X952500Y-935355D01*
X952500Y-956945D01*
G37*
G36*
X941705Y-946150D02*
X941705Y-906915D01*
X963295Y-906915D01*
X963295Y-946150D01*
X941705Y-946150D01*
G37*
G36*
X952500Y-935355D02*
X991735Y-935355D01*
X991735Y-956945D01*
X952500Y-956945D01*
X952500Y-935355D01*
G37*
G54D43*
G36*
X963295Y-50800D02*
X963295Y-90035D01*
X941705Y-90035D01*
X941705Y-50800D01*
X963295Y-50800D01*
G37*
G36*
X952500Y-61595D02*
X913265Y-61595D01*
X913265Y-40005D01*
X952500Y-40005D01*
X952500Y-61595D01*
G37*
G36*
X941705Y-50800D02*
X941705Y-11565D01*
X963295Y-11565D01*
X963295Y-50800D01*
X941705Y-50800D01*
G37*
G36*
X952500Y-40005D02*
X991735Y-40005D01*
X991735Y-61595D01*
X952500Y-61595D01*
X952500Y-40005D01*
G37*
G54D43*
G36*
X61595Y-50800D02*
X61595Y-90035D01*
X40005Y-90035D01*
X40005Y-50800D01*
X61595Y-50800D01*
G37*
G36*
X50800Y-61595D02*
X11565Y-61595D01*
X11565Y-40005D01*
X50800Y-40005D01*
X50800Y-61595D01*
G37*
G36*
X40005Y-50800D02*
X40005Y-11565D01*
X61595Y-11565D01*
X61595Y-50800D01*
X40005Y-50800D01*
G37*
G36*
X50800Y-40005D02*
X90035Y-40005D01*
X90035Y-61595D01*
X50800Y-61595D01*
X50800Y-40005D01*
G37*
G54D43*
G36*
X61595Y-946152D02*
X61595Y-985387D01*
X40005Y-985387D01*
X40005Y-946152D01*
X61595Y-946152D01*
G37*
G36*
X50800Y-956947D02*
X11565Y-956947D01*
X11565Y-935357D01*
X50800Y-935357D01*
X50800Y-956947D01*
G37*
G36*
X40005Y-946152D02*
X40005Y-906917D01*
X61595Y-906917D01*
X61595Y-946152D01*
X40005Y-946152D01*
G37*
G36*
X50800Y-935357D02*
X90035Y-935357D01*
X90035Y-956947D01*
X50800Y-956947D01*
X50800Y-935357D01*
G37*
G54D40*
G36*
X773912Y-124832D02*
X756902Y-124832D01*
X756902Y-118058D01*
X773912Y-118058D01*
X773912Y-124832D01*
G37*
G36*
X770526Y-121445D02*
X770526Y-104435D01*
X777299Y-104435D01*
X777299Y-121445D01*
X770526Y-121445D01*
G37*
G36*
X773912Y-118058D02*
X790922Y-118058D01*
X790922Y-124832D01*
X773912Y-124832D01*
X773912Y-118058D01*
G37*
G54D40*
G36*
X537373Y-216114D02*
X520363Y-216114D01*
X520363Y-209340D01*
X537373Y-209340D01*
X537373Y-216114D01*
G37*
G36*
X537373Y-209340D02*
X554383Y-209340D01*
X554383Y-216114D01*
X537373Y-216114D01*
X537373Y-209340D01*
G37*
G54D40*
G36*
X413758Y-774706D02*
X413758Y-791716D01*
X406985Y-791716D01*
X406985Y-774706D01*
X413758Y-774706D01*
G37*
G36*
X410372Y-778093D02*
X393362Y-778093D01*
X393362Y-771319D01*
X410372Y-771319D01*
X410372Y-778093D01*
G37*
G36*
X406985Y-774706D02*
X406985Y-757696D01*
X413758Y-757696D01*
X413758Y-774706D01*
X406985Y-774706D01*
G37*
G54D44*
G36*
X300008Y-47626D02*
X300008Y-73526D01*
X292134Y-73526D01*
X292134Y-47626D01*
X300008Y-47626D01*
G37*
G36*
X292134Y-47626D02*
X292134Y-21726D01*
X300008Y-21726D01*
X300008Y-47626D01*
X292134Y-47626D01*
G37*
G54D45*
G36*
X801568Y-47627D02*
X801568Y-73527D01*
X793884Y-73527D01*
X793884Y-47627D01*
X801568Y-47627D01*
G37*
G36*
X793884Y-47627D02*
X793884Y-21727D01*
X801568Y-21727D01*
X801568Y-47627D01*
X793884Y-47627D01*
G37*
G54D45*
G36*
X776169Y-47628D02*
X776169Y-73528D01*
X768485Y-73528D01*
X768485Y-47628D01*
X776169Y-47628D01*
G37*
G36*
X768485Y-47628D02*
X768485Y-21728D01*
X776169Y-21728D01*
X776169Y-47628D01*
X768485Y-47628D01*
G37*
G36*
X772327Y-43786D02*
X788702Y-43786D01*
X788702Y-51470D01*
X772327Y-51470D01*
X772327Y-43786D01*
G37*
G54D41*
G36*
X613530Y-47776D02*
X613530Y-73676D01*
X607180Y-73676D01*
X607180Y-47776D01*
X613530Y-47776D01*
G37*
G36*
X607180Y-47776D02*
X607180Y-21876D01*
X613530Y-21876D01*
X613530Y-47776D01*
X607180Y-47776D01*
G37*
G54D45*
G36*
X117602Y-939810D02*
X117602Y-913910D01*
X125286Y-913910D01*
X125286Y-939810D01*
X117602Y-939810D01*
G37*
G36*
X125286Y-939810D02*
X125286Y-965710D01*
X117602Y-965710D01*
X117602Y-939810D01*
X125286Y-939810D01*
G37*
G36*
X121444Y-943652D02*
X105069Y-943652D01*
X105069Y-935968D01*
X121444Y-935968D01*
X121444Y-943652D01*
G37*
G54D42*
G36*
X859528Y-592018D02*
X839978Y-592018D01*
X839978Y-583552D01*
X859528Y-583552D01*
X859528Y-592018D01*
G37*
G36*
X855295Y-587785D02*
X855295Y-568235D01*
X863762Y-568235D01*
X863762Y-587785D01*
X855295Y-587785D01*
G37*
G36*
X859528Y-583552D02*
X879078Y-583552D01*
X879078Y-592018D01*
X859528Y-592018D01*
X859528Y-583552D01*
G37*
G36*
X863762Y-587785D02*
X863762Y-607335D01*
X855295Y-607335D01*
X855295Y-587785D01*
X863762Y-587785D01*
G37*
G54D40*
G36*
X763011Y-533403D02*
X763011Y-550413D01*
X756238Y-550413D01*
X756238Y-533403D01*
X763011Y-533403D01*
G37*
G36*
X759625Y-536790D02*
X742615Y-536790D01*
X742615Y-530016D01*
X759625Y-530016D01*
X759625Y-536790D01*
G37*
G36*
X756238Y-533403D02*
X756238Y-516393D01*
X763011Y-516393D01*
X763011Y-533403D01*
X756238Y-533403D01*
G37*
G54D40*
G36*
X773117Y-951129D02*
X756107Y-951129D01*
X756107Y-944355D01*
X773117Y-944355D01*
X773117Y-951129D01*
G37*
G36*
X769730Y-947742D02*
X769730Y-930732D01*
X776503Y-930732D01*
X776503Y-947742D01*
X769730Y-947742D01*
G37*
G36*
X773117Y-944355D02*
X790127Y-944355D01*
X790127Y-951129D01*
X773117Y-951129D01*
X773117Y-944355D01*
G37*
G36*
X776503Y-947742D02*
X776503Y-964752D01*
X769730Y-964752D01*
X769730Y-947742D01*
X776503Y-947742D01*
G37*
G54D40*
G36*
X741365Y-951127D02*
X724355Y-951127D01*
X724355Y-944353D01*
X741365Y-944353D01*
X741365Y-951127D01*
G37*
G36*
X737978Y-947740D02*
X737978Y-930730D01*
X744751Y-930730D01*
X744751Y-947740D01*
X737978Y-947740D01*
G37*
G36*
X741365Y-944353D02*
X758375Y-944353D01*
X758375Y-951127D01*
X741365Y-951127D01*
X741365Y-944353D01*
G37*
G36*
X744751Y-947740D02*
X744751Y-964750D01*
X737978Y-964750D01*
X737978Y-947740D01*
X744751Y-947740D01*
G37*
G54D42*
G36*
X136261Y-863602D02*
X136261Y-844052D01*
X144728Y-844052D01*
X144728Y-863602D01*
X136261Y-863602D01*
G37*
G36*
X140495Y-859369D02*
X160045Y-859369D01*
X160045Y-867835D01*
X140495Y-867835D01*
X140495Y-859369D01*
G37*
G36*
X144728Y-863602D02*
X144728Y-883152D01*
X136261Y-883152D01*
X136261Y-863602D01*
X144728Y-863602D01*
G37*
G36*
X140495Y-867835D02*
X120945Y-867835D01*
X120945Y-859369D01*
X140495Y-859369D01*
X140495Y-867835D01*
G37*
G54D42*
G36*
X238921Y-802221D02*
X258471Y-802221D01*
X258471Y-810687D01*
X238921Y-810687D01*
X238921Y-802221D01*
G37*
G36*
X243154Y-806454D02*
X243154Y-826004D01*
X234687Y-826004D01*
X234687Y-806454D01*
X243154Y-806454D01*
G37*
G36*
X238921Y-810687D02*
X219371Y-810687D01*
X219371Y-802221D01*
X238921Y-802221D01*
X238921Y-810687D01*
G37*
G54D42*
G36*
X242097Y-668873D02*
X261647Y-668873D01*
X261647Y-677339D01*
X242097Y-677339D01*
X242097Y-668873D01*
G37*
G36*
X246330Y-673106D02*
X246330Y-692656D01*
X237863Y-692656D01*
X237863Y-673106D01*
X246330Y-673106D01*
G37*
G36*
X242097Y-677339D02*
X222547Y-677339D01*
X222547Y-668873D01*
X242097Y-668873D01*
X242097Y-677339D01*
G37*
G54D46*
G36*
X732743Y-711206D02*
X732743Y-690386D01*
X742056Y-690386D01*
X742056Y-711206D01*
X732743Y-711206D01*
G37*
G36*
X740692Y-714499D02*
X725971Y-729221D01*
X719385Y-722635D01*
X734107Y-707913D01*
X740692Y-714499D01*
G37*
G36*
X737400Y-715863D02*
X716580Y-715863D01*
X716580Y-706549D01*
X737400Y-706549D01*
X737400Y-715863D01*
G37*
G36*
X734107Y-714499D02*
X719385Y-699777D01*
X725971Y-693191D01*
X740692Y-707913D01*
X734107Y-714499D01*
G37*
G54D47*
G36*
X845987Y-965208D02*
X845987Y-941213D01*
X857417Y-941213D01*
X857417Y-965208D01*
X845987Y-965208D01*
G37*
G36*
X851702Y-959493D02*
X875697Y-959493D01*
X875697Y-970923D01*
X851702Y-970923D01*
X851702Y-959493D01*
G37*
G36*
X851702Y-970923D02*
X827707Y-970923D01*
X827707Y-959493D01*
X851702Y-959493D01*
X851702Y-970923D01*
G37*
G54D40*
G36*
X181771Y-117689D02*
X164761Y-117689D01*
X164761Y-110915D01*
X181771Y-110915D01*
X181771Y-117689D01*
G37*
G36*
X178384Y-114302D02*
X178384Y-97292D01*
X185157Y-97292D01*
X185157Y-114302D01*
X178384Y-114302D01*
G37*
G36*
X181771Y-110915D02*
X198781Y-110915D01*
X198781Y-117689D01*
X181771Y-117689D01*
X181771Y-110915D01*
G37*
G54D41*
G36*
X425410Y-47777D02*
X425410Y-73677D01*
X419060Y-73677D01*
X419060Y-47777D01*
X425410Y-47777D01*
G37*
G36*
X419060Y-47777D02*
X419060Y-21877D01*
X425410Y-21877D01*
X425410Y-47777D01*
X419060Y-47777D01*
G37*
G54D42*
G36*
X276492Y-573091D02*
X276492Y-592641D01*
X268025Y-592641D01*
X268025Y-573091D01*
X276492Y-573091D01*
G37*
G36*
X272259Y-577324D02*
X252709Y-577324D01*
X252709Y-568858D01*
X272259Y-568858D01*
X272259Y-577324D01*
G37*
G36*
X268025Y-573091D02*
X268025Y-553541D01*
X276492Y-553541D01*
X276492Y-573091D01*
X268025Y-573091D01*
G37*
G36*
X272259Y-568858D02*
X291809Y-568858D01*
X291809Y-577324D01*
X272259Y-577324D01*
X272259Y-568858D01*
G37*
G54D42*
G36*
X457206Y-497952D02*
X437656Y-497952D01*
X437656Y-489485D01*
X457206Y-489485D01*
X457206Y-497952D01*
G37*
G36*
X452972Y-493718D02*
X452972Y-474168D01*
X461439Y-474168D01*
X461439Y-493718D01*
X452972Y-493718D01*
G37*
G36*
X457206Y-489485D02*
X476756Y-489485D01*
X476756Y-497952D01*
X457206Y-497952D01*
X457206Y-489485D01*
G37*
G54D27*
G36*
X830108Y-225427D02*
X830108Y-243707D01*
X822488Y-243707D01*
X822488Y-225427D01*
X830108Y-225427D01*
G37*
G36*
X826298Y-229237D02*
X808018Y-229237D01*
X808018Y-221617D01*
X826298Y-221617D01*
X826298Y-229237D01*
G37*
G36*
X826298Y-221617D02*
X844578Y-221617D01*
X844578Y-229237D01*
X826298Y-229237D01*
X826298Y-221617D01*
G37*
G54D40*
G36*
X626061Y-225427D02*
X626061Y-208417D01*
X632834Y-208417D01*
X632834Y-225427D01*
X626061Y-225427D01*
G37*
G36*
X629448Y-222040D02*
X646458Y-222040D01*
X646458Y-228814D01*
X629448Y-228814D01*
X629448Y-222040D01*
G37*
G36*
X632834Y-225427D02*
X632834Y-242437D01*
X626061Y-242437D01*
X626061Y-225427D01*
X632834Y-225427D01*
G37*
G36*
X629448Y-228814D02*
X612438Y-228814D01*
X612438Y-222040D01*
X629448Y-222040D01*
X629448Y-228814D01*
G37*
G54D40*
G36*
X744333Y-253208D02*
X744333Y-236198D01*
X751106Y-236198D01*
X751106Y-253208D01*
X744333Y-253208D01*
G37*
G36*
X745325Y-250813D02*
X757353Y-238785D01*
X762142Y-243575D01*
X750114Y-255602D01*
X745325Y-250813D01*
G37*
G36*
X747720Y-256594D02*
X730710Y-256594D01*
X730710Y-249821D01*
X747720Y-249821D01*
X747720Y-256594D01*
G37*
G36*
X745325Y-255602D02*
X733297Y-243575D01*
X738086Y-238785D01*
X750114Y-250813D01*
X745325Y-255602D01*
G37*
G54D48*
G36*
X170341Y-47627D02*
X170341Y-25537D01*
X180501Y-25537D01*
X180501Y-47627D01*
X170341Y-47627D01*
G37*
G36*
X175421Y-42547D02*
X197511Y-42547D01*
X197511Y-52707D01*
X175421Y-52707D01*
X175421Y-42547D01*
G37*
G36*
X180501Y-47627D02*
X180501Y-69717D01*
X170341Y-69717D01*
X170341Y-47627D01*
X180501Y-47627D01*
G37*
G36*
X175421Y-52707D02*
X153331Y-52707D01*
X153331Y-42547D01*
X175421Y-42547D01*
X175421Y-52707D01*
G37*
G54D42*
G36*
X308389Y-872191D02*
X288839Y-872191D01*
X288839Y-863725D01*
X308389Y-863725D01*
X308389Y-872191D01*
G37*
G36*
X304155Y-867958D02*
X304155Y-848408D01*
X312622Y-848408D01*
X312622Y-867958D01*
X304155Y-867958D01*
G37*
G36*
X308389Y-863725D02*
X327939Y-863725D01*
X327939Y-872191D01*
X308389Y-872191D01*
X308389Y-863725D01*
G37*
G54D42*
G36*
X566888Y-272669D02*
X566888Y-253119D01*
X575355Y-253119D01*
X575355Y-272669D01*
X566888Y-272669D01*
G37*
G36*
X571122Y-268436D02*
X590672Y-268436D01*
X590672Y-276902D01*
X571122Y-276902D01*
X571122Y-268436D01*
G37*
G36*
X575355Y-272669D02*
X575355Y-292219D01*
X566888Y-292219D01*
X566888Y-272669D01*
X575355Y-272669D01*
G37*
G36*
X571122Y-276902D02*
X551572Y-276902D01*
X551572Y-268436D01*
X571122Y-268436D01*
X571122Y-276902D01*
G37*
G54D40*
G36*
X439528Y-105571D02*
X439528Y-88561D01*
X446302Y-88561D01*
X446302Y-105571D01*
X439528Y-105571D01*
G37*
G36*
X442915Y-102184D02*
X459925Y-102184D01*
X459925Y-108957D01*
X442915Y-108957D01*
X442915Y-102184D01*
G37*
G36*
X446302Y-105571D02*
X446302Y-122581D01*
X439528Y-122581D01*
X439528Y-105571D01*
X446302Y-105571D01*
G37*
G36*
X442915Y-108957D02*
X425905Y-108957D01*
X425905Y-102184D01*
X442915Y-102184D01*
X442915Y-108957D01*
G37*
G54D42*
G36*
X820479Y-297658D02*
X820479Y-278108D01*
X828945Y-278108D01*
X828945Y-297658D01*
X820479Y-297658D01*
G37*
G36*
X824712Y-293425D02*
X844262Y-293425D01*
X844262Y-301891D01*
X824712Y-301891D01*
X824712Y-293425D01*
G37*
G36*
X828945Y-297658D02*
X828945Y-317208D01*
X820479Y-317208D01*
X820479Y-297658D01*
X828945Y-297658D01*
G37*
G36*
X824712Y-301891D02*
X805162Y-301891D01*
X805162Y-293425D01*
X824712Y-293425D01*
X824712Y-301891D01*
G37*
G54D40*
G36*
X842172Y-139488D02*
X859182Y-139488D01*
X859182Y-146262D01*
X842172Y-146262D01*
X842172Y-139488D01*
G37*
G36*
X845559Y-142875D02*
X845559Y-159885D01*
X838786Y-159885D01*
X838786Y-142875D01*
X845559Y-142875D01*
G37*
G36*
X842172Y-146262D02*
X825162Y-146262D01*
X825162Y-139488D01*
X842172Y-139488D01*
X842172Y-146262D01*
G37*
G36*
X838786Y-142875D02*
X838786Y-125865D01*
X845559Y-125865D01*
X845559Y-142875D01*
X838786Y-142875D01*
G37*
G54D40*
G36*
X138090Y-171452D02*
X138090Y-154442D01*
X144864Y-154442D01*
X144864Y-171452D01*
X138090Y-171452D01*
G37*
G36*
X141477Y-168065D02*
X158487Y-168065D01*
X158487Y-174838D01*
X141477Y-174838D01*
X141477Y-168065D01*
G37*
G36*
X144864Y-171452D02*
X144864Y-188462D01*
X138090Y-188462D01*
X138090Y-171452D01*
X144864Y-171452D01*
G37*
G36*
X141477Y-174838D02*
X124467Y-174838D01*
X124467Y-168065D01*
X141477Y-168065D01*
X141477Y-174838D01*
G37*
X35721Y-114302D02*
G54D49*
D03*
X85720Y-114300D02*
G54D49*
D03*
X48419Y-152400D02*
G54D50*
D03*
X86519Y-203200D02*
G54D50*
D03*
X35721Y-241302D02*
G54D49*
D03*
X85720Y-241300D02*
G54D49*
D03*
X48419Y-279400D02*
G54D50*
D03*
X86519Y-330200D02*
G54D50*
D03*
X45244Y-368300D02*
G54D49*
D03*
X45245Y-418303D02*
G54D49*
D03*
X219869Y-339725D02*
G54D51*
D03*
X219874Y-390530D02*
G54D51*
D03*
X245269Y-365125D02*
G54D52*
D03*
X181769Y-171450D02*
G54D49*
D03*
X181769Y-273050D02*
G54D49*
D03*
X264321Y-219077D02*
G54D49*
D03*
X314320Y-219076D02*
G54D49*
D03*
X318294Y-155575D02*
G54D52*
D03*
X343698Y-186527D02*
G54D52*
D03*
X369096Y-155575D02*
G54D52*
D03*
X484981Y-228600D02*
G54D53*
D03*
X434181Y-228600D02*
G54D53*
D03*
X433775Y-228492D02*
G54D53*
D03*
X485290Y-228662D02*
G54D53*
D03*
X459049Y-179567D02*
G54D53*
D03*
X435769Y-315912D02*
G54D49*
D03*
X461171Y-346862D02*
G54D49*
D03*
X486571Y-315912D02*
G54D49*
D03*
X584994Y-206375D02*
G54D52*
D03*
X615944Y-180973D02*
G54D52*
D03*
X584994Y-155573D02*
G54D52*
D03*
G36*
X858044Y-412750D02*
X858044Y-393700D01*
X877094Y-393700D01*
X877094Y-412750D01*
X858044Y-412750D01*
G37*
X892968Y-403226D02*
G54D49*
D03*
X918368Y-403226D02*
G54D49*
D03*
X943776Y-403230D02*
G54D49*
D03*
X867568Y-327026D02*
G54D49*
D03*
X892968Y-327026D02*
G54D49*
D03*
X918368Y-327026D02*
G54D49*
D03*
X943768Y-327026D02*
G54D49*
D03*
G36*
X658019Y-438150D02*
X658019Y-419100D01*
X677069Y-419100D01*
X677069Y-438150D01*
X658019Y-438150D01*
G37*
X692943Y-428626D02*
G54D49*
D03*
X718347Y-428628D02*
G54D49*
D03*
X743743Y-428626D02*
G54D49*
D03*
X667543Y-352426D02*
G54D49*
D03*
X692943Y-352426D02*
G54D49*
D03*
X718343Y-352426D02*
G54D49*
D03*
X743743Y-352426D02*
G54D49*
D03*
G36*
X51594Y-796925D02*
X51594Y-777875D01*
X70644Y-777875D01*
X70644Y-796925D01*
X51594Y-796925D01*
G37*
X86518Y-787401D02*
G54D49*
D03*
X111921Y-787407D02*
G54D49*
D03*
X137318Y-787401D02*
G54D49*
D03*
X61118Y-711201D02*
G54D49*
D03*
X86518Y-711201D02*
G54D49*
D03*
X111918Y-711201D02*
G54D49*
D03*
X137318Y-711201D02*
G54D49*
D03*
X242094Y-600075D02*
G54D51*
D03*
X191013Y-600076D02*
G54D51*
D03*
X242094Y-546100D02*
G54D51*
D03*
X191013Y-546100D02*
G54D51*
D03*
X356394Y-600075D02*
G54D51*
D03*
X305313Y-600076D02*
G54D51*
D03*
X356394Y-546100D02*
G54D51*
D03*
X305313Y-546100D02*
G54D51*
D03*
G36*
X410369Y-733425D02*
X410369Y-714375D01*
X429419Y-714375D01*
X429419Y-733425D01*
X410369Y-733425D01*
G37*
X445293Y-723901D02*
G54D49*
D03*
X470696Y-723907D02*
G54D49*
D03*
X496093Y-723901D02*
G54D49*
D03*
X419893Y-647701D02*
G54D49*
D03*
X445293Y-647701D02*
G54D49*
D03*
X470693Y-647701D02*
G54D49*
D03*
X496093Y-647701D02*
G54D49*
D03*
G36*
X369094Y-952500D02*
X369094Y-933450D01*
X388144Y-933450D01*
X388144Y-952500D01*
X369094Y-952500D01*
G37*
X404019Y-942975D02*
G54D49*
D03*
X429419Y-942975D02*
G54D49*
D03*
X454821Y-942979D02*
G54D49*
D03*
X378619Y-866775D02*
G54D49*
D03*
X404019Y-866775D02*
G54D49*
D03*
X429419Y-866775D02*
G54D49*
D03*
X454819Y-866775D02*
G54D49*
D03*
X86519Y-368300D02*
G54D49*
D03*
X86518Y-418301D02*
G54D49*
D03*
G54D30*
X254797Y-314328D02*
X235747Y-314328D01*
G54D30*
X254794Y-339725D02*
X235744Y-339725D01*
G54D30*
X254794Y-365125D02*
X235744Y-365125D01*
X226219Y-209550D02*
G54D49*
D03*
X226219Y-171450D02*
G54D49*
D03*
X362746Y-376958D02*
G54D49*
D03*
X362745Y-415062D02*
G54D49*
D03*
X378619Y-228600D02*
G54D50*
D03*
X419894Y-269875D02*
G54D50*
D03*
X321471Y-323852D02*
G54D50*
D03*
X378619Y-342900D02*
G54D50*
D03*
G36*
X258762Y-165385D02*
X266192Y-157956D01*
X276734Y-157956D01*
X284162Y-165385D01*
X284162Y-175927D01*
X276734Y-183356D01*
X266192Y-183356D01*
X258762Y-175927D01*
X258762Y-165385D01*
G37*
X461169Y-273050D02*
G54D49*
D03*
X499269Y-273050D02*
G54D49*
D03*
X689769Y-149225D02*
G54D49*
D03*
X651669Y-149225D02*
G54D49*
D03*
X651669Y-180975D02*
G54D49*
D03*
X689769Y-180975D02*
G54D49*
D03*
X499269Y-447675D02*
G54D52*
D03*
X473867Y-416725D02*
G54D52*
D03*
X448467Y-447675D02*
G54D52*
D03*
X407196Y-419102D02*
G54D49*
D03*
X407193Y-469101D02*
G54D49*
D03*
X445294Y-381000D02*
G54D49*
D03*
X407196Y-381002D02*
G54D49*
D03*
X540547Y-304802D02*
G54D50*
D03*
X578644Y-355600D02*
G54D50*
D03*
X716756Y-269875D02*
G54D52*
D03*
X665675Y-269875D02*
G54D52*
D03*
X632623Y-315915D02*
G54D49*
D03*
X682620Y-315913D02*
G54D49*
D03*
X572294Y-428625D02*
G54D49*
D03*
X622294Y-428626D02*
G54D49*
D03*
X572294Y-463550D02*
G54D49*
D03*
X622298Y-463553D02*
G54D49*
D03*
X683419Y-463550D02*
G54D49*
D03*
X733424Y-463553D02*
G54D49*
D03*
X892969Y-488950D02*
G54D49*
D03*
X854869Y-488950D02*
G54D49*
D03*
X842169Y-450850D02*
G54D49*
D03*
X892170Y-450850D02*
G54D49*
D03*
X967581Y-160338D02*
G54D53*
D03*
X916781Y-160337D02*
G54D53*
D03*
X916381Y-160232D02*
G54D53*
D03*
X967890Y-160399D02*
G54D53*
D03*
X941649Y-111305D02*
G54D53*
D03*
X858838Y-241300D02*
G54D49*
D03*
X858837Y-291301D02*
G54D49*
D03*
X48419Y-504825D02*
G54D52*
D03*
X73821Y-535775D02*
G54D52*
D03*
X99223Y-504827D02*
G54D52*
D03*
X191294Y-501650D02*
G54D49*
D03*
X241297Y-501653D02*
G54D49*
D03*
X140494Y-466725D02*
G54D49*
D03*
X140494Y-504825D02*
G54D49*
D03*
X48419Y-565150D02*
G54D54*
D03*
X48419Y-666750D02*
G54D54*
D03*
X140495Y-568327D02*
G54D49*
D03*
X90493Y-568324D02*
G54D49*
D03*
X305594Y-501650D02*
G54D49*
D03*
X355597Y-501653D02*
G54D49*
D03*
X140494Y-644525D02*
G54D49*
D03*
X190494Y-644526D02*
G54D49*
D03*
X232572Y-644531D02*
G54D49*
D03*
X282570Y-644526D02*
G54D49*
D03*
X324644Y-644525D02*
G54D49*
D03*
X374644Y-644526D02*
G54D49*
D03*
X92870Y-615952D02*
G54D49*
D03*
X92868Y-665951D02*
G54D49*
D03*
X61119Y-825500D02*
G54D49*
D03*
X111120Y-825500D02*
G54D49*
D03*
X61119Y-863600D02*
G54D49*
D03*
X111122Y-863607D02*
G54D49*
D03*
X388144Y-692150D02*
G54D54*
D03*
X286544Y-692150D02*
G54D54*
D03*
X286544Y-774700D02*
G54D49*
D03*
X286544Y-724699D02*
G54D49*
D03*
X324645Y-736604D02*
G54D49*
D03*
X374644Y-736600D02*
G54D49*
D03*
X324644Y-774700D02*
G54D49*
D03*
X374647Y-774704D02*
G54D49*
D03*
X410369Y-825500D02*
G54D49*
D03*
X448469Y-825500D02*
G54D49*
D03*
X337344Y-949325D02*
G54D49*
D03*
X337344Y-911225D02*
G54D49*
D03*
X499269Y-942975D02*
G54D49*
D03*
X499269Y-904875D02*
G54D49*
D03*
X597694Y-898525D02*
G54D52*
D03*
X597700Y-949333D02*
G54D52*
D03*
X553244Y-866775D02*
G54D52*
D03*
X584194Y-841373D02*
G54D52*
D03*
X553244Y-815973D02*
G54D52*
D03*
X534194Y-904875D02*
G54D49*
D03*
X534194Y-942975D02*
G54D49*
D03*
X623094Y-841375D02*
G54D50*
D03*
X680244Y-841375D02*
G54D50*
D03*
X680244Y-793750D02*
G54D50*
D03*
X623094Y-793750D02*
G54D50*
D03*
X623094Y-746125D02*
G54D50*
D03*
X680246Y-746127D02*
G54D50*
D03*
X575469Y-765175D02*
G54D54*
D03*
X473873Y-765183D02*
G54D54*
D03*
X518323Y-866779D02*
G54D49*
D03*
X518319Y-816774D02*
G54D49*
D03*
X537369Y-711200D02*
G54D49*
D03*
X537369Y-661199D02*
G54D49*
D03*
X581819Y-711200D02*
G54D49*
D03*
X581819Y-661199D02*
G54D49*
D03*
X623094Y-669925D02*
G54D52*
D03*
X648496Y-700875D02*
G54D52*
D03*
X673896Y-669925D02*
G54D52*
D03*
X572294Y-520700D02*
G54D52*
D03*
X597696Y-551650D02*
G54D52*
D03*
X623096Y-520700D02*
G54D52*
D03*
X407194Y-600075D02*
G54D49*
D03*
X407197Y-550077D02*
G54D49*
D03*
X508002Y-535785D02*
G54D51*
D03*
X456919Y-535782D02*
G54D51*
D03*
X584994Y-590550D02*
G54D49*
D03*
X623094Y-590550D02*
G54D49*
D03*
X780294Y-631825D02*
G54D49*
D03*
X805694Y-631825D02*
G54D49*
D03*
X831094Y-631825D02*
G54D49*
D03*
X856494Y-631825D02*
G54D49*
D03*
X881894Y-631825D02*
G54D49*
D03*
X907294Y-631825D02*
G54D49*
D03*
X932694Y-631825D02*
G54D49*
D03*
X958094Y-631825D02*
G54D49*
D03*
X943769Y-253206D02*
G54D49*
D03*
G36*
X953294Y-269081D02*
X953294Y-288131D01*
X934244Y-288131D01*
X934244Y-269081D01*
X953294Y-269081D01*
G37*
X877098Y-38102D02*
G54D49*
D03*
G36*
X886620Y-73025D02*
X867570Y-73025D01*
X867570Y-53975D01*
X886620Y-53975D01*
X886620Y-73025D01*
G37*
X952500Y-946150D02*
G54D55*
D03*
X952500Y-50800D02*
G54D55*
D03*
X50800Y-50800D02*
G54D55*
D03*
X50800Y-946152D02*
G54D56*
D03*
X819944Y-338138D02*
G54D49*
D03*
G36*
X829469Y-373062D02*
X810419Y-373062D01*
X810419Y-354012D01*
X829469Y-354012D01*
X829469Y-373062D01*
G37*
G36*
X764381Y-156369D02*
X764381Y-137319D01*
X783431Y-137319D01*
X783431Y-156369D01*
X764381Y-156369D01*
G37*
X773912Y-121445D02*
G54D49*
D03*
X537373Y-212727D02*
G54D49*
D03*
G36*
X546893Y-247649D02*
X527843Y-247649D01*
X527843Y-228599D01*
X546893Y-228599D01*
X546893Y-247649D01*
G37*
X410372Y-774706D02*
G54D49*
D03*
G36*
X445295Y-765177D02*
X445295Y-784227D01*
X426245Y-784227D01*
X426245Y-765177D01*
X445295Y-765177D01*
G37*
G54D30*
X321469Y-57150D02*
X321469Y-38100D01*
G54D30*
X296071Y-57151D02*
X296071Y-38101D01*
G54D30*
X270668Y-57150D02*
X270668Y-38100D01*
G54D30*
X245269Y-57150D02*
X245269Y-38100D01*
G54D30*
X823119Y-57150D02*
X823119Y-38100D01*
G54D30*
X797726Y-57152D02*
X797726Y-38102D01*
G54D30*
X772327Y-57153D02*
X772327Y-38103D01*
G54D30*
X746919Y-57150D02*
X746919Y-38100D01*
G54D30*
X635752Y-57301D02*
X635752Y-38251D01*
G54D30*
X610355Y-57301D02*
X610355Y-38251D01*
G54D30*
X584952Y-57302D02*
X584952Y-38252D01*
G54D30*
X121444Y-930285D02*
X121444Y-949335D01*
G54D30*
X146844Y-930275D02*
X146844Y-949325D01*
G54D30*
X172244Y-930275D02*
X172244Y-949325D01*
G54D30*
X197644Y-930275D02*
X197644Y-949325D01*
G54D30*
X223044Y-930275D02*
X223044Y-949325D01*
G54D30*
X248444Y-930275D02*
X248444Y-949325D01*
G54D30*
X273844Y-930275D02*
X273844Y-949325D01*
G54D30*
X299244Y-930275D02*
X299244Y-949325D01*
X859631Y-536575D02*
G54D53*
D03*
X859631Y-587375D02*
G54D53*
D03*
X859528Y-587785D02*
G54D53*
D03*
X859693Y-536266D02*
G54D53*
D03*
X810598Y-562508D02*
G54D53*
D03*
X670719Y-520700D02*
G54D49*
D03*
X720720Y-520700D02*
G54D49*
D03*
X662781Y-590550D02*
G54D49*
D03*
X712782Y-590550D02*
G54D49*
D03*
X759625Y-533403D02*
G54D49*
D03*
X759618Y-583401D02*
G54D49*
D03*
X773112Y-909638D02*
G54D52*
D03*
X773117Y-947742D02*
G54D52*
D03*
X962025Y-476250D02*
G54D49*
D03*
G36*
X952500Y-433388D02*
X971550Y-433388D01*
X971550Y-452438D01*
X952500Y-452438D01*
X952500Y-433388D01*
G37*
X946150Y-511175D02*
G54D49*
D03*
G36*
X903288Y-520700D02*
X903288Y-501650D01*
X922338Y-501650D01*
X922338Y-520700D01*
X903288Y-520700D01*
G37*
X741362Y-909638D02*
G54D49*
D03*
X741365Y-947740D02*
G54D49*
D03*
X140495Y-863602D02*
G54D50*
D03*
X169069Y-892175D02*
G54D50*
D03*
X188119Y-784225D02*
G54D50*
D03*
X238921Y-806454D02*
G54D50*
D03*
X169069Y-755650D02*
G54D50*
D03*
X224631Y-776288D02*
G54D50*
D03*
X191294Y-673100D02*
G54D50*
D03*
X242097Y-673106D02*
G54D50*
D03*
X324644Y-812800D02*
G54D49*
D03*
X374644Y-812800D02*
G54D49*
D03*
G54D39*
G75*
G01X848519Y-749300D02*
G03X848519Y-749300I-12700J0D01*
G01*
X835819Y-749300D02*
G54D57*
D03*
X737394Y-793750D02*
G54D58*
D03*
X737400Y-711206D02*
G54D58*
D03*
X851702Y-965208D02*
G54D59*
D03*
X851696Y-855665D02*
G54D59*
D03*
X645319Y-625475D02*
G54D52*
D03*
X721519Y-625475D02*
G54D52*
D03*
X943769Y-587375D02*
G54D60*
D03*
X905669Y-587375D02*
G54D60*
D03*
X181771Y-114302D02*
G54D49*
D03*
G36*
X191292Y-149224D02*
X172242Y-149224D01*
X172242Y-130174D01*
X191292Y-130174D01*
X191292Y-149224D01*
G37*
X521494Y-393700D02*
G54D49*
D03*
X623094Y-393700D02*
G54D49*
D03*
X645319Y-555625D02*
G54D52*
D03*
X721519Y-555625D02*
G54D52*
D03*
X943769Y-549275D02*
G54D60*
D03*
X905669Y-549275D02*
G54D60*
D03*
X791369Y-533400D02*
G54D49*
D03*
X791369Y-457200D02*
G54D49*
D03*
X569118Y-955676D02*
G54D61*
D03*
G54D30*
X447632Y-57302D02*
X447632Y-38252D01*
G54D30*
X422234Y-57302D02*
X422234Y-38252D01*
G54D30*
X396832Y-57302D02*
X396832Y-38252D01*
G36*
X678656Y-41560D02*
X686085Y-34131D01*
X696627Y-34131D01*
X704056Y-41560D01*
X704056Y-52102D01*
X696627Y-59531D01*
X686085Y-59531D01*
X678656Y-52102D01*
X678656Y-41560D01*
G37*
X724787Y-188819D02*
G54D52*
D03*
X800987Y-188819D02*
G54D52*
D03*
X272259Y-573091D02*
G54D50*
D03*
X457206Y-493718D02*
G54D50*
D03*
G36*
X273844Y-809116D02*
X281273Y-801688D01*
X291815Y-801688D01*
X299244Y-809116D01*
X299244Y-819658D01*
X291815Y-827088D01*
X281273Y-827088D01*
X273844Y-819658D01*
X273844Y-809116D01*
G37*
G54D27*
X842169Y-454025D02*
X842169Y-444500D01*
X858044Y-428625D01*
X912019Y-428625D01*
X918369Y-422275D01*
X918369Y-409575D01*
X791369Y-385762D02*
G54D49*
D03*
X791369Y-423862D02*
G54D49*
D03*
X826298Y-225427D02*
G54D54*
D03*
X724694Y-225425D02*
G54D54*
D03*
X629448Y-225427D02*
G54D49*
D03*
X679445Y-225426D02*
G54D49*
D03*
G54D27*
X584994Y-155575D02*
X626269Y-155575D01*
X651669Y-180975D01*
G54D27*
X623094Y-669925D02*
X623094Y-635000D01*
X632619Y-625475D01*
X645319Y-625475D01*
G54D27*
X537369Y-660400D02*
X537369Y-619125D01*
X565944Y-590550D01*
X581819Y-590550D01*
G54D27*
X537369Y-711200D02*
X537369Y-727075D01*
X543719Y-733425D01*
X597694Y-733425D01*
X629444Y-701675D01*
X648494Y-701675D01*
G54D27*
X572294Y-520700D02*
X572294Y-508000D01*
X581819Y-498475D01*
X638969Y-498475D01*
X645319Y-504825D01*
X645319Y-555625D01*
G54D27*
X578644Y-355600D02*
X578644Y-371475D01*
X600869Y-393700D01*
X623094Y-393700D01*
G54D41*
X350044Y-885825D02*
X369094Y-885825D01*
X375444Y-892175D01*
X454819Y-892175D01*
X486569Y-923925D01*
G54D41*
X483394Y-920750D02*
X486569Y-923925D01*
X559594Y-923925D01*
X569119Y-933450D01*
X569119Y-955675D01*
G54D41*
X337344Y-949325D02*
X340519Y-949325D01*
X372269Y-917575D01*
X461169Y-917575D01*
X477044Y-933450D01*
X477044Y-962025D01*
X486569Y-971550D01*
G54D41*
X248444Y-939800D02*
X248444Y-901700D01*
X254794Y-895350D01*
X315119Y-895350D01*
X324644Y-885825D01*
X350044Y-885825D01*
X737394Y-875506D02*
G54D49*
D03*
X737394Y-825506D02*
G54D49*
D03*
G54D27*
X597694Y-898525D02*
X619919Y-876300D01*
X737394Y-876300D01*
X919956Y-877888D02*
G54D61*
D03*
G54D41*
X552450Y-815181D02*
X697706Y-814388D01*
X733425Y-850106D01*
X745331Y-850106D01*
X772319Y-877094D01*
X958056Y-750888D02*
G54D49*
D03*
X958056Y-852488D02*
G54D49*
D03*
G54D27*
X737394Y-825500D02*
X758031Y-825500D01*
X788988Y-856456D01*
X851694Y-856456D01*
G54D41*
X337344Y-949325D02*
X340519Y-949325D01*
X747720Y-253208D02*
G54D49*
D03*
X124619Y-47625D02*
G54D62*
D03*
X175421Y-47627D02*
G54D62*
D03*
G54D27*
X286544Y-692150D02*
X327819Y-692150D01*
X375444Y-644525D01*
G36*
X115094Y-674179D02*
X122523Y-666750D01*
X133065Y-666750D01*
X140494Y-674179D01*
X140494Y-684721D01*
X133065Y-692150D01*
X122523Y-692150D01*
X115094Y-684721D01*
X115094Y-674179D01*
G37*
G54D27*
X435769Y-774700D02*
X445294Y-774700D01*
X473869Y-803275D01*
X473869Y-863600D01*
X470694Y-866775D01*
X454819Y-866775D01*
X826294Y-198438D02*
G54D49*
D03*
X927894Y-198438D02*
G54D49*
D03*
X775494Y-269875D02*
G54D53*
D03*
X775494Y-319881D02*
G54D53*
D03*
X98836Y-463139D02*
G54D53*
D03*
X48830Y-463139D02*
G54D53*
D03*
X495711Y-597283D02*
G54D53*
D03*
X445704Y-597283D02*
G54D53*
D03*
X308389Y-867958D02*
G54D53*
D03*
X258380Y-867952D02*
G54D53*
D03*
X571122Y-272669D02*
G54D53*
D03*
X621124Y-272668D02*
G54D53*
D03*
X958056Y-717550D02*
G54D52*
D03*
X958056Y-679450D02*
G54D52*
D03*
G54D27*
X224631Y-776288D02*
X224631Y-750888D01*
X251619Y-723900D01*
X286544Y-723900D01*
G54D41*
X486569Y-971550D02*
X643731Y-972344D01*
X656431Y-963612D01*
X656431Y-937419D01*
X442915Y-105571D02*
G54D49*
D03*
X492913Y-105569D02*
G54D49*
D03*
G54D41*
X772319Y-877094D02*
X776288Y-881062D01*
X916781Y-881062D01*
X919956Y-877888D01*
G54D41*
X222250Y-939800D02*
X222250Y-962025D01*
X234950Y-974725D01*
X419100Y-974725D01*
X428625Y-965200D01*
X428625Y-942975D01*
G54D27*
X673894Y-669925D02*
X673894Y-601662D01*
X662781Y-590550D01*
G54D41*
X623094Y-669925D02*
X645319Y-669925D01*
X667544Y-692150D01*
X687388Y-692150D01*
X719931Y-659606D01*
X846931Y-659606D01*
X857250Y-649288D01*
X857250Y-632619D01*
G36*
X880272Y-292386D02*
X887701Y-284957D01*
X898243Y-284957D01*
X905672Y-292386D01*
X905672Y-302928D01*
X898243Y-310357D01*
X887701Y-310357D01*
X880272Y-302928D01*
X880272Y-292386D01*
G37*
G36*
X812012Y-292387D02*
X819441Y-284958D01*
X829983Y-284958D01*
X837412Y-292387D01*
X837412Y-302929D01*
X829983Y-310358D01*
X819441Y-310358D01*
X812012Y-302929D01*
X812012Y-292387D01*
G37*
G36*
X511492Y-487914D02*
X519664Y-479742D01*
X531260Y-479742D01*
X539432Y-487914D01*
X539432Y-499510D01*
X531260Y-507682D01*
X519664Y-507682D01*
X511492Y-499510D01*
X511492Y-487914D01*
G37*
G36*
X480219Y-61404D02*
X487648Y-53975D01*
X498190Y-53975D01*
X505619Y-61404D01*
X505619Y-71946D01*
X498190Y-79375D01*
X487648Y-79375D01*
X480219Y-71946D01*
X480219Y-61404D01*
G37*
G54D33*
X6350Y-6350D02*
X996950Y-6350D01*
X996950Y-990600D01*
X6350Y-990600D01*
X6350Y-6350D01*
G54D27*
X757238Y-673100D02*
X863600Y-673100D01*
X880269Y-656431D01*
X915988Y-656431D01*
X877888Y-103981D02*
G54D49*
D03*
X877887Y-153982D02*
G54D49*
D03*
X842172Y-142875D02*
G54D49*
D03*
X842169Y-104775D02*
G54D49*
D03*
G54D27*
X746125Y-46831D02*
X746125Y-164306D01*
X771525Y-189706D01*
X800100Y-189706D01*
G36*
X499269Y-572579D02*
X506698Y-565150D01*
X517240Y-565150D01*
X524669Y-572579D01*
X524669Y-583121D01*
X517240Y-590550D01*
X506698Y-590550D01*
X499269Y-583121D01*
X499269Y-572579D01*
G37*
X141477Y-171452D02*
G54D52*
D03*
X141476Y-247652D02*
G54D52*
D03*
G54D27*
X943769Y-549275D02*
X962819Y-549275D01*
X972344Y-539750D01*
X972344Y-500856D01*
X962025Y-490538D01*
X962025Y-477044D01*
X331836Y-113266D02*
G54D63*
D03*
X230236Y-113266D02*
G54D63*
D03*
X537116Y-182022D02*
G54D63*
D03*
X537116Y-80422D02*
G54D63*
D03*
G54D30*
X656431Y-927894D02*
X656431Y-946944D01*
G54D30*
X681831Y-927894D02*
X681831Y-946944D01*
G36*
X704850Y-310642D02*
X712279Y-303212D01*
X722821Y-303212D01*
X730250Y-310642D01*
X730250Y-321184D01*
X722821Y-328612D01*
X712279Y-328612D01*
X704850Y-321184D01*
X704850Y-310642D01*
G37*
M02*
